G04*
G04 #@! TF.GenerationSoftware,Altium Limited,Altium Designer,23.1.1 (15)*
G04*
G04 Layer_Color=16711935*
%FSLAX44Y44*%
%MOMM*%
G71*
G04*
G04 #@! TF.SameCoordinates,59153929-C944-4D8D-ADD8-4EEA14B2016B*
G04*
G04*
G04 #@! TF.FilePolarity,Negative*
G04*
G01*
G75*
%ADD36R,1.6032X1.4032*%
%ADD54R,1.3032X1.3032*%
%ADD55C,1.3032*%
%ADD56C,1.8532*%
%ADD57R,1.8532X1.8532*%
%ADD58C,1.4032*%
%ADD59C,1.8032*%
%ADD60R,1.8032X1.8032*%
%ADD61R,1.8032X1.8032*%
%ADD62R,1.3032X1.3032*%
%ADD63C,6.2032*%
%ADD64R,1.4032X1.4032*%
%ADD65C,2.1982*%
%ADD66R,2.1982X2.1982*%
%ADD67R,2.3782X2.3782*%
%ADD68C,2.3782*%
%ADD69R,1.7032X1.7032*%
%ADD70C,1.7032*%
%ADD71C,3.2032*%
%ADD72C,0.7032*%
D36*
X662000Y75000D02*
D03*
Y57000D02*
D03*
X548500Y75000D02*
D03*
Y57000D02*
D03*
D54*
X637500Y126000D02*
D03*
X943045Y647919D02*
D03*
D55*
X637500Y146000D02*
D03*
X722740Y603750D02*
D03*
X632650Y799330D02*
D03*
X943045Y627919D02*
D03*
X831490Y838720D02*
D03*
X749890Y861580D02*
D03*
D56*
X31800Y379900D02*
D03*
Y354500D02*
D03*
X57200Y379900D02*
D03*
Y354500D02*
D03*
X31800Y329100D02*
D03*
D57*
X57200D02*
D03*
D58*
X398100Y93000D02*
D03*
X423500D02*
D03*
X448900D02*
D03*
X295000Y981000D02*
D03*
D59*
X460700Y27000D02*
D03*
X409900D02*
D03*
X359100D02*
D03*
X384500D02*
D03*
X435300D02*
D03*
X486100D02*
D03*
X511500D02*
D03*
X687400D02*
D03*
X712800D02*
D03*
X738200D02*
D03*
X245700D02*
D03*
X194900D02*
D03*
X144100D02*
D03*
X169500D02*
D03*
X220300D02*
D03*
X271100D02*
D03*
X296500D02*
D03*
X573900D02*
D03*
X599300D02*
D03*
X624700D02*
D03*
X786230Y453960D02*
D03*
X853390Y53610D02*
D03*
X384900Y952400D02*
D03*
D60*
X333700Y27000D02*
D03*
X662000D02*
D03*
X118700D02*
D03*
X548500D02*
D03*
X803390Y53610D02*
D03*
X434900Y952400D02*
D03*
D61*
X786230Y479360D02*
D03*
D62*
X697740Y603750D02*
D03*
X612650Y799330D02*
D03*
X851490Y838720D02*
D03*
X729890Y861580D02*
D03*
D63*
X40000Y40000D02*
D03*
X960000D02*
D03*
X40000Y960000D02*
D03*
X960000D02*
D03*
D64*
X154000Y981000D02*
D03*
D65*
X850980Y664950D02*
D03*
Y630950D02*
D03*
X892890Y681950D02*
D03*
Y647950D02*
D03*
D66*
Y613950D02*
D03*
D67*
X153700Y930000D02*
D03*
D68*
X204500D02*
D03*
X255300D02*
D03*
X306100D02*
D03*
D69*
X278810Y606990D02*
D03*
Y807650D02*
D03*
X153080Y606990D02*
D03*
Y807650D02*
D03*
D70*
X353810Y606990D02*
D03*
Y807650D02*
D03*
X78080Y606990D02*
D03*
Y807650D02*
D03*
D71*
X803700Y647900D02*
D03*
D72*
X336046Y215040D02*
D03*
X462000Y196000D02*
D03*
X517500Y235500D02*
D03*
X346000Y203500D02*
D03*
X285230Y243080D02*
D03*
X230000Y245000D02*
D03*
X242000Y256500D02*
D03*
X529500Y229500D02*
D03*
X760000Y297500D02*
D03*
X770000D02*
D03*
X780000D02*
D03*
X760000Y307500D02*
D03*
X770000D02*
D03*
X780000D02*
D03*
Y345000D02*
D03*
X770000D02*
D03*
X760000D02*
D03*
X780000Y335000D02*
D03*
X770000D02*
D03*
X760000D02*
D03*
X462000Y252000D02*
D03*
X529500Y265000D02*
D03*
X517500D02*
D03*
X540000Y275500D02*
D03*
X645500Y319000D02*
D03*
X666500Y326500D02*
D03*
X548000Y137500D02*
D03*
X176000Y264000D02*
D03*
Y273500D02*
D03*
X400000Y247500D02*
D03*
X293500Y316500D02*
D03*
Y297500D02*
D03*
Y326000D02*
D03*
Y307000D02*
D03*
X666500Y235500D02*
D03*
X766500Y372500D02*
D03*
X515000Y319000D02*
D03*
X540000Y363000D02*
D03*
X641500Y277500D02*
D03*
X707500Y398000D02*
D03*
X869000Y406000D02*
D03*
X818000Y278000D02*
D03*
X234500Y223000D02*
D03*
X477500Y759000D02*
D03*
Y805000D02*
D03*
X636000Y599000D02*
D03*
Y609500D02*
D03*
X599000Y599000D02*
D03*
Y609500D02*
D03*
X629500D02*
D03*
Y599000D02*
D03*
X605500D02*
D03*
Y609500D02*
D03*
X623500Y599000D02*
D03*
Y609500D02*
D03*
X617500Y599000D02*
D03*
Y609500D02*
D03*
X611500Y599000D02*
D03*
Y609500D02*
D03*
X729570Y921270D02*
D03*
M02*
