G04*
G04 #@! TF.GenerationSoftware,Altium Limited,Altium Designer,23.1.1 (15)*
G04*
G04 Layer_Color=8421504*
%FSLAX44Y44*%
%MOMM*%
G71*
G04*
G04 #@! TF.SameCoordinates,59153929-C944-4D8D-ADD8-4EEA14B2016B*
G04*
G04*
G04 #@! TF.FilePolarity,Positive*
G04*
G01*
G75*
%ADD17R,1.2000X0.6000*%
%ADD18R,1.4000X1.2000*%
%ADD19R,1.2000X1.4000*%
%ADD20R,0.6500X1.5000*%
G04:AMPARAMS|DCode=21|XSize=1.5mm|YSize=0.6mm|CornerRadius=0mm|HoleSize=0mm|Usage=FLASHONLY|Rotation=135.000|XOffset=0mm|YOffset=0mm|HoleType=Round|Shape=Rectangle|*
%AMROTATEDRECTD21*
4,1,4,0.7425,-0.3182,0.3182,-0.7425,-0.7425,0.3182,-0.3182,0.7425,0.7425,-0.3182,0.0*
%
%ADD21ROTATEDRECTD21*%

G04:AMPARAMS|DCode=22|XSize=1.5mm|YSize=0.6mm|CornerRadius=0mm|HoleSize=0mm|Usage=FLASHONLY|Rotation=45.000|XOffset=0mm|YOffset=0mm|HoleType=Round|Shape=Rectangle|*
%AMROTATEDRECTD22*
4,1,4,-0.3182,-0.7425,-0.7425,-0.3182,0.3182,0.7425,0.7425,0.3182,-0.3182,-0.7425,0.0*
%
%ADD22ROTATEDRECTD22*%

%ADD23R,0.6500X1.5250*%
G04:AMPARAMS|DCode=24|XSize=1.4mm|YSize=1.2mm|CornerRadius=0mm|HoleSize=0mm|Usage=FLASHONLY|Rotation=45.000|XOffset=0mm|YOffset=0mm|HoleType=Round|Shape=Rectangle|*
%AMROTATEDRECTD24*
4,1,4,-0.0707,-0.9192,-0.9192,-0.0707,0.0707,0.9192,0.9192,0.0707,-0.0707,-0.9192,0.0*
%
%ADD24ROTATEDRECTD24*%

%ADD25R,0.6000X1.2000*%
%ADD26R,0.6500X1.1000*%
%ADD27R,2.2000X1.5500*%
%ADD28R,0.3000X1.4250*%
%ADD29R,1.8800X1.6800*%
%ADD30R,4.0000X1.5000*%
%ADD31R,0.9000X1.8000*%
%ADD32R,3.2000X1.8000*%
%ADD33R,1.0500X0.5500*%
%ADD34R,1.5000X4.0000*%
D17*
X569500Y140500D02*
D03*
Y131000D02*
D03*
Y121500D02*
D03*
X594500D02*
D03*
Y140500D02*
D03*
X503000Y770000D02*
D03*
Y779500D02*
D03*
Y789000D02*
D03*
X478000D02*
D03*
Y770000D02*
D03*
D18*
X548000Y103500D02*
D03*
Y121500D02*
D03*
X79500Y279500D02*
D03*
Y261500D02*
D03*
X57500D02*
D03*
Y279500D02*
D03*
X666500Y252000D02*
D03*
Y270000D02*
D03*
X383000Y265500D02*
D03*
Y247500D02*
D03*
X361500Y265500D02*
D03*
Y247500D02*
D03*
X502000Y252000D02*
D03*
Y270000D02*
D03*
X480500Y270000D02*
D03*
Y252000D02*
D03*
X561500Y292000D02*
D03*
Y310000D02*
D03*
X622500Y311500D02*
D03*
Y329500D02*
D03*
X801000Y263500D02*
D03*
Y245500D02*
D03*
X877500Y256500D02*
D03*
Y238500D02*
D03*
X920500Y238500D02*
D03*
Y256500D02*
D03*
X942000Y256500D02*
D03*
Y238500D02*
D03*
X890250Y392460D02*
D03*
Y410460D02*
D03*
X732500Y431000D02*
D03*
Y413000D02*
D03*
X786230Y507660D02*
D03*
Y525660D02*
D03*
X869000Y470000D02*
D03*
Y488000D02*
D03*
X931500Y700500D02*
D03*
Y682500D02*
D03*
X942960Y383460D02*
D03*
Y401460D02*
D03*
X921960Y383460D02*
D03*
Y401460D02*
D03*
X942960Y555460D02*
D03*
Y537460D02*
D03*
X942960Y518960D02*
D03*
Y500960D02*
D03*
X765500Y602500D02*
D03*
Y584500D02*
D03*
X629160Y659520D02*
D03*
Y677520D02*
D03*
X627890Y534010D02*
D03*
Y516010D02*
D03*
X607570Y516010D02*
D03*
Y534010D02*
D03*
X453500Y752000D02*
D03*
Y770000D02*
D03*
X899000Y256500D02*
D03*
Y238500D02*
D03*
X467550Y843670D02*
D03*
Y861670D02*
D03*
X489030Y843670D02*
D03*
Y861670D02*
D03*
X510620Y843670D02*
D03*
Y861670D02*
D03*
X532210Y843670D02*
D03*
Y861670D02*
D03*
X553800Y843670D02*
D03*
Y861670D02*
D03*
X575390Y843670D02*
D03*
Y861670D02*
D03*
X596980Y843670D02*
D03*
Y861670D02*
D03*
X618570Y843670D02*
D03*
Y861670D02*
D03*
X640270Y843670D02*
D03*
Y861670D02*
D03*
X661750Y843670D02*
D03*
Y861670D02*
D03*
D19*
X32000Y420000D02*
D03*
X50000D02*
D03*
X750000Y372500D02*
D03*
X732000D02*
D03*
X833000Y557000D02*
D03*
X851000D02*
D03*
X833000Y579000D02*
D03*
X851000D02*
D03*
X612650Y754880D02*
D03*
X630650D02*
D03*
X587250Y552950D02*
D03*
X569250D02*
D03*
X640480Y559300D02*
D03*
X658480D02*
D03*
X648210Y514850D02*
D03*
X666210D02*
D03*
X588630Y626610D02*
D03*
X570630D02*
D03*
X606520Y652010D02*
D03*
X588520D02*
D03*
X767560Y946670D02*
D03*
X785560D02*
D03*
D20*
X641400Y348000D02*
D03*
X654100D02*
D03*
X666800D02*
D03*
X679500D02*
D03*
X692200D02*
D03*
X704900D02*
D03*
X717600D02*
D03*
Y294000D02*
D03*
X704900D02*
D03*
X692200D02*
D03*
X679500D02*
D03*
X666800D02*
D03*
X654100D02*
D03*
X641400D02*
D03*
D21*
X204649Y247753D02*
D03*
X210306Y253410D02*
D03*
X215963Y259067D02*
D03*
X221619Y264724D02*
D03*
X227276Y270380D02*
D03*
X232933Y276037D02*
D03*
X238590Y281694D02*
D03*
X244247Y287351D02*
D03*
X304351Y227247D02*
D03*
X298694Y221590D02*
D03*
X293037Y215933D02*
D03*
X287381Y210276D02*
D03*
X281724Y204620D02*
D03*
X276067Y198963D02*
D03*
X270410Y193306D02*
D03*
X264753Y187649D02*
D03*
D22*
Y287351D02*
D03*
X270410Y281694D02*
D03*
X276067Y276037D02*
D03*
X281724Y270380D02*
D03*
X287381Y264724D02*
D03*
X293037Y259067D02*
D03*
X298694Y253410D02*
D03*
X304351Y247753D02*
D03*
X244247Y187649D02*
D03*
X238590Y193306D02*
D03*
X232933Y198963D02*
D03*
X227276Y204620D02*
D03*
X221619Y210276D02*
D03*
X215963Y215933D02*
D03*
X210306Y221590D02*
D03*
X204649Y227247D02*
D03*
D23*
X540050Y346120D02*
D03*
X527350D02*
D03*
X514650D02*
D03*
X501950D02*
D03*
Y291880D02*
D03*
X514650D02*
D03*
X527350D02*
D03*
X540050D02*
D03*
X918950Y777620D02*
D03*
X931650D02*
D03*
X944350D02*
D03*
X957050D02*
D03*
Y723380D02*
D03*
X944350D02*
D03*
X931650D02*
D03*
X918950D02*
D03*
D24*
X318364Y273136D02*
D03*
X305636Y285864D02*
D03*
X202136Y190864D02*
D03*
X214864Y178136D02*
D03*
D25*
X825960Y238540D02*
D03*
X835460D02*
D03*
X844960D02*
D03*
Y263540D02*
D03*
X825960D02*
D03*
X869000Y445500D02*
D03*
X859500D02*
D03*
X850000D02*
D03*
Y420500D02*
D03*
X869000D02*
D03*
X707500Y413000D02*
D03*
X688500D02*
D03*
Y438000D02*
D03*
X698000D02*
D03*
X707500D02*
D03*
D26*
X833000Y529500D02*
D03*
X842600Y508500D02*
D03*
X823400D02*
D03*
D27*
X633150Y721860D02*
D03*
X592150D02*
D03*
D28*
X627810Y626400D02*
D03*
X622810D02*
D03*
X617810D02*
D03*
X612810D02*
D03*
X607810D02*
D03*
Y582160D02*
D03*
X612810D02*
D03*
X617810D02*
D03*
X622810D02*
D03*
X627810D02*
D03*
D29*
X617810Y604280D02*
D03*
D30*
X710440Y664490D02*
D03*
Y700490D02*
D03*
D31*
X526150Y458180D02*
D03*
X549150D02*
D03*
X572150D02*
D03*
D32*
X549150Y518180D02*
D03*
D33*
X745780Y920610D02*
D03*
Y911110D02*
D03*
Y901610D02*
D03*
X771780D02*
D03*
Y911110D02*
D03*
Y920610D02*
D03*
D34*
X851710Y911110D02*
D03*
X815710D02*
D03*
M02*
