G04*
G04 #@! TF.GenerationSoftware,Altium Limited,Altium Designer,23.1.1 (15)*
G04*
G04 Layer_Physical_Order=2*
G04 Layer_Color=16711680*
%FSLAX44Y44*%
%MOMM*%
G71*
G04*
G04 #@! TF.SameCoordinates,59153929-C944-4D8D-ADD8-4EEA14B2016B*
G04*
G04*
G04 #@! TF.FilePolarity,Positive*
G04*
G01*
G75*
%ADD11C,0.2540*%
%ADD16C,1.0000*%
%ADD18R,1.4000X1.2000*%
%ADD77R,1.1000X1.1000*%
%ADD78C,1.1000*%
%ADD79C,1.6500*%
%ADD80R,1.6500X1.6500*%
%ADD81C,1.2000*%
%ADD82C,1.6000*%
%ADD83R,1.6000X1.6000*%
%ADD84R,1.6000X1.6000*%
%ADD85R,1.1000X1.1000*%
%ADD86C,6.0000*%
%ADD87R,1.2000X1.2000*%
%ADD88C,1.9950*%
%ADD89R,1.9950X1.9950*%
%ADD90R,2.1750X2.1750*%
%ADD91C,2.1750*%
%ADD92R,1.5000X1.5000*%
%ADD93C,1.5000*%
%ADD94C,3.0000*%
%ADD95C,0.5000*%
G36*
X996950Y2540D02*
X2540D01*
Y996950D01*
X996950D01*
Y2540D01*
D02*
G37*
%LPC*%
G36*
X296124Y989540D02*
X293876D01*
X291704Y988958D01*
X289756Y987834D01*
X288166Y986244D01*
X287042Y984296D01*
X286460Y982124D01*
Y979876D01*
X287042Y977704D01*
X288166Y975756D01*
X289756Y974166D01*
X291704Y973042D01*
X293876Y972460D01*
X296124D01*
X298296Y973042D01*
X300244Y974166D01*
X301834Y975756D01*
X302958Y977704D01*
X303540Y979876D01*
Y982124D01*
X302958Y984296D01*
X301834Y986244D01*
X300244Y987834D01*
X298296Y988958D01*
X296124Y989540D01*
D02*
G37*
G36*
X162540D02*
X145460D01*
Y972460D01*
X162540D01*
Y989540D01*
D02*
G37*
G36*
X445440Y962940D02*
X424360D01*
Y941860D01*
X445440D01*
Y962940D01*
D02*
G37*
G36*
X386288D02*
X383512D01*
X380832Y962222D01*
X378428Y960834D01*
X376466Y958872D01*
X375078Y956468D01*
X374360Y953788D01*
Y951012D01*
X375078Y948332D01*
X376466Y945928D01*
X378428Y943966D01*
X380832Y942578D01*
X383512Y941860D01*
X386288D01*
X388968Y942578D01*
X391372Y943966D01*
X393334Y945928D01*
X394722Y948332D01*
X395440Y951012D01*
Y953788D01*
X394722Y956468D01*
X393334Y958872D01*
X391372Y960834D01*
X388968Y962222D01*
X386288Y962940D01*
D02*
G37*
G36*
X962561Y992540D02*
X957439D01*
X952380Y991739D01*
X947509Y990156D01*
X942945Y987831D01*
X938802Y984820D01*
X935180Y981198D01*
X932169Y977055D01*
X929844Y972491D01*
X928261Y967620D01*
X927460Y962561D01*
Y957439D01*
X928261Y952380D01*
X929844Y947509D01*
X932169Y942945D01*
X935180Y938802D01*
X938802Y935180D01*
X942945Y932169D01*
X947509Y929844D01*
X952380Y928261D01*
X957439Y927460D01*
X962561D01*
X967620Y928261D01*
X972491Y929844D01*
X977055Y932169D01*
X981198Y935180D01*
X984820Y938802D01*
X987831Y942945D01*
X990156Y947509D01*
X991739Y952380D01*
X992540Y957439D01*
Y962561D01*
X991739Y967620D01*
X990156Y972491D01*
X987831Y977055D01*
X984820Y981198D01*
X981198Y984820D01*
X977055Y987831D01*
X972491Y990156D01*
X967620Y991739D01*
X962561Y992540D01*
D02*
G37*
G36*
X42561D02*
X37439D01*
X32380Y991739D01*
X27509Y990156D01*
X22945Y987831D01*
X18802Y984820D01*
X15180Y981198D01*
X12169Y977055D01*
X9844Y972491D01*
X8261Y967620D01*
X7460Y962561D01*
Y957439D01*
X8261Y952380D01*
X9844Y947509D01*
X12169Y942945D01*
X15180Y938802D01*
X18802Y935180D01*
X22945Y932169D01*
X27509Y929844D01*
X32380Y928261D01*
X37439Y927460D01*
X42561D01*
X47620Y928261D01*
X52491Y929844D01*
X57055Y932169D01*
X61198Y935180D01*
X64820Y938802D01*
X67831Y942945D01*
X70156Y947509D01*
X71739Y952380D01*
X72540Y957439D01*
Y962561D01*
X71739Y967620D01*
X70156Y972491D01*
X67831Y977055D01*
X64820Y981198D01*
X61198Y984820D01*
X57055Y987831D01*
X52491Y990156D01*
X47620Y991739D01*
X42561Y992540D01*
D02*
G37*
G36*
X730840Y926199D02*
Y922540D01*
X734499D01*
X733843Y924125D01*
X732425Y925543D01*
X730840Y926199D01*
D02*
G37*
G36*
X728300D02*
X726715Y925543D01*
X725297Y924125D01*
X724641Y922540D01*
X728300D01*
Y926199D01*
D02*
G37*
G36*
X307866Y943415D02*
X304334D01*
X300922Y942501D01*
X297863Y940735D01*
X295365Y938237D01*
X293599Y935178D01*
X292685Y931766D01*
Y928234D01*
X293599Y924822D01*
X295365Y921763D01*
X297863Y919265D01*
X300922Y917499D01*
X304334Y916585D01*
X307866D01*
X311278Y917499D01*
X314337Y919265D01*
X316835Y921763D01*
X318601Y924822D01*
X319515Y928234D01*
Y931766D01*
X318601Y935178D01*
X316835Y938237D01*
X314337Y940735D01*
X311278Y942501D01*
X307866Y943415D01*
D02*
G37*
G36*
X257066D02*
X253534D01*
X250122Y942501D01*
X247063Y940735D01*
X244565Y938237D01*
X242799Y935178D01*
X241885Y931766D01*
Y928234D01*
X242799Y924822D01*
X244565Y921763D01*
X247063Y919265D01*
X250122Y917499D01*
X253534Y916585D01*
X257066D01*
X260478Y917499D01*
X263537Y919265D01*
X266035Y921763D01*
X267801Y924822D01*
X268715Y928234D01*
Y931766D01*
X267801Y935178D01*
X266035Y938237D01*
X263537Y940735D01*
X260478Y942501D01*
X257066Y943415D01*
D02*
G37*
G36*
X206266D02*
X202734D01*
X199322Y942501D01*
X196263Y940735D01*
X193765Y938237D01*
X191999Y935178D01*
X191085Y931766D01*
Y928234D01*
X191999Y924822D01*
X193765Y921763D01*
X196263Y919265D01*
X199322Y917499D01*
X202734Y916585D01*
X206266D01*
X209678Y917499D01*
X212737Y919265D01*
X215235Y921763D01*
X217001Y924822D01*
X217915Y928234D01*
Y931766D01*
X217001Y935178D01*
X215235Y938237D01*
X212737Y940735D01*
X209678Y942501D01*
X206266Y943415D01*
D02*
G37*
G36*
X167115D02*
X140285D01*
Y916585D01*
X167115D01*
Y943415D01*
D02*
G37*
G36*
X734499Y920000D02*
X730840D01*
Y916341D01*
X732425Y916997D01*
X733843Y918415D01*
X734499Y920000D01*
D02*
G37*
G36*
X728300D02*
X724641D01*
X725297Y918415D01*
X726715Y916997D01*
X728300Y916341D01*
Y920000D01*
D02*
G37*
G36*
X750948Y869620D02*
X748831D01*
X746787Y869072D01*
X744953Y868014D01*
X743456Y866517D01*
X742398Y864683D01*
X741850Y862638D01*
Y860521D01*
X742398Y858477D01*
X743456Y856643D01*
X744953Y855146D01*
X746787Y854088D01*
X748831Y853540D01*
X750948D01*
X752993Y854088D01*
X754827Y855146D01*
X756324Y856643D01*
X757382Y858477D01*
X757930Y860521D01*
Y862638D01*
X757382Y864683D01*
X756324Y866517D01*
X754827Y868014D01*
X752993Y869072D01*
X750948Y869620D01*
D02*
G37*
G36*
X859530Y846760D02*
X852760D01*
Y839990D01*
X859530D01*
Y846760D01*
D02*
G37*
G36*
X850220D02*
X843450D01*
Y839990D01*
X850220D01*
Y846760D01*
D02*
G37*
G36*
X859530Y837450D02*
X852760D01*
Y830680D01*
X859530D01*
Y837450D01*
D02*
G37*
G36*
X850220D02*
X843450D01*
Y830680D01*
X850220D01*
Y837450D01*
D02*
G37*
G36*
X832548Y846760D02*
X830432D01*
X828387Y846212D01*
X826553Y845154D01*
X825056Y843657D01*
X823998Y841823D01*
X823450Y839779D01*
Y837662D01*
X823998Y835617D01*
X825056Y833783D01*
X826553Y832286D01*
X828387Y831228D01*
X830432Y830680D01*
X832548D01*
X834593Y831228D01*
X836427Y832286D01*
X837924Y833783D01*
X838982Y835617D01*
X839530Y837662D01*
Y839779D01*
X838982Y841823D01*
X837924Y843657D01*
X836427Y845154D01*
X834593Y846212D01*
X832548Y846760D01*
D02*
G37*
G36*
X355132Y817690D02*
X352488D01*
X349935Y817006D01*
X347645Y815684D01*
X345776Y813815D01*
X344454Y811525D01*
X343770Y808972D01*
Y806328D01*
X344454Y803775D01*
X345776Y801485D01*
X347645Y799616D01*
X349935Y798294D01*
X352488Y797610D01*
X355132D01*
X357685Y798294D01*
X359975Y799616D01*
X361844Y801485D01*
X363166Y803775D01*
X363850Y806328D01*
Y808972D01*
X363166Y811525D01*
X361844Y813815D01*
X359975Y815684D01*
X357685Y817006D01*
X355132Y817690D01*
D02*
G37*
G36*
X288850D02*
X268770D01*
Y797610D01*
X288850D01*
Y817690D01*
D02*
G37*
G36*
X163120D02*
X143040D01*
Y797610D01*
X163120D01*
Y817690D01*
D02*
G37*
G36*
X79402D02*
X76758D01*
X74205Y817006D01*
X71915Y815684D01*
X70046Y813815D01*
X68724Y811525D01*
X68040Y808972D01*
Y806328D01*
X68724Y803775D01*
X70046Y801485D01*
X71915Y799616D01*
X74205Y798294D01*
X76758Y797610D01*
X79402D01*
X81955Y798294D01*
X84245Y799616D01*
X86114Y801485D01*
X87436Y803775D01*
X88120Y806328D01*
Y808972D01*
X87436Y811525D01*
X86114Y813815D01*
X84245Y815684D01*
X81955Y817006D01*
X79402Y817690D01*
D02*
G37*
G36*
X633708Y807370D02*
X631591D01*
X629547Y806822D01*
X627713Y805764D01*
X626216Y804267D01*
X625158Y802433D01*
X624610Y800388D01*
Y798272D01*
X625158Y796227D01*
X626216Y794393D01*
X627713Y792896D01*
X629547Y791838D01*
X631591Y791290D01*
X633708D01*
X635753Y791838D01*
X637587Y792896D01*
X639084Y794393D01*
X640142Y796227D01*
X640690Y798272D01*
Y800388D01*
X640142Y802433D01*
X639084Y804267D01*
X637587Y805764D01*
X635753Y806822D01*
X633708Y807370D01*
D02*
G37*
G36*
X478503Y810040D02*
X476497D01*
X474645Y809273D01*
X473227Y807855D01*
X472460Y806003D01*
Y803997D01*
X473227Y802145D01*
X474645Y800727D01*
X476497Y799960D01*
X478503D01*
X480355Y800727D01*
X480743Y801115D01*
X526391D01*
X530753Y796753D01*
X532013Y795911D01*
X533500Y795615D01*
X604610D01*
Y791290D01*
X620690D01*
Y807370D01*
X604610D01*
Y803385D01*
X535109D01*
X530747Y807747D01*
X529487Y808589D01*
X528000Y808885D01*
X480743D01*
X480355Y809273D01*
X478503Y810040D01*
D02*
G37*
G36*
X478770Y763929D02*
Y760270D01*
X482429D01*
X481773Y761855D01*
X480355Y763273D01*
X478770Y763929D01*
D02*
G37*
G36*
X476230D02*
X474645Y763273D01*
X473227Y761855D01*
X472571Y760270D01*
X476230D01*
Y763929D01*
D02*
G37*
G36*
X482429Y757730D02*
X478770D01*
Y754071D01*
X480355Y754727D01*
X481773Y756145D01*
X482429Y757730D01*
D02*
G37*
G36*
X476230D02*
X472571D01*
X473227Y756145D01*
X474645Y754727D01*
X476230Y754071D01*
Y757730D01*
D02*
G37*
G36*
X894538Y694465D02*
X891242D01*
X888059Y693612D01*
X885206Y691964D01*
X882876Y689634D01*
X881228Y686781D01*
X880375Y683598D01*
Y680302D01*
X881228Y677119D01*
X882876Y674266D01*
X885206Y671936D01*
X888059Y670288D01*
X891242Y669435D01*
X894538D01*
X897721Y670288D01*
X900574Y671936D01*
X902905Y674266D01*
X904552Y677119D01*
X905405Y680302D01*
Y683598D01*
X904552Y686781D01*
X902905Y689634D01*
X900574Y691964D01*
X897721Y693612D01*
X894538Y694465D01*
D02*
G37*
G36*
X852628Y677465D02*
X849332D01*
X846149Y676612D01*
X843296Y674965D01*
X840965Y672634D01*
X839318Y669781D01*
X838465Y666598D01*
Y663302D01*
X839318Y660119D01*
X840965Y657266D01*
X843296Y654936D01*
X846149Y653288D01*
X849332Y652435D01*
X852628D01*
X855811Y653288D01*
X858664Y654936D01*
X860994Y657266D01*
X862642Y660119D01*
X863495Y663302D01*
Y666598D01*
X862642Y669781D01*
X860994Y672634D01*
X858664Y674965D01*
X855811Y676612D01*
X852628Y677465D01*
D02*
G37*
G36*
X951085Y655959D02*
X935005D01*
Y639879D01*
X951085D01*
Y655959D01*
D02*
G37*
G36*
X603493Y677370D02*
X601488D01*
X599635Y676603D01*
X598217Y675185D01*
X597450Y673333D01*
Y671328D01*
X598217Y669475D01*
X599635Y668057D01*
X601488Y667290D01*
X601703D01*
X626660Y642334D01*
Y641452D01*
X627427Y639599D01*
X628845Y638182D01*
X630698Y637414D01*
X632702D01*
X634555Y638182D01*
X635973Y639599D01*
X636740Y641452D01*
Y643457D01*
X635973Y645309D01*
X634555Y646727D01*
X632702Y647494D01*
X632487D01*
X607530Y672451D01*
Y673333D01*
X606763Y675185D01*
X605345Y676603D01*
X603493Y677370D01*
D02*
G37*
G36*
X894538Y660465D02*
X891242D01*
X888059Y659612D01*
X885206Y657964D01*
X882876Y655634D01*
X881228Y652781D01*
X880375Y649598D01*
Y646302D01*
X881228Y643119D01*
X882876Y640266D01*
X885206Y637936D01*
X888059Y636288D01*
X891242Y635435D01*
X894538D01*
X897721Y636288D01*
X900574Y637936D01*
X902905Y640266D01*
X904552Y643119D01*
X905405Y646302D01*
Y649598D01*
X904552Y652781D01*
X902905Y655634D01*
X900574Y657964D01*
X897721Y659612D01*
X894538Y660465D01*
D02*
G37*
G36*
X805427Y665440D02*
X801973D01*
X798584Y664766D01*
X795392Y663444D01*
X792519Y661524D01*
X790076Y659081D01*
X788156Y656208D01*
X786834Y653016D01*
X786160Y649628D01*
Y646172D01*
X786834Y642784D01*
X788156Y639592D01*
X790076Y636719D01*
X792519Y634276D01*
X795392Y632356D01*
X798584Y631034D01*
X801973Y630360D01*
X805427D01*
X808816Y631034D01*
X812008Y632356D01*
X814881Y634276D01*
X817324Y636719D01*
X819244Y639592D01*
X820566Y642784D01*
X821240Y646172D01*
Y649628D01*
X820566Y653016D01*
X819244Y656208D01*
X817324Y659081D01*
X814881Y661524D01*
X812008Y663444D01*
X808816Y664766D01*
X805427Y665440D01*
D02*
G37*
G36*
X944103Y635959D02*
X941986D01*
X939941Y635411D01*
X938108Y634353D01*
X936611Y632856D01*
X935553Y631022D01*
X935005Y628978D01*
Y626861D01*
X935553Y624816D01*
X936611Y622982D01*
X938108Y621485D01*
X939941Y620427D01*
X941986Y619879D01*
X944103D01*
X946148Y620427D01*
X947981Y621485D01*
X949478Y622982D01*
X950537Y624816D01*
X951085Y626861D01*
Y628978D01*
X950537Y631022D01*
X949478Y632856D01*
X947981Y634353D01*
X946148Y635411D01*
X944103Y635959D01*
D02*
G37*
G36*
X852628Y643465D02*
X849332D01*
X846149Y642612D01*
X843296Y640965D01*
X840965Y638634D01*
X839318Y635781D01*
X838465Y632598D01*
Y629302D01*
X839318Y626119D01*
X840965Y623266D01*
X843296Y620936D01*
X846149Y619288D01*
X849332Y618435D01*
X852628D01*
X855811Y619288D01*
X858664Y620936D01*
X860994Y623266D01*
X862642Y626119D01*
X863495Y629302D01*
Y632598D01*
X862642Y635781D01*
X860994Y638634D01*
X858664Y640965D01*
X855811Y642612D01*
X852628Y643465D01*
D02*
G37*
G36*
X637002Y614540D02*
X634997D01*
X633145Y613773D01*
X632750Y613378D01*
X632355Y613773D01*
X630503Y614540D01*
X628498D01*
X626645Y613773D01*
X626500Y613628D01*
X626355Y613773D01*
X624502Y614540D01*
X622497D01*
X620645Y613773D01*
X620500Y613628D01*
X620355Y613773D01*
X618503Y614540D01*
X616497D01*
X614645Y613773D01*
X614500Y613628D01*
X614355Y613773D01*
X612503Y614540D01*
X610498D01*
X608645Y613773D01*
X608500Y613628D01*
X608355Y613773D01*
X606502Y614540D01*
X604497D01*
X602645Y613773D01*
X602250Y613378D01*
X601855Y613773D01*
X600003Y614540D01*
X597998D01*
X596145Y613773D01*
X594727Y612355D01*
X593960Y610503D01*
Y608498D01*
X594727Y606645D01*
X596145Y605227D01*
X596845Y604937D01*
Y603563D01*
X596145Y603273D01*
X594727Y601855D01*
X593960Y600003D01*
Y597998D01*
X594727Y596145D01*
X596145Y594727D01*
X597998Y593960D01*
X600003D01*
X601855Y594727D01*
X602250Y595122D01*
X602645Y594727D01*
X604497Y593960D01*
X606502D01*
X608355Y594727D01*
X608500Y594872D01*
X608645Y594727D01*
X610498Y593960D01*
X612503D01*
X614355Y594727D01*
X614500Y594872D01*
X614645Y594727D01*
X616497Y593960D01*
X618503D01*
X620355Y594727D01*
X620500Y594872D01*
X620645Y594727D01*
X622497Y593960D01*
X624502D01*
X626355Y594727D01*
X626500Y594872D01*
X626645Y594727D01*
X628498Y593960D01*
X630503D01*
X632355Y594727D01*
X632750Y595122D01*
X633145Y594727D01*
X634997Y593960D01*
X637002D01*
X638855Y594727D01*
X640273Y596145D01*
X641040Y597998D01*
Y600003D01*
X640273Y601855D01*
X638855Y603273D01*
X638155Y603563D01*
Y604937D01*
X638855Y605227D01*
X640273Y606645D01*
X641040Y608498D01*
Y610503D01*
X640273Y612355D01*
X638855Y613773D01*
X637002Y614540D01*
D02*
G37*
G36*
X905405Y626465D02*
X880375D01*
Y601435D01*
X905405D01*
Y626465D01*
D02*
G37*
G36*
X355132Y617030D02*
X352488D01*
X349935Y616346D01*
X347645Y615024D01*
X345776Y613155D01*
X344454Y610865D01*
X343770Y608312D01*
Y605668D01*
X344454Y603115D01*
X345776Y600825D01*
X347645Y598956D01*
X349935Y597634D01*
X352488Y596950D01*
X355132D01*
X357685Y597634D01*
X359975Y598956D01*
X361844Y600825D01*
X363166Y603115D01*
X363850Y605668D01*
Y608312D01*
X363166Y610865D01*
X361844Y613155D01*
X359975Y615024D01*
X357685Y616346D01*
X355132Y617030D01*
D02*
G37*
G36*
X288850D02*
X268770D01*
Y596950D01*
X288850D01*
Y617030D01*
D02*
G37*
G36*
X163120D02*
X143040D01*
Y596950D01*
X163120D01*
Y617030D01*
D02*
G37*
G36*
X79402D02*
X76758D01*
X74205Y616346D01*
X71915Y615024D01*
X70046Y613155D01*
X68724Y610865D01*
X68040Y608312D01*
Y605668D01*
X68724Y603115D01*
X70046Y600825D01*
X71915Y598956D01*
X74205Y597634D01*
X76758Y596950D01*
X79402D01*
X81955Y597634D01*
X84245Y598956D01*
X86114Y600825D01*
X87436Y603115D01*
X88120Y605668D01*
Y608312D01*
X87436Y610865D01*
X86114Y613155D01*
X84245Y615024D01*
X81955Y616346D01*
X79402Y617030D01*
D02*
G37*
G36*
X705780Y611790D02*
X689700D01*
Y595710D01*
X705780D01*
Y611790D01*
D02*
G37*
G36*
X796770Y489900D02*
X775690D01*
Y468820D01*
X796770D01*
Y489900D01*
D02*
G37*
G36*
X723799Y611790D02*
X721682D01*
X719637Y611242D01*
X717803Y610184D01*
X716306Y608687D01*
X715248Y606853D01*
X714700Y604809D01*
Y602692D01*
X715135Y601068D01*
Y490260D01*
X715394Y488292D01*
X716154Y486457D01*
X717362Y484882D01*
X753662Y448582D01*
X755238Y447374D01*
X755997Y447059D01*
X757072Y446614D01*
X759040Y446355D01*
X778929D01*
X779758Y445526D01*
X782162Y444138D01*
X784842Y443420D01*
X787618D01*
X790298Y444138D01*
X792702Y445526D01*
X794664Y447488D01*
X796052Y449892D01*
X796770Y452572D01*
Y455348D01*
X796052Y458028D01*
X794664Y460432D01*
X792702Y462394D01*
X790298Y463782D01*
X787618Y464500D01*
X784842D01*
X782162Y463782D01*
X779758Y462394D01*
X778929Y461565D01*
X762190D01*
X730345Y493410D01*
Y601068D01*
X730780Y602692D01*
Y604809D01*
X730232Y606853D01*
X729174Y608687D01*
X727677Y610184D01*
X725843Y611242D01*
X723799Y611790D01*
D02*
G37*
G36*
X737930Y869620D02*
X721850D01*
Y853540D01*
X726005D01*
Y657610D01*
X726301Y656124D01*
X727143Y654863D01*
X865115Y516891D01*
Y409243D01*
X864727Y408855D01*
X863960Y407002D01*
Y404997D01*
X864727Y403145D01*
X866145Y401727D01*
X867998Y400960D01*
X870003D01*
X871855Y401727D01*
X873273Y403145D01*
X874040Y404997D01*
Y407002D01*
X873273Y408855D01*
X872885Y409243D01*
Y518500D01*
X872589Y519987D01*
X871747Y521247D01*
X733775Y659219D01*
Y853540D01*
X737930D01*
Y869620D01*
D02*
G37*
G36*
X708770Y402929D02*
Y399270D01*
X712429D01*
X711773Y400855D01*
X710355Y402273D01*
X708770Y402929D01*
D02*
G37*
G36*
X706230D02*
X704645Y402273D01*
X703227Y400855D01*
X702571Y399270D01*
X706230D01*
Y402929D01*
D02*
G37*
G36*
X712429Y396730D02*
X708770D01*
Y393071D01*
X710355Y393727D01*
X711773Y395145D01*
X712429Y396730D01*
D02*
G37*
G36*
X706230D02*
X702571D01*
X703227Y395145D01*
X704645Y393727D01*
X706230Y393071D01*
Y396730D01*
D02*
G37*
G36*
X767770Y377429D02*
Y373770D01*
X771429D01*
X770773Y375355D01*
X769355Y376773D01*
X767770Y377429D01*
D02*
G37*
G36*
X765230D02*
X763645Y376773D01*
X762227Y375355D01*
X761571Y373770D01*
X765230D01*
Y377429D01*
D02*
G37*
G36*
X33221Y390690D02*
X30380D01*
X27635Y389955D01*
X25175Y388534D01*
X23166Y386525D01*
X21745Y384065D01*
X21010Y381320D01*
Y378479D01*
X21745Y375735D01*
X23166Y373275D01*
X25175Y371266D01*
X27635Y369845D01*
X30380Y369110D01*
X33221D01*
X35965Y369845D01*
X38425Y371266D01*
X40434Y373275D01*
X41855Y375735D01*
X42590Y378479D01*
Y381320D01*
X41855Y384065D01*
X40434Y386525D01*
X38425Y388534D01*
X35965Y389955D01*
X33221Y390690D01*
D02*
G37*
G36*
X771429Y371230D02*
X767770D01*
Y367571D01*
X769355Y368227D01*
X770773Y369645D01*
X771429Y371230D01*
D02*
G37*
G36*
X765230D02*
X761571D01*
X762227Y369645D01*
X763645Y368227D01*
X765230Y367571D01*
Y371230D01*
D02*
G37*
G36*
X541003Y368040D02*
X538997D01*
X537145Y367273D01*
X536757Y366885D01*
X515500D01*
X514013Y366589D01*
X512753Y365747D01*
X399546Y252540D01*
X398997D01*
X397145Y251773D01*
X395727Y250355D01*
X394960Y248503D01*
Y246497D01*
X395727Y244645D01*
X397145Y243227D01*
X398997Y242460D01*
X401003D01*
X402855Y243227D01*
X404273Y244645D01*
X405040Y246497D01*
Y247046D01*
X517109Y359115D01*
X536757D01*
X537145Y358727D01*
X538997Y357960D01*
X541003D01*
X542855Y358727D01*
X544273Y360145D01*
X545040Y361997D01*
Y364002D01*
X544273Y365855D01*
X542855Y367273D01*
X541003Y368040D01*
D02*
G37*
G36*
X33221Y365290D02*
X30380D01*
X27635Y364555D01*
X25175Y363134D01*
X23166Y361125D01*
X21745Y358665D01*
X21010Y355920D01*
Y353079D01*
X21745Y350335D01*
X23166Y347875D01*
X25175Y345866D01*
X27635Y344445D01*
X30380Y343710D01*
X33221D01*
X35965Y344445D01*
X38425Y345866D01*
X40434Y347875D01*
X41855Y350335D01*
X42590Y353079D01*
Y355920D01*
X41855Y358665D01*
X40434Y361125D01*
X38425Y363134D01*
X35965Y364555D01*
X33221Y365290D01*
D02*
G37*
G36*
Y339890D02*
X33070D01*
Y330370D01*
X42590D01*
Y330521D01*
X41855Y333265D01*
X40434Y335725D01*
X38425Y337734D01*
X35965Y339155D01*
X33221Y339890D01*
D02*
G37*
G36*
X30530D02*
X30380D01*
X27635Y339155D01*
X25175Y337734D01*
X23166Y335725D01*
X21745Y333265D01*
X21010Y330521D01*
Y330370D01*
X30530D01*
Y339890D01*
D02*
G37*
G36*
X646503Y324040D02*
X644498D01*
X642645Y323273D01*
X642257Y322885D01*
X518243D01*
X517855Y323273D01*
X516003Y324040D01*
X513997D01*
X512145Y323273D01*
X510727Y321855D01*
X509960Y320003D01*
Y317997D01*
X510727Y316145D01*
X512145Y314727D01*
X513997Y313960D01*
X516003D01*
X517855Y314727D01*
X518243Y315115D01*
X642257D01*
X642645Y314727D01*
X644498Y313960D01*
X646503D01*
X648355Y314727D01*
X649773Y316145D01*
X650540Y317997D01*
Y320003D01*
X649773Y321855D01*
X648355Y323273D01*
X646503Y324040D01*
D02*
G37*
G36*
X42590Y327830D02*
X33070D01*
Y318310D01*
X33221D01*
X35965Y319045D01*
X38425Y320466D01*
X40434Y322475D01*
X41855Y324935D01*
X42590Y327679D01*
Y327830D01*
D02*
G37*
G36*
X30530D02*
X21010D01*
Y327679D01*
X21745Y324935D01*
X23166Y322475D01*
X25175Y320466D01*
X27635Y319045D01*
X30380Y318310D01*
X30530D01*
Y327830D01*
D02*
G37*
G36*
X787500Y355090D02*
X752500D01*
X751509Y354893D01*
X750669Y354331D01*
X750107Y353491D01*
X749910Y352500D01*
Y290000D01*
X750107Y289009D01*
X750669Y288169D01*
X751509Y287607D01*
X752500Y287410D01*
X787500D01*
X788491Y287607D01*
X789331Y288169D01*
X789893Y289009D01*
X790090Y290000D01*
Y352500D01*
X789893Y353491D01*
X789331Y354331D01*
X788491Y354893D01*
X787500Y355090D01*
D02*
G37*
G36*
X819270Y282929D02*
Y279270D01*
X822929D01*
X822273Y280855D01*
X820855Y282273D01*
X819270Y282929D01*
D02*
G37*
G36*
X816730D02*
X815145Y282273D01*
X813727Y280855D01*
X813071Y279270D01*
X816730D01*
Y282929D01*
D02*
G37*
G36*
X642770Y282429D02*
Y278770D01*
X646429D01*
X645773Y280355D01*
X644355Y281773D01*
X642770Y282429D01*
D02*
G37*
G36*
X640230D02*
X638645Y281773D01*
X637227Y280355D01*
X636571Y278770D01*
X640230D01*
Y282429D01*
D02*
G37*
G36*
X822929Y276730D02*
X819270D01*
Y273071D01*
X820855Y273727D01*
X822273Y275145D01*
X822929Y276730D01*
D02*
G37*
G36*
X816730D02*
X813071D01*
X813727Y275145D01*
X815145Y273727D01*
X816730Y273071D01*
Y276730D01*
D02*
G37*
G36*
X646429Y276230D02*
X642770D01*
Y272571D01*
X644355Y273227D01*
X645773Y274645D01*
X646429Y276230D01*
D02*
G37*
G36*
X640230D02*
X636571D01*
X637227Y274645D01*
X638645Y273227D01*
X640230Y272571D01*
Y276230D01*
D02*
G37*
G36*
X58621Y390690D02*
X55780D01*
X53035Y389955D01*
X50575Y388534D01*
X48566Y386525D01*
X47145Y384065D01*
X46410Y381320D01*
Y378479D01*
X47145Y375735D01*
X48566Y373275D01*
X50575Y371266D01*
X53035Y369845D01*
X55780Y369110D01*
X58621D01*
X61365Y369845D01*
X61616Y369990D01*
X160853Y270753D01*
X162113Y269911D01*
X163600Y269615D01*
X171945D01*
X172457Y268750D01*
X171945Y267885D01*
X149309D01*
X67110Y350084D01*
X67255Y350335D01*
X67990Y353079D01*
Y355920D01*
X67255Y358665D01*
X65834Y361125D01*
X63825Y363134D01*
X61365Y364555D01*
X58621Y365290D01*
X55780D01*
X53035Y364555D01*
X50575Y363134D01*
X48566Y361125D01*
X47145Y358665D01*
X46410Y355920D01*
Y353079D01*
X47145Y350335D01*
X48566Y347875D01*
X50575Y345866D01*
X53035Y344445D01*
X55780Y343710D01*
X58621D01*
X61365Y344445D01*
X61616Y344590D01*
X65143Y341063D01*
X64657Y339890D01*
X46410D01*
Y318310D01*
X67990D01*
Y336557D01*
X69163Y337043D01*
X144953Y261253D01*
X146213Y260411D01*
X147700Y260115D01*
X172757D01*
X173145Y259727D01*
X174998Y258960D01*
X177003D01*
X178855Y259727D01*
X180273Y261145D01*
X181040Y262997D01*
Y265002D01*
X180273Y266855D01*
X179152Y267976D01*
X178968Y268750D01*
X179152Y269524D01*
X180273Y270645D01*
X181040Y272498D01*
Y274503D01*
X180273Y276355D01*
X178855Y277773D01*
X177003Y278540D01*
X174998D01*
X173145Y277773D01*
X172757Y277385D01*
X165209D01*
X67110Y375484D01*
X67255Y375735D01*
X67990Y378479D01*
Y381320D01*
X67255Y384065D01*
X65834Y386525D01*
X63825Y388534D01*
X61365Y389955D01*
X58621Y390690D01*
D02*
G37*
G36*
X286500Y248009D02*
Y244350D01*
X290159D01*
X289503Y245935D01*
X288085Y247353D01*
X286500Y248009D01*
D02*
G37*
G36*
X283960D02*
X282375Y247353D01*
X280957Y245935D01*
X280301Y244350D01*
X283960D01*
Y248009D01*
D02*
G37*
G36*
X667503Y331540D02*
X665498D01*
X663645Y330773D01*
X662227Y329355D01*
X661460Y327503D01*
Y325498D01*
X662227Y323645D01*
X663645Y322227D01*
X665498Y321460D01*
X666046D01*
X668925Y318581D01*
Y241094D01*
X667869Y240388D01*
X667770Y240429D01*
Y235500D01*
Y230571D01*
X667869Y230612D01*
X668925Y229906D01*
Y162919D01*
X640046Y134040D01*
X634954D01*
X543885Y225109D01*
Y272257D01*
X544273Y272645D01*
X545040Y274498D01*
Y276502D01*
X544273Y278355D01*
X542855Y279773D01*
X541003Y280540D01*
X538997D01*
X537145Y279773D01*
X535727Y278355D01*
X534960Y276502D01*
Y274498D01*
X535727Y272645D01*
X536115Y272257D01*
Y223500D01*
X536411Y222013D01*
X537253Y220753D01*
X629460Y128546D01*
X629460Y117960D01*
X628221Y117885D01*
X507109D01*
X298540Y326454D01*
Y327002D01*
X297773Y328855D01*
X296355Y330273D01*
X294503Y331040D01*
X292498D01*
X290645Y330273D01*
X289227Y328855D01*
X288460Y327002D01*
Y324997D01*
X289227Y323145D01*
X290348Y322024D01*
X290532Y321250D01*
X290348Y320476D01*
X289227Y319355D01*
X288460Y317502D01*
Y315497D01*
X289227Y313645D01*
X290348Y312524D01*
X290532Y311750D01*
X290348Y310976D01*
X289227Y309855D01*
X288460Y308002D01*
Y305998D01*
X289227Y304145D01*
X290348Y303024D01*
X290532Y302250D01*
X290348Y301476D01*
X289227Y300355D01*
X288460Y298503D01*
Y296497D01*
X289227Y294645D01*
X290645Y293227D01*
X292498Y292460D01*
X293046D01*
X494753Y90753D01*
X496013Y89911D01*
X497500Y89615D01*
X558891D01*
X570015Y78491D01*
Y36871D01*
X569832Y36822D01*
X567428Y35434D01*
X565466Y33472D01*
X564078Y31068D01*
X563360Y28388D01*
Y25612D01*
X564078Y22932D01*
X565466Y20528D01*
X567428Y18566D01*
X569832Y17178D01*
X572512Y16460D01*
X575288D01*
X577968Y17178D01*
X580372Y18566D01*
X582334Y20528D01*
X583722Y22932D01*
X584440Y25612D01*
Y28388D01*
X583722Y31068D01*
X582334Y33472D01*
X580372Y35434D01*
X577968Y36822D01*
X577785Y36871D01*
Y80100D01*
X577489Y81587D01*
X576647Y82847D01*
X564148Y95345D01*
X564674Y96615D01*
X578891D01*
X595415Y80091D01*
Y36871D01*
X595232Y36822D01*
X592828Y35434D01*
X590866Y33472D01*
X589478Y31068D01*
X588760Y28388D01*
Y25612D01*
X589478Y22932D01*
X590866Y20528D01*
X592828Y18566D01*
X595232Y17178D01*
X597912Y16460D01*
X600688D01*
X603368Y17178D01*
X605772Y18566D01*
X607734Y20528D01*
X609122Y22932D01*
X609840Y25612D01*
Y28388D01*
X609122Y31068D01*
X607734Y33472D01*
X605772Y35434D01*
X603368Y36822D01*
X603185Y36871D01*
Y81700D01*
X602889Y83187D01*
X602047Y84447D01*
X584148Y102345D01*
X584674Y103615D01*
X659891D01*
X683515Y79991D01*
Y36871D01*
X683332Y36822D01*
X680928Y35434D01*
X678966Y33472D01*
X677578Y31068D01*
X676860Y28388D01*
Y25612D01*
X677578Y22932D01*
X678966Y20528D01*
X680928Y18566D01*
X683332Y17178D01*
X686012Y16460D01*
X688788D01*
X691468Y17178D01*
X693872Y18566D01*
X695834Y20528D01*
X697222Y22932D01*
X697940Y25612D01*
Y28388D01*
X697222Y31068D01*
X695834Y33472D01*
X693872Y35434D01*
X691468Y36822D01*
X691285Y36871D01*
Y81600D01*
X690989Y83087D01*
X690147Y84347D01*
X665552Y108942D01*
X666038Y110115D01*
X679391D01*
X708915Y80591D01*
Y36871D01*
X708732Y36822D01*
X706328Y35434D01*
X704366Y33472D01*
X702978Y31068D01*
X702260Y28388D01*
Y25612D01*
X702978Y22932D01*
X704366Y20528D01*
X706328Y18566D01*
X708732Y17178D01*
X711412Y16460D01*
X714188D01*
X716868Y17178D01*
X719272Y18566D01*
X721234Y20528D01*
X722622Y22932D01*
X723340Y25612D01*
Y28388D01*
X722622Y31068D01*
X721234Y33472D01*
X719272Y35434D01*
X716868Y36822D01*
X716685Y36871D01*
Y82200D01*
X716389Y83687D01*
X715547Y84947D01*
X683747Y116747D01*
X682487Y117589D01*
X681000Y117885D01*
X646779D01*
X645540Y117960D01*
X645540Y119155D01*
Y128546D01*
X675557Y158563D01*
X676399Y159823D01*
X676695Y161310D01*
Y320190D01*
X676399Y321677D01*
X675557Y322937D01*
X671540Y326954D01*
Y327503D01*
X670773Y329355D01*
X669355Y330773D01*
X667503Y331540D01*
D02*
G37*
G36*
X290159Y241810D02*
X286500D01*
Y238151D01*
X288085Y238807D01*
X289503Y240225D01*
X290159Y241810D01*
D02*
G37*
G36*
X283960D02*
X280301D01*
X280957Y240225D01*
X282375Y238807D01*
X283960Y238151D01*
Y241810D01*
D02*
G37*
G36*
X665230Y240429D02*
X663645Y239773D01*
X662227Y238355D01*
X661571Y236770D01*
X665230D01*
Y240429D01*
D02*
G37*
G36*
Y234230D02*
X661571D01*
X662227Y232645D01*
X663645Y231227D01*
X665230Y230571D01*
Y234230D01*
D02*
G37*
G36*
X518503Y270040D02*
X516497D01*
X514645Y269273D01*
X513227Y267855D01*
X512460Y266003D01*
Y263997D01*
X513227Y262145D01*
X513615Y261757D01*
Y238743D01*
X513227Y238355D01*
X512460Y236502D01*
Y234498D01*
X513227Y232645D01*
X514645Y231227D01*
X516497Y230460D01*
X518503D01*
X520355Y231227D01*
X521773Y232645D01*
X522540Y234498D01*
Y236502D01*
X521773Y238355D01*
X521385Y238743D01*
Y261757D01*
X521773Y262145D01*
X522540Y263997D01*
Y266003D01*
X521773Y267855D01*
X520355Y269273D01*
X518503Y270040D01*
D02*
G37*
G36*
X530503D02*
X528498D01*
X526645Y269273D01*
X525227Y267855D01*
X524460Y266003D01*
Y263997D01*
X525227Y262145D01*
X525615Y261757D01*
Y232743D01*
X525227Y232355D01*
X524460Y230502D01*
Y228498D01*
X525227Y226645D01*
X526645Y225227D01*
X528498Y224460D01*
X530503D01*
X532355Y225227D01*
X533773Y226645D01*
X534540Y228498D01*
Y230502D01*
X533773Y232355D01*
X533385Y232743D01*
Y261757D01*
X533773Y262145D01*
X534540Y263997D01*
Y266003D01*
X533773Y267855D01*
X532355Y269273D01*
X530503Y270040D01*
D02*
G37*
G36*
X235770Y227929D02*
Y224270D01*
X239429D01*
X238773Y225855D01*
X237355Y227273D01*
X235770Y227929D01*
D02*
G37*
G36*
X233230D02*
X231645Y227273D01*
X230227Y225855D01*
X229571Y224270D01*
X233230D01*
Y227929D01*
D02*
G37*
G36*
X239429Y221730D02*
X235770D01*
Y218071D01*
X237355Y218727D01*
X238773Y220145D01*
X239429Y221730D01*
D02*
G37*
G36*
X233230D02*
X229571D01*
X230227Y220145D01*
X231645Y218727D01*
X233230Y218071D01*
Y221730D01*
D02*
G37*
G36*
X243002Y261540D02*
X240998D01*
X239145Y260773D01*
X237727Y259355D01*
X236960Y257502D01*
Y255497D01*
X237727Y253645D01*
X239145Y252227D01*
X240998Y251460D01*
X241546D01*
X280713Y212293D01*
X281973Y211451D01*
X283460Y211155D01*
X332803D01*
X333191Y210767D01*
X335044Y210000D01*
X337049D01*
X338901Y210767D01*
X340319Y212185D01*
X341086Y214037D01*
Y216042D01*
X340319Y217895D01*
X338901Y219313D01*
X337049Y220080D01*
X335044D01*
X333191Y219313D01*
X332803Y218925D01*
X285069D01*
X247040Y256954D01*
Y257502D01*
X246273Y259355D01*
X244855Y260773D01*
X243002Y261540D01*
D02*
G37*
G36*
X231003Y250040D02*
X228997D01*
X227145Y249273D01*
X225727Y247855D01*
X224960Y246003D01*
Y243997D01*
X225727Y242145D01*
X227145Y240727D01*
X228997Y239960D01*
X229546D01*
X268753Y200753D01*
X270013Y199911D01*
X271500Y199615D01*
X342757D01*
X343145Y199227D01*
X344997Y198460D01*
X347002D01*
X348855Y199227D01*
X350273Y200645D01*
X351040Y202498D01*
Y204503D01*
X350273Y206355D01*
X348855Y207773D01*
X347002Y208540D01*
X344997D01*
X343145Y207773D01*
X342757Y207385D01*
X273109D01*
X235040Y245454D01*
Y246003D01*
X234273Y247855D01*
X232855Y249273D01*
X231003Y250040D01*
D02*
G37*
G36*
X463003Y257040D02*
X460998D01*
X459145Y256273D01*
X457727Y254855D01*
X456960Y253002D01*
Y250998D01*
X457727Y249145D01*
X458115Y248757D01*
Y199243D01*
X457727Y198855D01*
X456960Y197003D01*
Y194998D01*
X457727Y193145D01*
X459145Y191727D01*
X460998Y190960D01*
X463003D01*
X464855Y191727D01*
X466273Y193145D01*
X467040Y194998D01*
Y197003D01*
X466273Y198855D01*
X465885Y199243D01*
Y248757D01*
X466273Y249145D01*
X467040Y250998D01*
Y253002D01*
X466273Y254855D01*
X464855Y256273D01*
X463003Y257040D01*
D02*
G37*
G36*
X549270Y142429D02*
Y138770D01*
X552929D01*
X552273Y140355D01*
X550855Y141773D01*
X549270Y142429D01*
D02*
G37*
G36*
X546730D02*
X545145Y141773D01*
X543727Y140355D01*
X543071Y138770D01*
X546730D01*
Y142429D01*
D02*
G37*
G36*
X638559Y154040D02*
X636441D01*
X634397Y153492D01*
X632563Y152434D01*
X631066Y150937D01*
X630008Y149103D01*
X629460Y147058D01*
Y144942D01*
X630008Y142897D01*
X631066Y141063D01*
X632563Y139566D01*
X634397Y138508D01*
X636441Y137960D01*
X638559D01*
X640603Y138508D01*
X642437Y139566D01*
X643934Y141063D01*
X644992Y142897D01*
X645540Y144942D01*
Y147058D01*
X644992Y149103D01*
X643934Y150937D01*
X642437Y152434D01*
X640603Y153492D01*
X638559Y154040D01*
D02*
G37*
G36*
X552929Y136230D02*
X549270D01*
Y132571D01*
X550855Y133227D01*
X552273Y134645D01*
X552929Y136230D01*
D02*
G37*
G36*
X546730D02*
X543071D01*
X543727Y134645D01*
X545145Y133227D01*
X546730Y132571D01*
Y136230D01*
D02*
G37*
G36*
X399370Y101501D02*
Y94270D01*
X406601D01*
X406058Y96296D01*
X404934Y98244D01*
X403344Y99834D01*
X401396Y100958D01*
X399370Y101501D01*
D02*
G37*
G36*
X396830D02*
X394804Y100958D01*
X392856Y99834D01*
X391266Y98244D01*
X390142Y96296D01*
X389599Y94270D01*
X396830D01*
Y101501D01*
D02*
G37*
G36*
X406601Y91730D02*
X399370D01*
Y84499D01*
X401396Y85042D01*
X403344Y86166D01*
X404934Y87756D01*
X406058Y89704D01*
X406601Y91730D01*
D02*
G37*
G36*
X396830D02*
X389599D01*
X390142Y89704D01*
X391266Y87756D01*
X392856Y86166D01*
X394804Y85042D01*
X396830Y84499D01*
Y91730D01*
D02*
G37*
G36*
X450024Y101540D02*
X447776D01*
X445604Y100958D01*
X443656Y99834D01*
X442066Y98244D01*
X440942Y96296D01*
X440360Y94124D01*
Y91876D01*
X440942Y89704D01*
X442066Y87756D01*
X443656Y86166D01*
X445604Y85042D01*
X447776Y84460D01*
X450024D01*
X452196Y85042D01*
X454144Y86166D01*
X455734Y87756D01*
X456858Y89704D01*
X457440Y91876D01*
Y94124D01*
X456858Y96296D01*
X455734Y98244D01*
X454144Y99834D01*
X452196Y100958D01*
X450024Y101540D01*
D02*
G37*
G36*
X671540Y83540D02*
X663270D01*
Y76270D01*
X671540D01*
Y83540D01*
D02*
G37*
G36*
X660730D02*
X652460D01*
Y76270D01*
X660730D01*
Y83540D01*
D02*
G37*
G36*
X558040D02*
X549770D01*
Y76270D01*
X558040D01*
Y83540D01*
D02*
G37*
G36*
X547230D02*
X538960D01*
Y76270D01*
X547230D01*
Y83540D01*
D02*
G37*
G36*
X854778Y64150D02*
X852002D01*
X849322Y63432D01*
X846918Y62044D01*
X844956Y60082D01*
X843568Y57678D01*
X842850Y54998D01*
Y52222D01*
X843568Y49542D01*
X844956Y47138D01*
X846918Y45176D01*
X849322Y43788D01*
X852002Y43070D01*
X854778D01*
X857458Y43788D01*
X859862Y45176D01*
X861824Y47138D01*
X863212Y49542D01*
X863930Y52222D01*
Y54998D01*
X863212Y57678D01*
X861824Y60082D01*
X859862Y62044D01*
X857458Y63432D01*
X854778Y64150D01*
D02*
G37*
G36*
X813930D02*
X792850D01*
Y43070D01*
X813930D01*
Y64150D01*
D02*
G37*
G36*
X360488Y37540D02*
X360370D01*
Y28270D01*
X369640D01*
Y28388D01*
X368922Y31068D01*
X367534Y33472D01*
X365572Y35434D01*
X363168Y36822D01*
X360488Y37540D01*
D02*
G37*
G36*
X357830D02*
X357712D01*
X355032Y36822D01*
X352628Y35434D01*
X350666Y33472D01*
X349278Y31068D01*
X348560Y28388D01*
Y28270D01*
X357830D01*
Y37540D01*
D02*
G37*
G36*
X739588D02*
X736812D01*
X734132Y36822D01*
X731728Y35434D01*
X729766Y33472D01*
X728378Y31068D01*
X727660Y28388D01*
Y25612D01*
X728378Y22932D01*
X729766Y20528D01*
X731728Y18566D01*
X734132Y17178D01*
X736812Y16460D01*
X739588D01*
X742268Y17178D01*
X744672Y18566D01*
X746634Y20528D01*
X748022Y22932D01*
X748740Y25612D01*
Y28388D01*
X748022Y31068D01*
X746634Y33472D01*
X744672Y35434D01*
X742268Y36822D01*
X739588Y37540D01*
D02*
G37*
G36*
X671540Y73730D02*
X652460D01*
Y66810D01*
X652460Y66460D01*
Y65540D01*
X652460Y65190D01*
Y48460D01*
X658115D01*
Y37540D01*
X651460D01*
Y16460D01*
X672540D01*
Y37540D01*
X665885D01*
Y48460D01*
X671540D01*
Y65190D01*
X671540Y65540D01*
Y66460D01*
X671540Y66810D01*
Y73730D01*
D02*
G37*
G36*
X626088Y37540D02*
X623312D01*
X620632Y36822D01*
X618228Y35434D01*
X616266Y33472D01*
X614878Y31068D01*
X614160Y28388D01*
Y25612D01*
X614878Y22932D01*
X616266Y20528D01*
X618228Y18566D01*
X620632Y17178D01*
X623312Y16460D01*
X626088D01*
X628768Y17178D01*
X631172Y18566D01*
X633134Y20528D01*
X634522Y22932D01*
X635240Y25612D01*
Y28388D01*
X634522Y31068D01*
X633134Y33472D01*
X631172Y35434D01*
X628768Y36822D01*
X626088Y37540D01*
D02*
G37*
G36*
X558040Y73730D02*
X538960D01*
Y66810D01*
X538960Y66460D01*
Y65540D01*
X538960Y65190D01*
Y48460D01*
X544615D01*
Y37540D01*
X537960D01*
Y16460D01*
X559040D01*
Y37540D01*
X552385D01*
Y48460D01*
X558040D01*
Y65190D01*
X558040Y65540D01*
Y66460D01*
X558040Y66810D01*
Y73730D01*
D02*
G37*
G36*
X512888Y37540D02*
X510112D01*
X507432Y36822D01*
X505028Y35434D01*
X503066Y33472D01*
X501678Y31068D01*
X500960Y28388D01*
Y25612D01*
X501678Y22932D01*
X503066Y20528D01*
X505028Y18566D01*
X507432Y17178D01*
X510112Y16460D01*
X512888D01*
X515568Y17178D01*
X517972Y18566D01*
X519934Y20528D01*
X521322Y22932D01*
X522040Y25612D01*
Y28388D01*
X521322Y31068D01*
X519934Y33472D01*
X517972Y35434D01*
X515568Y36822D01*
X512888Y37540D01*
D02*
G37*
G36*
X487488D02*
X484712D01*
X482032Y36822D01*
X479628Y35434D01*
X477666Y33472D01*
X476278Y31068D01*
X475560Y28388D01*
Y25612D01*
X476278Y22932D01*
X477666Y20528D01*
X479628Y18566D01*
X482032Y17178D01*
X484712Y16460D01*
X487488D01*
X490168Y17178D01*
X492572Y18566D01*
X494534Y20528D01*
X495922Y22932D01*
X496640Y25612D01*
Y28388D01*
X495922Y31068D01*
X494534Y33472D01*
X492572Y35434D01*
X490168Y36822D01*
X487488Y37540D01*
D02*
G37*
G36*
X462088D02*
X459312D01*
X456632Y36822D01*
X454228Y35434D01*
X452266Y33472D01*
X450878Y31068D01*
X450160Y28388D01*
Y25612D01*
X450878Y22932D01*
X452266Y20528D01*
X454228Y18566D01*
X456632Y17178D01*
X459312Y16460D01*
X462088D01*
X464768Y17178D01*
X467172Y18566D01*
X469134Y20528D01*
X470522Y22932D01*
X471240Y25612D01*
Y28388D01*
X470522Y31068D01*
X469134Y33472D01*
X467172Y35434D01*
X464768Y36822D01*
X462088Y37540D01*
D02*
G37*
G36*
X436688D02*
X433912D01*
X431232Y36822D01*
X428828Y35434D01*
X426866Y33472D01*
X425478Y31068D01*
X424760Y28388D01*
Y25612D01*
X425478Y22932D01*
X426866Y20528D01*
X428828Y18566D01*
X431232Y17178D01*
X433912Y16460D01*
X436688D01*
X439368Y17178D01*
X441772Y18566D01*
X443734Y20528D01*
X445122Y22932D01*
X445840Y25612D01*
Y28388D01*
X445122Y31068D01*
X443734Y33472D01*
X441772Y35434D01*
X439368Y36822D01*
X436688Y37540D01*
D02*
G37*
G36*
X411288D02*
X408512D01*
X405832Y36822D01*
X403428Y35434D01*
X401466Y33472D01*
X400078Y31068D01*
X399360Y28388D01*
Y25612D01*
X400078Y22932D01*
X401466Y20528D01*
X403428Y18566D01*
X405832Y17178D01*
X408512Y16460D01*
X411288D01*
X413968Y17178D01*
X416372Y18566D01*
X418334Y20528D01*
X419722Y22932D01*
X420440Y25612D01*
Y28388D01*
X419722Y31068D01*
X418334Y33472D01*
X416372Y35434D01*
X413968Y36822D01*
X411288Y37540D01*
D02*
G37*
G36*
X424624Y101540D02*
X422376D01*
X420204Y100958D01*
X418256Y99834D01*
X416666Y98244D01*
X415542Y96296D01*
X414960Y94124D01*
Y91876D01*
X415542Y89704D01*
X416666Y87756D01*
X418256Y86166D01*
X419615Y85382D01*
Y81109D01*
X381753Y43247D01*
X380911Y41987D01*
X380615Y40500D01*
Y36871D01*
X380432Y36822D01*
X378028Y35434D01*
X376066Y33472D01*
X374678Y31068D01*
X373960Y28388D01*
Y25612D01*
X374678Y22932D01*
X376066Y20528D01*
X378028Y18566D01*
X380432Y17178D01*
X383112Y16460D01*
X385888D01*
X388568Y17178D01*
X390972Y18566D01*
X392934Y20528D01*
X394322Y22932D01*
X395040Y25612D01*
Y28388D01*
X394322Y31068D01*
X392934Y33472D01*
X390972Y35434D01*
X388568Y36822D01*
X388385Y36871D01*
Y38891D01*
X426247Y76753D01*
X427089Y78013D01*
X427385Y79500D01*
Y85382D01*
X428744Y86166D01*
X430334Y87756D01*
X431458Y89704D01*
X432040Y91876D01*
Y94124D01*
X431458Y96296D01*
X430334Y98244D01*
X428744Y99834D01*
X426796Y100958D01*
X424624Y101540D01*
D02*
G37*
G36*
X369640Y25730D02*
X360370D01*
Y16460D01*
X360488D01*
X363168Y17178D01*
X365572Y18566D01*
X367534Y20528D01*
X368922Y22932D01*
X369640Y25612D01*
Y25730D01*
D02*
G37*
G36*
X357830D02*
X348560D01*
Y25612D01*
X349278Y22932D01*
X350666Y20528D01*
X352628Y18566D01*
X355032Y17178D01*
X357712Y16460D01*
X357830D01*
Y25730D01*
D02*
G37*
G36*
X344240Y37540D02*
X323160D01*
Y16460D01*
X344240D01*
Y37540D01*
D02*
G37*
G36*
X297888D02*
X295112D01*
X292432Y36822D01*
X290028Y35434D01*
X288066Y33472D01*
X286678Y31068D01*
X285960Y28388D01*
Y25612D01*
X286678Y22932D01*
X288066Y20528D01*
X290028Y18566D01*
X292432Y17178D01*
X295112Y16460D01*
X297888D01*
X300568Y17178D01*
X302972Y18566D01*
X304934Y20528D01*
X306322Y22932D01*
X307040Y25612D01*
Y28388D01*
X306322Y31068D01*
X304934Y33472D01*
X302972Y35434D01*
X300568Y36822D01*
X297888Y37540D01*
D02*
G37*
G36*
X272488D02*
X269712D01*
X267032Y36822D01*
X264628Y35434D01*
X262666Y33472D01*
X261278Y31068D01*
X260560Y28388D01*
Y25612D01*
X261278Y22932D01*
X262666Y20528D01*
X264628Y18566D01*
X267032Y17178D01*
X269712Y16460D01*
X272488D01*
X275168Y17178D01*
X277572Y18566D01*
X279534Y20528D01*
X280922Y22932D01*
X281640Y25612D01*
Y28388D01*
X280922Y31068D01*
X279534Y33472D01*
X277572Y35434D01*
X275168Y36822D01*
X272488Y37540D01*
D02*
G37*
G36*
X247088D02*
X244312D01*
X241632Y36822D01*
X239228Y35434D01*
X237266Y33472D01*
X235878Y31068D01*
X235160Y28388D01*
Y25612D01*
X235878Y22932D01*
X237266Y20528D01*
X239228Y18566D01*
X241632Y17178D01*
X244312Y16460D01*
X247088D01*
X249768Y17178D01*
X252172Y18566D01*
X254134Y20528D01*
X255522Y22932D01*
X256240Y25612D01*
Y28388D01*
X255522Y31068D01*
X254134Y33472D01*
X252172Y35434D01*
X249768Y36822D01*
X247088Y37540D01*
D02*
G37*
G36*
X221688D02*
X218912D01*
X216232Y36822D01*
X213828Y35434D01*
X211866Y33472D01*
X210478Y31068D01*
X209760Y28388D01*
Y25612D01*
X210478Y22932D01*
X211866Y20528D01*
X213828Y18566D01*
X216232Y17178D01*
X218912Y16460D01*
X221688D01*
X224368Y17178D01*
X226772Y18566D01*
X228734Y20528D01*
X230122Y22932D01*
X230840Y25612D01*
Y28388D01*
X230122Y31068D01*
X228734Y33472D01*
X226772Y35434D01*
X224368Y36822D01*
X221688Y37540D01*
D02*
G37*
G36*
X196288D02*
X193512D01*
X190832Y36822D01*
X188428Y35434D01*
X186466Y33472D01*
X185078Y31068D01*
X184360Y28388D01*
Y25612D01*
X185078Y22932D01*
X186466Y20528D01*
X188428Y18566D01*
X190832Y17178D01*
X193512Y16460D01*
X196288D01*
X198968Y17178D01*
X201372Y18566D01*
X203334Y20528D01*
X204722Y22932D01*
X205440Y25612D01*
Y28388D01*
X204722Y31068D01*
X203334Y33472D01*
X201372Y35434D01*
X198968Y36822D01*
X196288Y37540D01*
D02*
G37*
G36*
X170888D02*
X168112D01*
X165432Y36822D01*
X163028Y35434D01*
X161066Y33472D01*
X159678Y31068D01*
X158960Y28388D01*
Y25612D01*
X159678Y22932D01*
X161066Y20528D01*
X163028Y18566D01*
X165432Y17178D01*
X168112Y16460D01*
X170888D01*
X173568Y17178D01*
X175972Y18566D01*
X177934Y20528D01*
X179322Y22932D01*
X180040Y25612D01*
Y28388D01*
X179322Y31068D01*
X177934Y33472D01*
X175972Y35434D01*
X173568Y36822D01*
X170888Y37540D01*
D02*
G37*
G36*
X145488D02*
X142712D01*
X140032Y36822D01*
X137628Y35434D01*
X135666Y33472D01*
X134278Y31068D01*
X133560Y28388D01*
Y25612D01*
X134278Y22932D01*
X135666Y20528D01*
X137628Y18566D01*
X140032Y17178D01*
X142712Y16460D01*
X145488D01*
X148168Y17178D01*
X150572Y18566D01*
X152534Y20528D01*
X153922Y22932D01*
X154640Y25612D01*
Y28388D01*
X153922Y31068D01*
X152534Y33472D01*
X150572Y35434D01*
X148168Y36822D01*
X145488Y37540D01*
D02*
G37*
G36*
X129240D02*
X108160D01*
Y16460D01*
X129240D01*
Y37540D01*
D02*
G37*
G36*
X962561Y72540D02*
X957439D01*
X952380Y71739D01*
X947509Y70156D01*
X942945Y67831D01*
X938802Y64820D01*
X935180Y61198D01*
X932169Y57055D01*
X929844Y52491D01*
X928261Y47620D01*
X927460Y42561D01*
Y37439D01*
X928261Y32380D01*
X929844Y27509D01*
X932169Y22945D01*
X935180Y18802D01*
X938802Y15180D01*
X942945Y12169D01*
X947509Y9844D01*
X952380Y8261D01*
X957439Y7460D01*
X962561D01*
X967620Y8261D01*
X972491Y9844D01*
X977055Y12169D01*
X981198Y15180D01*
X984820Y18802D01*
X987831Y22945D01*
X990156Y27509D01*
X991739Y32380D01*
X992540Y37439D01*
Y42561D01*
X991739Y47620D01*
X990156Y52491D01*
X987831Y57055D01*
X984820Y61198D01*
X981198Y64820D01*
X977055Y67831D01*
X972491Y70156D01*
X967620Y71739D01*
X962561Y72540D01*
D02*
G37*
G36*
X42561D02*
X37439D01*
X32380Y71739D01*
X27509Y70156D01*
X22945Y67831D01*
X18802Y64820D01*
X15180Y61198D01*
X12169Y57055D01*
X9844Y52491D01*
X8261Y47620D01*
X7460Y42561D01*
Y37439D01*
X8261Y32380D01*
X9844Y27509D01*
X12169Y22945D01*
X15180Y18802D01*
X18802Y15180D01*
X22945Y12169D01*
X27509Y9844D01*
X32380Y8261D01*
X37439Y7460D01*
X42561D01*
X47620Y8261D01*
X52491Y9844D01*
X57055Y12169D01*
X61198Y15180D01*
X64820Y18802D01*
X67831Y22945D01*
X70156Y27509D01*
X71739Y32380D01*
X72540Y37439D01*
Y42561D01*
X71739Y47620D01*
X70156Y52491D01*
X67831Y57055D01*
X64820Y61198D01*
X61198Y64820D01*
X57055Y67831D01*
X52491Y70156D01*
X47620Y71739D01*
X42561Y72540D01*
D02*
G37*
%LPD*%
G36*
X787500Y290000D02*
X752500D01*
Y352500D01*
X787500D01*
Y290000D01*
D02*
G37*
D11*
X283460Y215040D02*
X336046D01*
X242000Y256500D02*
X283460Y215040D01*
X462000Y196000D02*
Y252000D01*
X462000Y196000D02*
X462000Y196000D01*
X517500Y235500D02*
Y265000D01*
X230000Y245000D02*
X271500Y203500D01*
X346000D01*
X515500Y363000D02*
X540000D01*
X400000Y247500D02*
X515500Y363000D01*
X293500Y316500D02*
X502500Y107500D01*
X497500Y93500D02*
X560500D01*
X293500Y297500D02*
X497500Y93500D01*
X505500Y114000D02*
X681000D01*
X502500Y107500D02*
X661500D01*
X293500Y326000D02*
X505500Y114000D01*
X293500Y307000D02*
X500000Y100500D01*
X580500D01*
X529500Y229500D02*
Y265000D01*
X540000Y223500D02*
X637500Y126000D01*
X540000Y223500D02*
Y275500D01*
X672810Y161310D02*
Y320190D01*
X637500Y126000D02*
X672810Y161310D01*
X666500Y326500D02*
X672810Y320190D01*
X515000Y319000D02*
X645500D01*
X57200Y379900D02*
X163600Y273500D01*
X176000D01*
X57200Y354500D02*
X147700Y264000D01*
X176000D01*
X712800Y27000D02*
Y82200D01*
X681000Y114000D02*
X712800Y82200D01*
X661500Y107500D02*
X687400Y81600D01*
Y27000D02*
Y81600D01*
X599300Y27000D02*
Y81700D01*
X580500Y100500D02*
X599300Y81700D01*
X560500Y93500D02*
X573900Y80100D01*
Y27000D02*
Y80100D01*
X662000Y57000D02*
X662000Y57000D01*
Y27000D02*
Y57000D01*
X548500Y27000D02*
Y57000D01*
X548500Y57000D02*
X548500Y57000D01*
X869000Y406000D02*
Y518500D01*
X729890Y657610D02*
X869000Y518500D01*
X729890Y657610D02*
Y861580D01*
X384500Y27000D02*
Y40500D01*
X423500Y79500D01*
Y93000D01*
X533500Y799500D02*
X612480D01*
X612650Y799330D01*
X528000Y805000D02*
X533500Y799500D01*
X477500Y805000D02*
X528000D01*
X943014Y647950D02*
X943045Y647919D01*
X602490Y671997D02*
X631700Y642787D01*
X602490Y671997D02*
Y672330D01*
X631700Y642454D02*
Y642787D01*
D16*
X759040Y453960D02*
X786230D01*
X722740Y490260D02*
Y603750D01*
Y490260D02*
X759040Y453960D01*
D18*
X662000Y75000D02*
D03*
Y57000D02*
D03*
X548500Y75000D02*
D03*
Y57000D02*
D03*
D77*
X637500Y126000D02*
D03*
X943045Y647919D02*
D03*
D78*
X637500Y146000D02*
D03*
X722740Y603750D02*
D03*
X632650Y799330D02*
D03*
X943045Y627919D02*
D03*
X831490Y838720D02*
D03*
X749890Y861580D02*
D03*
D79*
X31800Y379900D02*
D03*
Y354500D02*
D03*
X57200Y379900D02*
D03*
Y354500D02*
D03*
X31800Y329100D02*
D03*
D80*
X57200D02*
D03*
D81*
X398100Y93000D02*
D03*
X423500D02*
D03*
X448900D02*
D03*
X295000Y981000D02*
D03*
D82*
X460700Y27000D02*
D03*
X409900D02*
D03*
X359100D02*
D03*
X384500D02*
D03*
X435300D02*
D03*
X486100D02*
D03*
X511500D02*
D03*
X687400D02*
D03*
X712800D02*
D03*
X738200D02*
D03*
X245700D02*
D03*
X194900D02*
D03*
X144100D02*
D03*
X169500D02*
D03*
X220300D02*
D03*
X271100D02*
D03*
X296500D02*
D03*
X573900D02*
D03*
X599300D02*
D03*
X624700D02*
D03*
X786230Y453960D02*
D03*
X853390Y53610D02*
D03*
X384900Y952400D02*
D03*
D83*
X333700Y27000D02*
D03*
X662000D02*
D03*
X118700D02*
D03*
X548500D02*
D03*
X803390Y53610D02*
D03*
X434900Y952400D02*
D03*
D84*
X786230Y479360D02*
D03*
D85*
X697740Y603750D02*
D03*
X612650Y799330D02*
D03*
X851490Y838720D02*
D03*
X729890Y861580D02*
D03*
D86*
X40000Y40000D02*
D03*
X960000D02*
D03*
X40000Y960000D02*
D03*
X960000D02*
D03*
D87*
X154000Y981000D02*
D03*
D88*
X850980Y664950D02*
D03*
Y630950D02*
D03*
X892890Y681950D02*
D03*
Y647950D02*
D03*
D89*
Y613950D02*
D03*
D90*
X153700Y930000D02*
D03*
D91*
X204500D02*
D03*
X255300D02*
D03*
X306100D02*
D03*
D92*
X278810Y606990D02*
D03*
Y807650D02*
D03*
X153080Y606990D02*
D03*
Y807650D02*
D03*
D93*
X353810Y606990D02*
D03*
Y807650D02*
D03*
X78080Y606990D02*
D03*
Y807650D02*
D03*
D94*
X803700Y647900D02*
D03*
D95*
X336046Y215040D02*
D03*
X462000Y196000D02*
D03*
X517500Y235500D02*
D03*
X346000Y203500D02*
D03*
X285230Y243080D02*
D03*
X230000Y245000D02*
D03*
X242000Y256500D02*
D03*
X529500Y229500D02*
D03*
X760000Y297500D02*
D03*
X770000D02*
D03*
X780000D02*
D03*
X760000Y307500D02*
D03*
X770000D02*
D03*
X780000D02*
D03*
Y345000D02*
D03*
X770000D02*
D03*
X760000D02*
D03*
X780000Y335000D02*
D03*
X770000D02*
D03*
X760000D02*
D03*
X462000Y252000D02*
D03*
X529500Y265000D02*
D03*
X517500D02*
D03*
X540000Y275500D02*
D03*
X645500Y319000D02*
D03*
X666500Y326500D02*
D03*
X548000Y137500D02*
D03*
X176000Y264000D02*
D03*
Y273500D02*
D03*
X400000Y247500D02*
D03*
X293500Y316500D02*
D03*
Y297500D02*
D03*
Y326000D02*
D03*
Y307000D02*
D03*
X666500Y235500D02*
D03*
X766500Y372500D02*
D03*
X515000Y319000D02*
D03*
X540000Y363000D02*
D03*
X641500Y277500D02*
D03*
X707500Y398000D02*
D03*
X869000Y406000D02*
D03*
X818000Y278000D02*
D03*
X234500Y223000D02*
D03*
X477500Y759000D02*
D03*
Y805000D02*
D03*
X636000Y599000D02*
D03*
Y609500D02*
D03*
X599000Y599000D02*
D03*
Y609500D02*
D03*
X629500D02*
D03*
Y599000D02*
D03*
X605500D02*
D03*
Y609500D02*
D03*
X623500Y599000D02*
D03*
Y609500D02*
D03*
X617500Y599000D02*
D03*
Y609500D02*
D03*
X611500Y599000D02*
D03*
Y609500D02*
D03*
X631700Y642454D02*
D03*
X602490Y672330D02*
D03*
X729570Y921270D02*
D03*
M02*
