M48
;Layer_Color=9474304
;FILE_FORMAT=4:4
METRIC,LZ
;TYPE=PLATED
T1F00S00C0.3000
T2F00S00C0.7000
T3F00S00C0.7400
T4F00S00C0.8000
T5F00S00C1.0000
T6F00S00C1.1000
T7F00S00C1.3300
T8F00S00C1.4500
T9F00S00C2.0000
T10F00S00C4.0000
%
T01
X00176Y00264
Y002735
X0023Y00245
X00242Y002565
X002345Y00223
X0028523Y0024308
X002935Y002975
Y00307
Y003165
Y00326
X00336046Y0021504
X00346Y002035
X004Y002475
X00462Y00252
X00462Y00196
X005175Y002355
X005295Y002295
Y00265
X005175
X0054Y002755
X00515Y00319
X0054Y00363
X006455Y00319
X006665Y003265
X006415Y002775
X006665Y002355
X0076Y002975
Y003075
Y00335
Y00345
X00548Y001375
X0077Y002975
X0078
Y003075
X0077
Y00335
X0078
Y00345
X0077
X007665Y003725
X00818Y00278
X00869Y00406
X007075Y00398
X00636Y00599
X006295
X006235
X006175
X006115
X006055
X00599
Y006095
X006055
X006115
X006175
X006235
X006295
X00636
X006317Y00642454
X0060249Y0067233
X004775Y00759
Y00805
X0072957Y0092127
T02
X006375Y00126
Y00146
X00943045Y00627919
Y00647919
X0072274Y0060375
X0069774
X0063265Y0079933
X0061265
X0072989Y0086158
X0074989
X0083149Y0083872
X0085149
T03
X003981Y00093
X004235
X004489
T04
X00154Y00981
X00295
T05
X0007808Y0060699
X0015308
X0027881
X0035381
Y0080765
X0027881
X0015308
X0007808
T06
X001187Y00027
X001441
X001695
X001949
X002203
X002457
X002711
X002965
X003337
X003591
X000572Y003291
Y003545
X000318
Y003799
X000572
X000318Y003291
X003845Y00027
X004099
X004353
X004607
X004861
X005115
X005485
X005739
X005993
X006247
X00662
X006874
X007128
X007382
X0080339Y0005361
X0085339
X0078623Y0045396
Y0047936
X004349Y009524
X003849
T07
X0085098Y0063095
Y0066495
X0089289Y0068195
Y0064795
Y0061395
T08
X001537Y0093
X002045
X002553
X003061
T09
X008037Y006479
T10
X0004Y0004
X0096
X0004Y0096
X0096
M30
