G04*
G04 #@! TF.GenerationSoftware,Altium Limited,Altium Designer,23.1.1 (15)*
G04*
G04 Layer_Color=65535*
%FSLAX44Y44*%
%MOMM*%
G71*
G04*
G04 #@! TF.SameCoordinates,59153929-C944-4D8D-ADD8-4EEA14B2016B*
G04*
G04*
G04 #@! TF.FilePolarity,Positive*
G04*
G01*
G75*
%ADD10C,0.2000*%
%ADD11C,0.2540*%
%ADD12C,0.4000*%
%ADD13C,0.2500*%
%ADD14C,0.1000*%
%ADD15C,0.1524*%
%ADD16C,1.0000*%
D10*
X662500Y136000D02*
G03*
X662500Y136000I-25000J0D01*
G01*
X399100Y61488D02*
G03*
X397100Y61492I-1000J2D01*
G01*
D02*
G03*
X399100Y61488I1000J-2D01*
G01*
X741740Y603750D02*
G03*
X741740Y603750I-31500J0D01*
G01*
X647650Y799330D02*
G03*
X647650Y799330I-25000J0D01*
G01*
X968045Y637919D02*
G03*
X968045Y637919I-25000J0D01*
G01*
X866490Y838720D02*
G03*
X866490Y838720I-25000J0D01*
G01*
X764890Y861580D02*
G03*
X764890Y861580I-25000J0D01*
G01*
X408810Y606990D02*
G03*
X408810Y606990I-92500J0D01*
G01*
Y807650D02*
G03*
X408810Y807650I-92500J0D01*
G01*
X208080Y606990D02*
G03*
X208080Y606990I-92500J0D01*
G01*
Y807650D02*
G03*
X208080Y807650I-92500J0D01*
G01*
X579000Y145500D02*
X585000D01*
Y116500D02*
Y145500D01*
X579000Y116500D02*
X585000D01*
X579000D02*
Y145500D01*
X542000Y112500D02*
X554000D01*
X73500Y270500D02*
X85500D01*
X41000Y414000D02*
Y426000D01*
X18350Y314900D02*
X70650D01*
Y394100D01*
X18350Y314900D02*
Y394100D01*
X70650D01*
X51500Y270500D02*
X63500D01*
X660500Y261000D02*
X672500D01*
X636250Y305000D02*
X722750D01*
Y337000D01*
X636250D02*
X722750D01*
X636250Y305000D02*
Y337000D01*
X741000Y366500D02*
Y378500D01*
X377000Y256500D02*
X389000D01*
X355500D02*
X367500D01*
X496000Y261000D02*
X508000D01*
X474500D02*
X486500D01*
X209952Y237500D02*
X254500Y192952D01*
X299048Y237500D01*
X254500Y282048D02*
X299048Y237500D01*
X209952D02*
X254500Y282048D01*
X545500Y303000D02*
Y335000D01*
X496500Y303000D02*
X545500D01*
X496500D02*
Y335000D01*
X545500D01*
X469200Y68900D02*
Y116890D01*
X380260Y68900D02*
X469200D01*
X380260D02*
Y116890D01*
X469200D01*
X319500Y13550D02*
X525700D01*
X319500D02*
Y40450D01*
X525700D01*
Y13550D02*
Y40450D01*
X647800Y13550D02*
X752400D01*
X647800D02*
Y40450D01*
X752400D01*
Y13550D02*
Y40450D01*
X104500Y13550D02*
X310700D01*
X104500D02*
Y40450D01*
X310700D01*
Y13550D02*
Y40450D01*
X534300Y13550D02*
X638900D01*
X534300D02*
Y40450D01*
X638900D01*
Y13550D02*
Y40450D01*
X555500Y301000D02*
X567500D01*
X616500Y320500D02*
X628500D01*
X307757Y275257D02*
X316243Y283743D01*
X204257Y180257D02*
X212743Y188743D01*
X820960Y248040D02*
Y254040D01*
X849960D01*
Y248040D02*
Y254040D01*
X820960Y248040D02*
X849960D01*
X795000Y254500D02*
X807000D01*
X871500Y247500D02*
X883500D01*
X914500D02*
X926500D01*
X936000D02*
X948000D01*
X884250Y401460D02*
X896250D01*
X726500Y422000D02*
X738500D01*
X780230Y516660D02*
X792230D01*
X772780Y439760D02*
Y493560D01*
X799680D01*
Y439760D02*
Y493560D01*
X772780Y439760D02*
X799680D01*
X874000Y430000D02*
Y436000D01*
X845000Y430000D02*
X874000D01*
X845000D02*
Y436000D01*
X874000D01*
X863000Y479000D02*
X875000D01*
X817650Y503000D02*
Y514000D01*
X818500Y517500D02*
X847500D01*
Y520500D01*
X818500D02*
X847500D01*
X818500Y517500D02*
Y520500D01*
X925500Y691500D02*
X937500D01*
X913500Y734500D02*
X962500D01*
Y766500D01*
X913500D02*
X962500D01*
X913500Y734500D02*
Y766500D01*
X936960Y392460D02*
X948960D01*
X915960D02*
X927960D01*
X936960Y546460D02*
X948960D01*
X936960Y509960D02*
X948960D01*
X842000Y551000D02*
Y563000D01*
Y573000D02*
Y585000D01*
X759500Y593500D02*
X771500D01*
X587130Y708540D02*
X640900D01*
X587130Y735180D02*
X638170D01*
X621650Y748880D02*
Y760880D01*
X632810Y619280D02*
Y633530D01*
X623160Y668520D02*
X635160D01*
X578250Y546950D02*
Y558950D01*
X516650Y470680D02*
Y505680D01*
X581650D01*
Y470680D02*
Y505680D01*
X516650Y470680D02*
X581650D01*
X518150Y449180D02*
Y467180D01*
X649480Y553300D02*
Y565300D01*
X621890Y525010D02*
X633890D01*
X601570D02*
X613570D01*
X657210Y508850D02*
Y520850D01*
X579630Y620610D02*
Y632610D01*
X597520Y646010D02*
Y658010D01*
X447500Y761000D02*
X459500D01*
X487500Y765000D02*
X493500D01*
X487500D02*
Y794000D01*
X493500D01*
Y765000D02*
Y794000D01*
X772390Y12610D02*
Y94610D01*
X878390D01*
Y12610D02*
Y94610D01*
X772390Y12610D02*
X878390D01*
X776560Y940670D02*
Y952670D01*
X754530Y925610D02*
X763030D01*
Y896610D02*
Y925610D01*
X754530Y896610D02*
X763030D01*
X754530D02*
Y925610D01*
X740530Y926860D02*
X751030D01*
X247750Y981000D02*
X285500D01*
X163500D02*
X201250D01*
X213000Y992750D01*
X201250Y969250D02*
Y992750D01*
Y969250D02*
X247750D01*
Y992750D01*
X201250D02*
X247750D01*
X683500Y428500D02*
X712500D01*
X683500Y422500D02*
Y428500D01*
Y422500D02*
X712500D01*
Y428500D01*
X818850Y595250D02*
X892890D01*
X818850D02*
Y700650D01*
X864570D01*
X319900Y918700D02*
X339900D01*
Y952700D01*
X119900D02*
X339900D01*
X119900Y918700D02*
Y952700D01*
Y918700D02*
X134900D01*
X169900D02*
X194900D01*
X214900D02*
X244900D01*
X264900D02*
X294900D01*
X893000Y247500D02*
X905000D01*
X461550Y852670D02*
X473550D01*
X483030Y852670D02*
X495030D01*
X504620D02*
X516620D01*
X526210D02*
X538210D01*
X547800D02*
X559800D01*
X569390D02*
X581390D01*
X590980D02*
X602980D01*
X612570D02*
X624570D01*
X634270Y852670D02*
X646270D01*
X655750Y852670D02*
X667750D01*
X359900Y993400D02*
X465900D01*
X359900Y911400D02*
Y993400D01*
Y911400D02*
X465900D01*
Y993400D01*
D11*
X566760Y148780D02*
G03*
X566760Y148780I-1270J0D01*
G01*
X632510Y294330D02*
G03*
X632510Y294330I-1270J0D01*
G01*
X818950Y234530D02*
G03*
X818950Y234530I-1270J0D01*
G01*
X878550Y449510D02*
G03*
X878550Y449510I-1270J0D01*
G01*
X508280Y761720D02*
G03*
X508280Y761720I-1270J0D01*
G01*
X717050Y442010D02*
G03*
X717050Y442010I-1270J0D01*
G01*
X619000Y709160D02*
Y734560D01*
X462540Y813540D02*
Y828775D01*
X470158D01*
X472697Y826236D01*
Y821158D01*
X470158Y818618D01*
X462540D01*
X467618D02*
X472697Y813540D01*
X477775Y828775D02*
X487932D01*
Y826236D01*
X477775Y816079D01*
Y813540D01*
X493010D02*
Y816079D01*
X495549D01*
Y813540D01*
X493010D01*
X505706D02*
Y816079D01*
X508245D01*
Y813540D01*
X505706D01*
X518402D02*
Y828775D01*
X526019D01*
X528559Y826236D01*
Y821158D01*
X526019Y818618D01*
X518402D01*
X523480D02*
X528559Y813540D01*
X533637D02*
X538715D01*
X536176D01*
Y828775D01*
X533637Y826236D01*
X556490Y828775D02*
X551411Y826236D01*
X546333Y821158D01*
Y816079D01*
X548872Y813540D01*
X553950D01*
X556490Y816079D01*
Y818618D01*
X553950Y821158D01*
X546333D01*
X390617Y277687D02*
X375382D01*
Y285304D01*
X377922Y287843D01*
X383000D01*
X385539Y285304D01*
Y277687D01*
Y282765D02*
X390617Y287843D01*
X377922Y292922D02*
X375382Y295461D01*
Y300539D01*
X377922Y303078D01*
X380461D01*
X383000Y300539D01*
Y298000D01*
Y300539D01*
X385539Y303078D01*
X388078D01*
X390617Y300539D01*
Y295461D01*
X388078Y292922D01*
Y308157D02*
X390617Y310696D01*
Y315774D01*
X388078Y318313D01*
X377922D01*
X375382Y315774D01*
Y310696D01*
X377922Y308157D01*
X380461D01*
X383000Y310696D01*
Y318313D01*
X509618Y198186D02*
X494383D01*
Y205804D01*
X496922Y208343D01*
X502000D01*
X504539Y205804D01*
Y198186D01*
Y203265D02*
X509618Y208343D01*
X496922Y213422D02*
X494383Y215961D01*
Y221039D01*
X496922Y223578D01*
X499461D01*
X502000Y221039D01*
Y218500D01*
Y221039D01*
X504539Y223578D01*
X507078D01*
X509618Y221039D01*
Y215961D01*
X507078Y213422D01*
X496922Y228657D02*
X494383Y231196D01*
Y236274D01*
X496922Y238813D01*
X499461D01*
X502000Y236274D01*
X504539Y238813D01*
X507078D01*
X509618Y236274D01*
Y231196D01*
X507078Y228657D01*
X504539D01*
X502000Y231196D01*
X499461Y228657D01*
X496922D01*
X502000Y231196D02*
Y236274D01*
X369118Y277687D02*
X353882D01*
Y285304D01*
X356422Y287843D01*
X361500D01*
X364039Y285304D01*
Y277687D01*
Y282765D02*
X369118Y287843D01*
X356422Y292922D02*
X353882Y295461D01*
Y300539D01*
X356422Y303078D01*
X358961D01*
X361500Y300539D01*
Y298000D01*
Y300539D01*
X364039Y303078D01*
X366578D01*
X369118Y300539D01*
Y295461D01*
X366578Y292922D01*
X353882Y308157D02*
Y318313D01*
X356422D01*
X366578Y308157D01*
X369118D01*
X488117Y198187D02*
X472882D01*
Y205804D01*
X475422Y208343D01*
X480500D01*
X483039Y205804D01*
Y198187D01*
Y203265D02*
X488117Y208343D01*
X475422Y213422D02*
X472882Y215961D01*
Y221039D01*
X475422Y223578D01*
X477961D01*
X480500Y221039D01*
Y218500D01*
Y221039D01*
X483039Y223578D01*
X485578D01*
X488117Y221039D01*
Y215961D01*
X485578Y213422D01*
X472882Y238813D02*
X475422Y233735D01*
X480500Y228657D01*
X485578D01*
X488117Y231196D01*
Y236274D01*
X485578Y238813D01*
X483039D01*
X480500Y236274D01*
Y228657D01*
X87118Y207687D02*
X71882D01*
Y215304D01*
X74422Y217843D01*
X79500D01*
X82039Y215304D01*
Y207687D01*
Y212765D02*
X87118Y217843D01*
X74422Y222922D02*
X71882Y225461D01*
Y230539D01*
X74422Y233078D01*
X76961D01*
X79500Y230539D01*
Y228000D01*
Y230539D01*
X82039Y233078D01*
X84578D01*
X87118Y230539D01*
Y225461D01*
X84578Y222922D01*
X71882Y248313D02*
Y238157D01*
X79500D01*
X76961Y243235D01*
Y245774D01*
X79500Y248313D01*
X84578D01*
X87118Y245774D01*
Y240696D01*
X84578Y238157D01*
X782671Y118378D02*
X777592D01*
X780132D01*
Y105682D01*
X777592Y103142D01*
X775053D01*
X772514Y105682D01*
X787749Y115838D02*
X790288Y118378D01*
X795367D01*
X797906Y115838D01*
Y113299D01*
X795367Y110760D01*
X797906Y108221D01*
Y105682D01*
X795367Y103142D01*
X790288D01*
X787749Y105682D01*
Y108221D01*
X790288Y110760D01*
X787749Y113299D01*
Y115838D01*
X790288Y110760D02*
X795367D01*
X117843Y989118D02*
Y973883D01*
X125461D01*
X128000Y976422D01*
Y986578D01*
X125461Y989118D01*
X117843D01*
X133078Y973883D02*
X138157D01*
X135618D01*
Y989118D01*
X133078Y986578D01*
X576382Y149956D02*
X589078D01*
X591618Y152495D01*
Y157574D01*
X589078Y160113D01*
X576382D01*
X591618Y165191D02*
Y170270D01*
Y167730D01*
X576382D01*
X578922Y165191D01*
Y177887D02*
X576382Y180426D01*
Y185505D01*
X578922Y188044D01*
X581461D01*
X584000Y185505D01*
Y182965D01*
Y185505D01*
X586539Y188044D01*
X589078D01*
X591618Y185505D01*
Y180426D01*
X589078Y177887D01*
X694016Y912377D02*
Y899682D01*
X696555Y897142D01*
X701634D01*
X704173Y899682D01*
Y912377D01*
X709251Y897142D02*
X714330D01*
X711790D01*
Y912377D01*
X709251Y909838D01*
X732104Y897142D02*
X721947D01*
X732104Y907299D01*
Y909838D01*
X729565Y912377D01*
X724486D01*
X721947Y909838D01*
X807495Y441618D02*
Y428922D01*
X810034Y426382D01*
X815113D01*
X817652Y428922D01*
Y441618D01*
X822730Y426382D02*
X827809D01*
X825270D01*
Y441618D01*
X822730Y439078D01*
X835426Y426382D02*
X840505D01*
X837965D01*
Y441618D01*
X835426Y439078D01*
X828382Y274956D02*
X841078D01*
X843617Y277495D01*
Y282574D01*
X841078Y285113D01*
X828382D01*
X843617Y290191D02*
Y295270D01*
Y292730D01*
X828382D01*
X830922Y290191D01*
Y302887D02*
X828382Y305426D01*
Y310505D01*
X830922Y313044D01*
X841078D01*
X843617Y310505D01*
Y305426D01*
X841078Y302887D01*
X830922D01*
X685038Y467863D02*
Y455167D01*
X687577Y452628D01*
X692655D01*
X695195Y455167D01*
Y467863D01*
X700273Y455167D02*
X702812Y452628D01*
X707891D01*
X710430Y455167D01*
Y465324D01*
X707891Y467863D01*
X702812D01*
X700273Y465324D01*
Y462785D01*
X702812Y460246D01*
X710430D01*
X915162Y809239D02*
Y796543D01*
X917701Y794004D01*
X922779D01*
X925319Y796543D01*
Y809239D01*
X930397Y806700D02*
X932936Y809239D01*
X938015D01*
X940554Y806700D01*
Y804161D01*
X938015Y801621D01*
X940554Y799082D01*
Y796543D01*
X938015Y794004D01*
X932936D01*
X930397Y796543D01*
Y799082D01*
X932936Y801621D01*
X930397Y804161D01*
Y806700D01*
X932936Y801621D02*
X938015D01*
X512804Y786117D02*
Y773422D01*
X515343Y770882D01*
X520422D01*
X522961Y773422D01*
Y786117D01*
X528039D02*
X538196D01*
Y783578D01*
X528039Y773422D01*
Y770882D01*
X818540Y726143D02*
Y713447D01*
X821079Y710908D01*
X826158D01*
X828697Y713447D01*
Y726143D01*
X843932D02*
X838853Y723604D01*
X833775Y718526D01*
Y713447D01*
X836314Y710908D01*
X841393D01*
X843932Y713447D01*
Y715986D01*
X841393Y718526D01*
X833775D01*
X641304Y611118D02*
Y598422D01*
X643843Y595882D01*
X648922D01*
X651461Y598422D01*
Y611118D01*
X666696D02*
X656539D01*
Y603500D01*
X661618Y606039D01*
X664157D01*
X666696Y603500D01*
Y598422D01*
X664157Y595882D01*
X659078D01*
X656539Y598422D01*
X80804Y926618D02*
Y913922D01*
X83343Y911383D01*
X88422D01*
X90961Y913922D01*
Y926618D01*
X103657Y911383D02*
Y926618D01*
X96039Y919000D01*
X106196D01*
X727882Y308804D02*
X740578D01*
X743118Y311343D01*
Y316422D01*
X740578Y318961D01*
X727882D01*
X730422Y324039D02*
X727882Y326578D01*
Y331657D01*
X730422Y334196D01*
X732961D01*
X735500Y331657D01*
Y329118D01*
Y331657D01*
X738039Y334196D01*
X740578D01*
X743118Y331657D01*
Y326578D01*
X740578Y324039D01*
X240804Y246117D02*
Y233422D01*
X243343Y230882D01*
X248422D01*
X250961Y233422D01*
Y246117D01*
X266196Y230882D02*
X256039D01*
X266196Y241039D01*
Y243578D01*
X263657Y246117D01*
X258578D01*
X256039Y243578D01*
X475882Y310843D02*
X488578D01*
X491118Y313382D01*
Y318461D01*
X488578Y321000D01*
X475882D01*
X491118Y326078D02*
Y331157D01*
Y328618D01*
X475882D01*
X478422Y326078D01*
X935383Y371813D02*
X950618D01*
Y364196D01*
X948078Y361657D01*
X943000D01*
X940461Y364196D01*
Y371813D01*
Y366735D02*
X935383Y361657D01*
X948078Y356578D02*
X950618Y354039D01*
Y348961D01*
X948078Y346422D01*
X945539D01*
X943000Y348961D01*
Y351500D01*
Y348961D01*
X940461Y346422D01*
X937922D01*
X935383Y348961D01*
Y354039D01*
X937922Y356578D01*
X935383Y333726D02*
X950618D01*
X943000Y341343D01*
Y331186D01*
X914382Y371813D02*
X929617D01*
Y364196D01*
X927078Y361657D01*
X922000D01*
X919461Y364196D01*
Y371813D01*
Y366735D02*
X914382Y361657D01*
X927078Y356578D02*
X929617Y354039D01*
Y348961D01*
X927078Y346422D01*
X924539D01*
X922000Y348961D01*
Y351500D01*
Y348961D01*
X919461Y346422D01*
X916922D01*
X914382Y348961D01*
Y354039D01*
X916922Y356578D01*
X927078Y341343D02*
X929617Y338804D01*
Y333726D01*
X927078Y331187D01*
X924539D01*
X922000Y333726D01*
Y336265D01*
Y333726D01*
X919461Y331187D01*
X916922D01*
X914382Y333726D01*
Y338804D01*
X916922Y341343D01*
X889147Y538343D02*
Y553577D01*
X896764D01*
X899303Y551038D01*
Y545960D01*
X896764Y543421D01*
X889147D01*
X894225D02*
X899303Y538343D01*
X904382Y551038D02*
X906921Y553577D01*
X911999D01*
X914538Y551038D01*
Y548499D01*
X911999Y545960D01*
X909460D01*
X911999D01*
X914538Y543421D01*
Y540882D01*
X911999Y538343D01*
X906921D01*
X904382Y540882D01*
X929773Y538343D02*
X919617D01*
X929773Y548499D01*
Y551038D01*
X927234Y553577D01*
X922156D01*
X919617Y551038D01*
X888726Y502882D02*
Y518117D01*
X896343D01*
X898883Y515578D01*
Y510500D01*
X896343Y507961D01*
X888726D01*
X893804D02*
X898883Y502882D01*
X903961Y515578D02*
X906500Y518117D01*
X911578D01*
X914118Y515578D01*
Y513039D01*
X911578Y510500D01*
X909039D01*
X911578D01*
X914118Y507961D01*
Y505422D01*
X911578Y502882D01*
X906500D01*
X903961Y505422D01*
X919196Y502882D02*
X924274D01*
X921735D01*
Y518117D01*
X919196Y515578D01*
X882687Y468382D02*
Y483618D01*
X890304D01*
X892843Y481078D01*
Y476000D01*
X890304Y473461D01*
X882687D01*
X887765D02*
X892843Y468382D01*
X897922Y481078D02*
X900461Y483618D01*
X905539D01*
X908078Y481078D01*
Y478539D01*
X905539Y476000D01*
X903000D01*
X905539D01*
X908078Y473461D01*
Y470922D01*
X905539Y468382D01*
X900461D01*
X897922Y470922D01*
X913157Y481078D02*
X915696Y483618D01*
X920774D01*
X923313Y481078D01*
Y470922D01*
X920774Y468382D01*
X915696D01*
X913157Y470922D01*
Y481078D01*
X731416Y508543D02*
Y523778D01*
X739034D01*
X741573Y521238D01*
Y516160D01*
X739034Y513621D01*
X731416D01*
X736495D02*
X741573Y508543D01*
X756808D02*
X746652D01*
X756808Y518699D01*
Y521238D01*
X754269Y523778D01*
X749191D01*
X746652Y521238D01*
X761887Y511082D02*
X764426Y508543D01*
X769504D01*
X772043Y511082D01*
Y521238D01*
X769504Y523778D01*
X764426D01*
X761887Y521238D01*
Y518699D01*
X764426Y516160D01*
X772043D01*
X778687Y549383D02*
Y564618D01*
X786304D01*
X788843Y562078D01*
Y557000D01*
X786304Y554461D01*
X778687D01*
X783765D02*
X788843Y549383D01*
X804078D02*
X793922D01*
X804078Y559539D01*
Y562078D01*
X801539Y564618D01*
X796461D01*
X793922Y562078D01*
X809157D02*
X811696Y564618D01*
X816774D01*
X819313Y562078D01*
Y559539D01*
X816774Y557000D01*
X819313Y554461D01*
Y551922D01*
X816774Y549383D01*
X811696D01*
X809157Y551922D01*
Y554461D01*
X811696Y557000D01*
X809157Y559539D01*
Y562078D01*
X811696Y557000D02*
X816774D01*
X885117Y268687D02*
X869882D01*
Y276304D01*
X872422Y278843D01*
X877500D01*
X880039Y276304D01*
Y268687D01*
Y273765D02*
X885117Y278843D01*
Y294078D02*
Y283922D01*
X874961Y294078D01*
X872422D01*
X869882Y291539D01*
Y286461D01*
X872422Y283922D01*
X869882Y299157D02*
Y309314D01*
X872422D01*
X882578Y299157D01*
X885117D01*
X906618Y268687D02*
X891382D01*
Y276304D01*
X893922Y278843D01*
X899000D01*
X901539Y276304D01*
Y268687D01*
Y273765D02*
X906618Y278843D01*
Y294078D02*
Y283922D01*
X896461Y294078D01*
X893922D01*
X891382Y291539D01*
Y286461D01*
X893922Y283922D01*
X891382Y309314D02*
X893922Y304235D01*
X899000Y299157D01*
X904078D01*
X906618Y301696D01*
Y306774D01*
X904078Y309314D01*
X901539D01*
X899000Y306774D01*
Y299157D01*
X514187Y545382D02*
Y560618D01*
X521804D01*
X524343Y558078D01*
Y553000D01*
X521804Y550461D01*
X514187D01*
X519265D02*
X524343Y545382D01*
X539578D02*
X529422D01*
X539578Y555539D01*
Y558078D01*
X537039Y560618D01*
X531961D01*
X529422Y558078D01*
X554813Y560618D02*
X544657D01*
Y553000D01*
X549735Y555539D01*
X552274D01*
X554813Y553000D01*
Y547922D01*
X552274Y545382D01*
X547196D01*
X544657Y547922D01*
X641187Y530882D02*
Y546118D01*
X648804D01*
X651343Y543578D01*
Y538500D01*
X648804Y535961D01*
X641187D01*
X646265D02*
X651343Y530882D01*
X666578D02*
X656422D01*
X666578Y541039D01*
Y543578D01*
X664039Y546118D01*
X658961D01*
X656422Y543578D01*
X679274Y530882D02*
Y546118D01*
X671657Y538500D01*
X681813D01*
X928118Y268687D02*
X912882D01*
Y276304D01*
X915422Y278843D01*
X920500D01*
X923039Y276304D01*
Y268687D01*
Y273765D02*
X928118Y278843D01*
Y294078D02*
Y283922D01*
X917961Y294078D01*
X915422D01*
X912882Y291539D01*
Y286461D01*
X915422Y283922D01*
Y299157D02*
X912882Y301696D01*
Y306774D01*
X915422Y309314D01*
X917961D01*
X920500Y306774D01*
Y304235D01*
Y306774D01*
X923039Y309314D01*
X925578D01*
X928118Y306774D01*
Y301696D01*
X925578Y299157D01*
X751187Y615382D02*
Y630618D01*
X758804D01*
X761343Y628078D01*
Y623000D01*
X758804Y620461D01*
X751187D01*
X756265D02*
X761343Y615382D01*
X776578D02*
X766422D01*
X776578Y625539D01*
Y628078D01*
X774039Y630618D01*
X768961D01*
X766422Y628078D01*
X791813Y615382D02*
X781657D01*
X791813Y625539D01*
Y628078D01*
X789274Y630618D01*
X784196D01*
X781657Y628078D01*
X597882Y502774D02*
X613117D01*
Y495157D01*
X610578Y492617D01*
X605500D01*
X602961Y495157D01*
Y502774D01*
Y497696D02*
X597882Y492617D01*
Y477383D02*
Y487539D01*
X608039Y477383D01*
X610578D01*
X613117Y479922D01*
Y485000D01*
X610578Y487539D01*
X597882Y472304D02*
Y467226D01*
Y469765D01*
X613117D01*
X610578Y472304D01*
X619883Y502313D02*
X635117D01*
Y494696D01*
X632578Y492157D01*
X627500D01*
X624961Y494696D01*
Y502313D01*
Y497235D02*
X619883Y492157D01*
Y476922D02*
Y487078D01*
X630039Y476922D01*
X632578D01*
X635117Y479461D01*
Y484539D01*
X632578Y487078D01*
Y471843D02*
X635117Y469304D01*
Y464226D01*
X632578Y461687D01*
X622422D01*
X619883Y464226D01*
Y469304D01*
X622422Y471843D01*
X632578D01*
X949617Y268456D02*
X934382D01*
Y276074D01*
X936922Y278613D01*
X942000D01*
X944539Y276074D01*
Y268456D01*
Y273535D02*
X949617Y278613D01*
Y283691D02*
Y288770D01*
Y286230D01*
X934382D01*
X936922Y283691D01*
X947078Y296387D02*
X949617Y298926D01*
Y304005D01*
X947078Y306544D01*
X936922D01*
X934382Y304005D01*
Y298926D01*
X936922Y296387D01*
X939461D01*
X942000Y298926D01*
Y306544D01*
X537956Y644883D02*
Y660118D01*
X545574D01*
X548113Y657578D01*
Y652500D01*
X545574Y649961D01*
X537956D01*
X543035D02*
X548113Y644883D01*
X553191D02*
X558270D01*
X555730D01*
Y660118D01*
X553191Y657578D01*
X565887Y660118D02*
X576044D01*
Y657578D01*
X565887Y647422D01*
Y644883D01*
X947956Y684883D02*
Y700117D01*
X955574D01*
X958113Y697578D01*
Y692500D01*
X955574Y689961D01*
X947956D01*
X953035D02*
X958113Y684883D01*
X963191D02*
X968270D01*
X965730D01*
Y700117D01*
X963191Y697578D01*
X975887D02*
X978426Y700117D01*
X983505D01*
X986044Y697578D01*
Y695039D01*
X983505Y692500D01*
X986044Y689961D01*
Y687422D01*
X983505Y684883D01*
X978426D01*
X975887Y687422D01*
Y689961D01*
X978426Y692500D01*
X975887Y695039D01*
Y697578D01*
X978426Y692500D02*
X983505D01*
X348804Y85883D02*
Y101117D01*
X356422D01*
X358961Y98578D01*
Y93500D01*
X356422Y90961D01*
X348804D01*
X353882D02*
X358961Y85883D01*
X374196Y101117D02*
X369118Y98578D01*
X364039Y93500D01*
Y88422D01*
X366578Y85883D01*
X371657D01*
X374196Y88422D01*
Y90961D01*
X371657Y93500D01*
X364039D01*
X744804Y384883D02*
Y400117D01*
X752422D01*
X754961Y397578D01*
Y392500D01*
X752422Y389961D01*
X744804D01*
X749883D02*
X754961Y384883D01*
X770196Y400117D02*
X760039D01*
Y392500D01*
X765117Y395039D01*
X767657D01*
X770196Y392500D01*
Y387422D01*
X767657Y384883D01*
X762578D01*
X760039Y387422D01*
X654118Y244804D02*
X638882D01*
Y252422D01*
X641422Y254961D01*
X646500D01*
X649039Y252422D01*
Y244804D01*
Y249883D02*
X654118Y254961D01*
X641422Y260039D02*
X638882Y262578D01*
Y267657D01*
X641422Y270196D01*
X643961D01*
X646500Y267657D01*
Y265117D01*
Y267657D01*
X649039Y270196D01*
X651578D01*
X654118Y267657D01*
Y262578D01*
X651578Y260039D01*
X64618Y207804D02*
X49383D01*
Y215422D01*
X51922Y217961D01*
X57000D01*
X59539Y215422D01*
Y207804D01*
Y212882D02*
X64618Y217961D01*
Y233196D02*
Y223039D01*
X54461Y233196D01*
X51922D01*
X49383Y230657D01*
Y225578D01*
X51922Y223039D01*
X830461Y481422D02*
Y491578D01*
X827922Y494118D01*
X822843D01*
X820304Y491578D01*
Y481422D01*
X822843Y478882D01*
X827922D01*
X825383Y483961D02*
X830461Y478882D01*
X827922D02*
X830461Y481422D01*
X845696Y478882D02*
X835539D01*
X845696Y489039D01*
Y491578D01*
X843157Y494118D01*
X838078D01*
X835539Y491578D01*
X499500Y482422D02*
Y492578D01*
X496961Y495118D01*
X491883D01*
X489343Y492578D01*
Y482422D01*
X491883Y479883D01*
X496961D01*
X494422Y484961D02*
X499500Y479883D01*
X496961D02*
X499500Y482422D01*
X504578Y479883D02*
X509657D01*
X507118D01*
Y495118D01*
X504578Y492578D01*
X824824Y966988D02*
Y951752D01*
X834981D01*
X850216D02*
X840059D01*
X850216Y961909D01*
Y964448D01*
X847677Y966988D01*
X842598D01*
X840059Y964448D01*
X682343Y738118D02*
Y722883D01*
X692500D01*
X697578D02*
X702657D01*
X700117D01*
Y738118D01*
X697578Y735578D01*
X751191Y487278D02*
X746112D01*
X748652D01*
Y474582D01*
X746112Y472043D01*
X743573D01*
X741034Y474582D01*
X756269Y487278D02*
X766426D01*
Y484738D01*
X756269Y474582D01*
Y472043D01*
X336961Y989118D02*
X331883D01*
X334422D01*
Y976422D01*
X331883Y973883D01*
X329343D01*
X326804Y976422D01*
X352196Y989118D02*
X347118Y986578D01*
X342039Y981500D01*
Y976422D01*
X344578Y973883D01*
X349657D01*
X352196Y976422D01*
Y978961D01*
X349657Y981500D01*
X342039D01*
X418961Y61118D02*
X413882D01*
X416422D01*
Y48422D01*
X413882Y45883D01*
X411343D01*
X408804Y48422D01*
X434196Y61118D02*
X424039D01*
Y53500D01*
X429118Y56039D01*
X431657D01*
X434196Y53500D01*
Y48422D01*
X431657Y45883D01*
X426578D01*
X424039Y48422D01*
X697461Y62618D02*
X692383D01*
X694922D01*
Y49922D01*
X692383Y47382D01*
X689843D01*
X687304Y49922D01*
X710157Y47382D02*
Y62618D01*
X702539Y55000D01*
X712696D01*
X197961Y61118D02*
X192882D01*
X195422D01*
Y48422D01*
X192882Y45883D01*
X190343D01*
X187804Y48422D01*
X203039Y58578D02*
X205578Y61118D01*
X210657D01*
X213196Y58578D01*
Y56039D01*
X210657Y53500D01*
X208118D01*
X210657D01*
X213196Y50961D01*
Y48422D01*
X210657Y45883D01*
X205578D01*
X203039Y48422D01*
X583461Y61617D02*
X578382D01*
X580922D01*
Y48922D01*
X578382Y46382D01*
X575843D01*
X573304Y48922D01*
X598696Y46382D02*
X588539D01*
X598696Y56539D01*
Y59078D01*
X596157Y61617D01*
X591078D01*
X588539Y59078D01*
X21383Y288000D02*
Y282922D01*
Y285461D01*
X34078D01*
X36618Y282922D01*
Y280382D01*
X34078Y277843D01*
X36618Y293078D02*
Y298157D01*
Y295618D01*
X21383D01*
X23922Y293078D01*
X549804Y730118D02*
Y714883D01*
X557422D01*
X559961Y717422D01*
Y727578D01*
X557422Y730118D01*
X549804D01*
X575196Y714883D02*
X565039D01*
X575196Y725039D01*
Y727578D01*
X572657Y730118D01*
X567578D01*
X565039Y727578D01*
X832763Y798078D02*
X830224Y800618D01*
X825146D01*
X822607Y798078D01*
Y787922D01*
X825146Y785382D01*
X830224D01*
X832763Y787922D01*
X847998Y785382D02*
X837842D01*
X847998Y795539D01*
Y798078D01*
X845459Y800618D01*
X840381D01*
X837842Y798078D01*
X863233Y800618D02*
X858155Y798078D01*
X853077Y793000D01*
Y787922D01*
X855616Y785382D01*
X860694D01*
X863233Y787922D01*
Y790461D01*
X860694Y793000D01*
X853077D01*
X728303Y826018D02*
X725764Y828558D01*
X720686D01*
X718147Y826018D01*
Y815862D01*
X720686Y813322D01*
X725764D01*
X728303Y815862D01*
X743538Y813322D02*
X733382D01*
X743538Y823479D01*
Y826018D01*
X740999Y828558D01*
X735921D01*
X733382Y826018D01*
X758773Y828558D02*
X748617D01*
Y820940D01*
X753695Y823479D01*
X756234D01*
X758773Y820940D01*
Y815862D01*
X756234Y813322D01*
X751156D01*
X748617Y815862D01*
X521922Y103843D02*
X519383Y101304D01*
Y96226D01*
X521922Y93687D01*
X532078D01*
X534618Y96226D01*
Y101304D01*
X532078Y103843D01*
X534618Y119078D02*
Y108922D01*
X524461Y119078D01*
X521922D01*
X519383Y116539D01*
Y111461D01*
X521922Y108922D01*
X534618Y131774D02*
X519383D01*
X527000Y124157D01*
Y134313D01*
X673922Y124843D02*
X671383Y122304D01*
Y117226D01*
X673922Y114687D01*
X684078D01*
X686618Y117226D01*
Y122304D01*
X684078Y124843D01*
X686618Y140078D02*
Y129922D01*
X676461Y140078D01*
X673922D01*
X671383Y137539D01*
Y132461D01*
X673922Y129922D01*
Y145157D02*
X671383Y147696D01*
Y152774D01*
X673922Y155314D01*
X676461D01*
X679000Y152774D01*
Y150235D01*
Y152774D01*
X681539Y155314D01*
X684078D01*
X686618Y152774D01*
Y147696D01*
X684078Y145157D01*
X766403Y973338D02*
X763864Y975878D01*
X758786D01*
X756246Y973338D01*
Y963182D01*
X758786Y960642D01*
X763864D01*
X766403Y963182D01*
X781638Y960642D02*
X771482D01*
X781638Y970799D01*
Y973338D01*
X779099Y975878D01*
X774021D01*
X771482Y973338D01*
X796873Y960642D02*
X786717D01*
X796873Y970799D01*
Y973338D01*
X794334Y975878D01*
X789256D01*
X786717Y973338D01*
X793743Y584078D02*
X791203Y586618D01*
X786125D01*
X783586Y584078D01*
Y573922D01*
X786125Y571382D01*
X791203D01*
X793743Y573922D01*
X808978Y571382D02*
X798821D01*
X808978Y581539D01*
Y584078D01*
X806438Y586618D01*
X801360D01*
X798821Y584078D01*
X814056Y571382D02*
X819134D01*
X816595D01*
Y586618D01*
X814056Y584078D01*
X656343Y497578D02*
X653804Y500118D01*
X648726D01*
X646187Y497578D01*
Y487422D01*
X648726Y484883D01*
X653804D01*
X656343Y487422D01*
X671578Y484883D02*
X661422D01*
X671578Y495039D01*
Y497578D01*
X669039Y500118D01*
X663961D01*
X661422Y497578D01*
X676657D02*
X679196Y500118D01*
X684274D01*
X686813Y497578D01*
Y487422D01*
X684274Y484883D01*
X679196D01*
X676657Y487422D01*
Y497578D01*
X530613Y631578D02*
X528074Y634118D01*
X522995D01*
X520456Y631578D01*
Y621422D01*
X522995Y618882D01*
X528074D01*
X530613Y621422D01*
X535691Y618882D02*
X540770D01*
X538230D01*
Y634118D01*
X535691Y631578D01*
X548387Y621422D02*
X550926Y618882D01*
X556005D01*
X558544Y621422D01*
Y631578D01*
X556005Y634118D01*
X550926D01*
X548387Y631578D01*
Y629039D01*
X550926Y626500D01*
X558544D01*
X571113Y760578D02*
X568574Y763118D01*
X563495D01*
X560956Y760578D01*
Y750422D01*
X563495Y747883D01*
X568574D01*
X571113Y750422D01*
X576191Y747883D02*
X581270D01*
X578730D01*
Y763118D01*
X576191Y760578D01*
X588887D02*
X591426Y763118D01*
X596505D01*
X599044Y760578D01*
Y758039D01*
X596505Y755500D01*
X599044Y752961D01*
Y750422D01*
X596505Y747883D01*
X591426D01*
X588887Y750422D01*
Y752961D01*
X591426Y755500D01*
X588887Y758039D01*
Y760578D01*
X591426Y755500D02*
X596505D01*
X560113Y790078D02*
X557574Y792618D01*
X552495D01*
X549956Y790078D01*
Y779922D01*
X552495Y777383D01*
X557574D01*
X560113Y779922D01*
X565191Y777383D02*
X570270D01*
X567730D01*
Y792618D01*
X565191Y790078D01*
X577887Y792618D02*
X588044D01*
Y790078D01*
X577887Y779922D01*
Y777383D01*
X715613Y558578D02*
X713074Y561118D01*
X707995D01*
X705456Y558578D01*
Y548422D01*
X707995Y545882D01*
X713074D01*
X715613Y548422D01*
X720691Y545882D02*
X725770D01*
X723230D01*
Y561118D01*
X720691Y558578D01*
X743544Y561118D02*
X738465Y558578D01*
X733387Y553500D01*
Y548422D01*
X735926Y545882D01*
X741005D01*
X743544Y548422D01*
Y550961D01*
X741005Y553500D01*
X733387D01*
X934803Y600468D02*
X932264Y603008D01*
X927185D01*
X924646Y600468D01*
Y590312D01*
X927185Y587772D01*
X932264D01*
X934803Y590312D01*
X939881Y587772D02*
X944960D01*
X942420D01*
Y603008D01*
X939881Y600468D01*
X962734Y603008D02*
X952577D01*
Y595390D01*
X957655Y597929D01*
X960195D01*
X962734Y595390D01*
Y590312D01*
X960195Y587772D01*
X955116D01*
X952577Y590312D01*
X655578Y675387D02*
X658118Y677926D01*
Y683005D01*
X655578Y685544D01*
X645422D01*
X642883Y683005D01*
Y677926D01*
X645422Y675387D01*
X642883Y670309D02*
Y665230D01*
Y667770D01*
X658118D01*
X655578Y670309D01*
X642883Y649995D02*
X658118D01*
X650500Y657613D01*
Y647456D01*
X897613Y437578D02*
X895074Y440117D01*
X889995D01*
X887456Y437578D01*
Y427422D01*
X889995Y424883D01*
X895074D01*
X897613Y427422D01*
X902691Y424883D02*
X907770D01*
X905230D01*
Y440117D01*
X902691Y437578D01*
X915387D02*
X917926Y440117D01*
X923005D01*
X925544Y437578D01*
Y435039D01*
X923005Y432500D01*
X920465D01*
X923005D01*
X925544Y429961D01*
Y427422D01*
X923005Y424883D01*
X917926D01*
X915387Y427422D01*
X795922Y285613D02*
X793382Y283074D01*
Y277995D01*
X795922Y275456D01*
X806078D01*
X808617Y277995D01*
Y283074D01*
X806078Y285613D01*
X808617Y290691D02*
Y295770D01*
Y293230D01*
X793382D01*
X795922Y290691D01*
X808617Y313544D02*
Y303387D01*
X798461Y313544D01*
X795922D01*
X793382Y311005D01*
Y305926D01*
X795922Y303387D01*
X735652Y456578D02*
X733113Y459118D01*
X728035D01*
X725495Y456578D01*
Y446422D01*
X728035Y443882D01*
X733113D01*
X735652Y446422D01*
X740730Y443882D02*
X745809D01*
X743270D01*
Y459118D01*
X740730Y456578D01*
X753426Y443882D02*
X758505D01*
X755965D01*
Y459118D01*
X753426Y456578D01*
X436113Y795578D02*
X433574Y798118D01*
X428495D01*
X425956Y795578D01*
Y785422D01*
X428495Y782883D01*
X433574D01*
X436113Y785422D01*
X441191Y782883D02*
X446270D01*
X443730D01*
Y798118D01*
X441191Y795578D01*
X453887D02*
X456426Y798118D01*
X461505D01*
X464044Y795578D01*
Y785422D01*
X461505Y782883D01*
X456426D01*
X453887Y785422D01*
Y795578D01*
X313461Y611078D02*
X310922Y613618D01*
X305843D01*
X303304Y611078D01*
Y600922D01*
X305843Y598382D01*
X310922D01*
X313461Y600922D01*
X318539D02*
X321078Y598382D01*
X326157D01*
X328696Y600922D01*
Y611078D01*
X326157Y613618D01*
X321078D01*
X318539Y611078D01*
Y608539D01*
X321078Y606000D01*
X328696D01*
X313461Y812578D02*
X310922Y815117D01*
X305843D01*
X303304Y812578D01*
Y802422D01*
X305843Y799883D01*
X310922D01*
X313461Y802422D01*
X318539Y812578D02*
X321078Y815117D01*
X326157D01*
X328696Y812578D01*
Y810039D01*
X326157Y807500D01*
X328696Y804961D01*
Y802422D01*
X326157Y799883D01*
X321078D01*
X318539Y802422D01*
Y804961D01*
X321078Y807500D01*
X318539Y810039D01*
Y812578D01*
X321078Y807500D02*
X326157D01*
X113961Y612578D02*
X111422Y615117D01*
X106343D01*
X103804Y612578D01*
Y602422D01*
X106343Y599883D01*
X111422D01*
X113961Y602422D01*
X119039Y615117D02*
X129196D01*
Y612578D01*
X119039Y602422D01*
Y599883D01*
X111961Y812578D02*
X109422Y815117D01*
X104343D01*
X101804Y812578D01*
Y802422D01*
X104343Y799883D01*
X109422D01*
X111961Y802422D01*
X127196Y815117D02*
X122118Y812578D01*
X117039Y807500D01*
Y802422D01*
X119578Y799883D01*
X124657D01*
X127196Y802422D01*
Y804961D01*
X124657Y807500D01*
X117039D01*
X556922Y333461D02*
X554382Y330922D01*
Y325843D01*
X556922Y323304D01*
X567078D01*
X569618Y325843D01*
Y330922D01*
X567078Y333461D01*
X554382Y348696D02*
Y338539D01*
X562000D01*
X559461Y343618D01*
Y346157D01*
X562000Y348696D01*
X567078D01*
X569618Y346157D01*
Y341078D01*
X567078Y338539D01*
X36422Y445961D02*
X33883Y443422D01*
Y438343D01*
X36422Y435804D01*
X46578D01*
X49117Y438343D01*
Y443422D01*
X46578Y445961D01*
X49117Y458657D02*
X33883D01*
X41500Y451039D01*
Y461196D01*
X616922Y352961D02*
X614383Y350422D01*
Y345343D01*
X616922Y342804D01*
X627078D01*
X629618Y345343D01*
Y350422D01*
X627078Y352961D01*
X616922Y358039D02*
X614383Y360578D01*
Y365657D01*
X616922Y368196D01*
X619461D01*
X622000Y365657D01*
Y363117D01*
Y365657D01*
X624539Y368196D01*
X627078D01*
X629618Y365657D01*
Y360578D01*
X627078Y358039D01*
X327961Y303578D02*
X325422Y306117D01*
X320343D01*
X317804Y303578D01*
Y293422D01*
X320343Y290882D01*
X325422D01*
X327961Y293422D01*
X343196Y290882D02*
X333039D01*
X343196Y301039D01*
Y303578D01*
X340657Y306117D01*
X335578D01*
X333039Y303578D01*
X191500Y172578D02*
X188961Y175117D01*
X183883D01*
X181343Y172578D01*
Y162422D01*
X183883Y159882D01*
X188961D01*
X191500Y162422D01*
X196578Y159882D02*
X201657D01*
X199118D01*
Y175117D01*
X196578Y172578D01*
D12*
X197230Y233908D02*
G03*
X197230Y233908I-2000J0D01*
G01*
D13*
X804640Y101110D02*
G03*
X804640Y101110I-1250J0D01*
G01*
X436150Y904900D02*
G03*
X436150Y904900I-1250J0D01*
G01*
D14*
X153700Y912500D02*
G03*
X153700Y913500I0J500D01*
G01*
D02*
G03*
X153700Y912500I0J-500D01*
G01*
X685440Y657090D02*
Y707490D01*
X735440Y657490D02*
Y707490D01*
X808710Y886110D02*
X859110D01*
X808710Y936110D02*
X858710D01*
D15*
X62500Y307800D02*
Y311186D01*
Y309493D01*
X52343D01*
X54036Y307800D01*
X35500Y311571D02*
Y304800D01*
X28729Y311571D01*
X27036D01*
X25343Y309878D01*
Y306493D01*
X27036Y304800D01*
X52343Y403971D02*
Y397200D01*
X57422D01*
X55729Y400586D01*
Y402278D01*
X57422Y403971D01*
X60807D01*
X62500Y402278D01*
Y398893D01*
X60807Y397200D01*
X25343Y403971D02*
X27036Y400586D01*
X30422Y397200D01*
X33807D01*
X35500Y398893D01*
Y402278D01*
X33807Y403971D01*
X32114D01*
X30422Y402278D01*
Y397200D01*
X332500Y44000D02*
X335886D01*
X334193D01*
Y54157D01*
X332500Y52464D01*
X507700D02*
X509393Y54157D01*
X512778D01*
X514471Y52464D01*
Y50771D01*
X512778Y49078D01*
X514471Y47386D01*
Y45693D01*
X512778Y44000D01*
X509393D01*
X507700Y45693D01*
Y47386D01*
X509393Y49078D01*
X507700Y50771D01*
Y52464D01*
X509393Y49078D02*
X512778D01*
X117500Y44000D02*
X120886D01*
X119193D01*
Y54157D01*
X117500Y52464D01*
X292700D02*
X294393Y54157D01*
X297778D01*
X299471Y52464D01*
Y50771D01*
X297778Y49078D01*
X299471Y47386D01*
Y45693D01*
X297778Y44000D01*
X294393D01*
X292700Y45693D01*
Y47386D01*
X294393Y49078D01*
X292700Y50771D01*
Y52464D01*
X294393Y49078D02*
X297778D01*
D16*
X214494Y736987D02*
Y677000D01*
X184500Y706994D02*
X244487D01*
M02*
