G04*
G04 #@! TF.GenerationSoftware,Altium Limited,Altium Designer,23.1.1 (15)*
G04*
G04 Layer_Color=8388736*
%FSLAX44Y44*%
%MOMM*%
G71*
G04*
G04 #@! TF.SameCoordinates,59153929-C944-4D8D-ADD8-4EEA14B2016B*
G04*
G04*
G04 #@! TF.FilePolarity,Negative*
G04*
G01*
G75*
%ADD35R,1.4032X0.8032*%
%ADD36R,1.6032X1.4032*%
%ADD37R,1.4032X1.6032*%
%ADD38R,0.8532X1.7032*%
G04:AMPARAMS|DCode=39|XSize=1.6mm|YSize=0.7mm|CornerRadius=0mm|HoleSize=0mm|Usage=FLASHONLY|Rotation=135.000|XOffset=0mm|YOffset=0mm|HoleType=Round|Shape=Rectangle|*
%AMROTATEDRECTD39*
4,1,4,0.8132,-0.3182,0.3182,-0.8132,-0.8132,0.3182,-0.3182,0.8132,0.8132,-0.3182,0.0*
%
%ADD39ROTATEDRECTD39*%

G04:AMPARAMS|DCode=40|XSize=1.6mm|YSize=0.7mm|CornerRadius=0mm|HoleSize=0mm|Usage=FLASHONLY|Rotation=45.000|XOffset=0mm|YOffset=0mm|HoleType=Round|Shape=Rectangle|*
%AMROTATEDRECTD40*
4,1,4,-0.3182,-0.8132,-0.8132,-0.3182,0.3182,0.8132,0.8132,0.3182,-0.3182,-0.8132,0.0*
%
%ADD40ROTATEDRECTD40*%

%ADD41R,0.8532X1.7282*%
G04:AMPARAMS|DCode=42|XSize=1.6032mm|YSize=1.4032mm|CornerRadius=0mm|HoleSize=0mm|Usage=FLASHONLY|Rotation=45.000|XOffset=0mm|YOffset=0mm|HoleType=Round|Shape=Rectangle|*
%AMROTATEDRECTD42*
4,1,4,-0.0707,-1.0629,-1.0629,-0.0707,0.0707,1.0629,1.0629,0.0707,-0.0707,-1.0629,0.0*
%
%ADD42ROTATEDRECTD42*%

%ADD43R,0.7000X1.3000*%
%ADD44R,0.8532X1.3032*%
%ADD45R,2.4032X1.7532*%
%ADD46R,0.4000X1.5250*%
%ADD47R,2.0832X1.8832*%
%ADD48R,4.2032X1.7032*%
%ADD49R,1.1032X2.0032*%
%ADD50R,3.4032X2.0032*%
%ADD51R,1.3000X0.7000*%
%ADD52R,1.2532X0.7532*%
%ADD53R,1.7032X4.2032*%
%ADD54R,1.3032X1.3032*%
%ADD55C,1.3032*%
%ADD56C,1.8532*%
%ADD57R,1.8532X1.8532*%
%ADD58C,1.4032*%
%ADD59C,1.8032*%
%ADD60R,1.8032X1.8032*%
%ADD61R,1.8032X1.8032*%
%ADD62R,1.3032X1.3032*%
%ADD63C,6.2032*%
%ADD64R,1.4032X1.4032*%
%ADD65C,2.1982*%
%ADD66R,2.1982X2.1982*%
%ADD67R,2.3782X2.3782*%
%ADD68C,2.3782*%
%ADD69R,1.7032X1.7032*%
%ADD70C,1.7032*%
%ADD71C,3.2032*%
%ADD72C,0.7032*%
D35*
X569500Y140500D02*
D03*
Y131000D02*
D03*
Y121500D02*
D03*
X594500D02*
D03*
Y140500D02*
D03*
D36*
X548000Y103500D02*
D03*
Y121500D02*
D03*
X79500Y279500D02*
D03*
Y261500D02*
D03*
X57500D02*
D03*
Y279500D02*
D03*
X666500Y252000D02*
D03*
Y270000D02*
D03*
X383000Y265500D02*
D03*
Y247500D02*
D03*
X361500Y265500D02*
D03*
Y247500D02*
D03*
X502000Y252000D02*
D03*
Y270000D02*
D03*
X480500Y270000D02*
D03*
Y252000D02*
D03*
X561500Y292000D02*
D03*
Y310000D02*
D03*
X622500Y311500D02*
D03*
Y329500D02*
D03*
X801000Y263500D02*
D03*
Y245500D02*
D03*
X877500Y256500D02*
D03*
Y238500D02*
D03*
X920500Y238500D02*
D03*
Y256500D02*
D03*
X942000Y256500D02*
D03*
Y238500D02*
D03*
X890250Y392460D02*
D03*
Y410460D02*
D03*
X732500Y431000D02*
D03*
Y413000D02*
D03*
X786230Y507660D02*
D03*
Y525660D02*
D03*
X869000Y470000D02*
D03*
Y488000D02*
D03*
X931500Y700500D02*
D03*
Y682500D02*
D03*
X942960Y383460D02*
D03*
Y401460D02*
D03*
X921960Y383460D02*
D03*
Y401460D02*
D03*
X942960Y555460D02*
D03*
Y537460D02*
D03*
X942960Y518960D02*
D03*
Y500960D02*
D03*
X765500Y602500D02*
D03*
Y584500D02*
D03*
X629160Y659520D02*
D03*
Y677520D02*
D03*
X627890Y534010D02*
D03*
Y516010D02*
D03*
X607570Y516010D02*
D03*
Y534010D02*
D03*
X453500Y752000D02*
D03*
Y770000D02*
D03*
X899000Y256500D02*
D03*
Y238500D02*
D03*
X467550Y843670D02*
D03*
Y861670D02*
D03*
X489030Y843670D02*
D03*
Y861670D02*
D03*
X510620Y843670D02*
D03*
Y861670D02*
D03*
X532210Y843670D02*
D03*
Y861670D02*
D03*
X553800Y843670D02*
D03*
Y861670D02*
D03*
X575390Y843670D02*
D03*
Y861670D02*
D03*
X596980Y843670D02*
D03*
Y861670D02*
D03*
X618570Y843670D02*
D03*
Y861670D02*
D03*
X640270Y843670D02*
D03*
Y861670D02*
D03*
X661750Y843670D02*
D03*
Y861670D02*
D03*
D37*
X32000Y420000D02*
D03*
X50000D02*
D03*
X750000Y372500D02*
D03*
X732000D02*
D03*
X833000Y557000D02*
D03*
X851000D02*
D03*
X833000Y579000D02*
D03*
X851000D02*
D03*
X612650Y754880D02*
D03*
X630650D02*
D03*
X587250Y552950D02*
D03*
X569250D02*
D03*
X640480Y559300D02*
D03*
X658480D02*
D03*
X648210Y514850D02*
D03*
X666210D02*
D03*
X588630Y626610D02*
D03*
X570630D02*
D03*
X606520Y652010D02*
D03*
X588520D02*
D03*
X767560Y946670D02*
D03*
X785560D02*
D03*
D38*
X641400Y348000D02*
D03*
X654100D02*
D03*
X666800D02*
D03*
X679500D02*
D03*
X692200D02*
D03*
X704900D02*
D03*
X717600D02*
D03*
Y294000D02*
D03*
X704900D02*
D03*
X692200D02*
D03*
X679500D02*
D03*
X666800D02*
D03*
X654100D02*
D03*
X641400D02*
D03*
D39*
X204649Y247753D02*
D03*
X210306Y253410D02*
D03*
X215963Y259067D02*
D03*
X221619Y264724D02*
D03*
X227276Y270380D02*
D03*
X232933Y276037D02*
D03*
X238590Y281694D02*
D03*
X244247Y287351D02*
D03*
X304351Y227247D02*
D03*
X298694Y221590D02*
D03*
X293037Y215933D02*
D03*
X287381Y210276D02*
D03*
X281724Y204620D02*
D03*
X276067Y198963D02*
D03*
X270410Y193306D02*
D03*
X264753Y187649D02*
D03*
D40*
Y287351D02*
D03*
X270410Y281694D02*
D03*
X276067Y276037D02*
D03*
X281724Y270380D02*
D03*
X287381Y264724D02*
D03*
X293037Y259067D02*
D03*
X298694Y253410D02*
D03*
X304351Y247753D02*
D03*
X244247Y187649D02*
D03*
X238590Y193306D02*
D03*
X232933Y198963D02*
D03*
X227276Y204620D02*
D03*
X221619Y210276D02*
D03*
X215963Y215933D02*
D03*
X210306Y221590D02*
D03*
X204649Y227247D02*
D03*
D41*
X540050Y346120D02*
D03*
X527350D02*
D03*
X514650D02*
D03*
X501950D02*
D03*
Y291880D02*
D03*
X514650D02*
D03*
X527350D02*
D03*
X540050D02*
D03*
X918950Y777620D02*
D03*
X931650D02*
D03*
X944350D02*
D03*
X957050D02*
D03*
Y723380D02*
D03*
X944350D02*
D03*
X931650D02*
D03*
X918950D02*
D03*
D42*
X318364Y273136D02*
D03*
X305636Y285864D02*
D03*
X202136Y190864D02*
D03*
X214864Y178136D02*
D03*
D43*
X825960Y238540D02*
D03*
X835460D02*
D03*
X844960D02*
D03*
Y263540D02*
D03*
X825960D02*
D03*
X869000Y445500D02*
D03*
X859500D02*
D03*
X850000D02*
D03*
Y420500D02*
D03*
X869000D02*
D03*
X707500Y413000D02*
D03*
X688500D02*
D03*
Y438000D02*
D03*
X698000D02*
D03*
X707500D02*
D03*
D44*
X833000Y529500D02*
D03*
X842600Y508500D02*
D03*
X823400D02*
D03*
D45*
X633150Y721860D02*
D03*
X592150D02*
D03*
D46*
X627810Y626400D02*
D03*
X622810D02*
D03*
X617810D02*
D03*
X612810D02*
D03*
X607810D02*
D03*
Y582160D02*
D03*
X612810D02*
D03*
X617810D02*
D03*
X622810D02*
D03*
X627810D02*
D03*
D47*
X617810Y604280D02*
D03*
D48*
X710440Y664490D02*
D03*
Y700490D02*
D03*
D49*
X526150Y458180D02*
D03*
X549150D02*
D03*
X572150D02*
D03*
D50*
X549150Y518180D02*
D03*
D51*
X503000Y770000D02*
D03*
Y779500D02*
D03*
Y789000D02*
D03*
X478000D02*
D03*
Y770000D02*
D03*
D52*
X745780Y920610D02*
D03*
Y911110D02*
D03*
Y901610D02*
D03*
X771780D02*
D03*
Y911110D02*
D03*
Y920610D02*
D03*
D53*
X851710Y911110D02*
D03*
X815710D02*
D03*
D54*
X637500Y126000D02*
D03*
X943045Y647919D02*
D03*
D55*
X637500Y146000D02*
D03*
X722740Y603750D02*
D03*
X632650Y799330D02*
D03*
X943045Y627919D02*
D03*
X831490Y838720D02*
D03*
X749890Y861580D02*
D03*
D56*
X31800Y379900D02*
D03*
Y354500D02*
D03*
X57200Y379900D02*
D03*
Y354500D02*
D03*
X31800Y329100D02*
D03*
D57*
X57200D02*
D03*
D58*
X398100Y93000D02*
D03*
X423500D02*
D03*
X448900D02*
D03*
X295000Y981000D02*
D03*
D59*
X460700Y27000D02*
D03*
X409900D02*
D03*
X359100D02*
D03*
X384500D02*
D03*
X435300D02*
D03*
X486100D02*
D03*
X511500D02*
D03*
X687400D02*
D03*
X712800D02*
D03*
X738200D02*
D03*
X245700D02*
D03*
X194900D02*
D03*
X144100D02*
D03*
X169500D02*
D03*
X220300D02*
D03*
X271100D02*
D03*
X296500D02*
D03*
X573900D02*
D03*
X599300D02*
D03*
X624700D02*
D03*
X786230Y453960D02*
D03*
X853390Y53610D02*
D03*
X384900Y952400D02*
D03*
D60*
X333700Y27000D02*
D03*
X662000D02*
D03*
X118700D02*
D03*
X548500D02*
D03*
X803390Y53610D02*
D03*
X434900Y952400D02*
D03*
D61*
X786230Y479360D02*
D03*
D62*
X697740Y603750D02*
D03*
X612650Y799330D02*
D03*
X851490Y838720D02*
D03*
X729890Y861580D02*
D03*
D63*
X40000Y40000D02*
D03*
X960000D02*
D03*
X40000Y960000D02*
D03*
X960000D02*
D03*
D64*
X154000Y981000D02*
D03*
D65*
X850980Y664950D02*
D03*
Y630950D02*
D03*
X892890Y681950D02*
D03*
Y647950D02*
D03*
D66*
Y613950D02*
D03*
D67*
X153700Y930000D02*
D03*
D68*
X204500D02*
D03*
X255300D02*
D03*
X306100D02*
D03*
D69*
X278810Y606990D02*
D03*
Y807650D02*
D03*
X153080Y606990D02*
D03*
Y807650D02*
D03*
D70*
X353810Y606990D02*
D03*
Y807650D02*
D03*
X78080Y606990D02*
D03*
Y807650D02*
D03*
D71*
X803700Y647900D02*
D03*
D72*
X336046Y215040D02*
D03*
X462000Y196000D02*
D03*
X517500Y235500D02*
D03*
X346000Y203500D02*
D03*
X285230Y243080D02*
D03*
X230000Y245000D02*
D03*
X242000Y256500D02*
D03*
X529500Y229500D02*
D03*
X760000Y297500D02*
D03*
X770000D02*
D03*
X780000D02*
D03*
X760000Y307500D02*
D03*
X770000D02*
D03*
X780000D02*
D03*
Y345000D02*
D03*
X770000D02*
D03*
X760000D02*
D03*
X780000Y335000D02*
D03*
X770000D02*
D03*
X760000D02*
D03*
X462000Y252000D02*
D03*
X529500Y265000D02*
D03*
X517500D02*
D03*
X540000Y275500D02*
D03*
X645500Y319000D02*
D03*
X666500Y326500D02*
D03*
X548000Y137500D02*
D03*
X176000Y264000D02*
D03*
Y273500D02*
D03*
X400000Y247500D02*
D03*
X293500Y316500D02*
D03*
Y297500D02*
D03*
Y326000D02*
D03*
Y307000D02*
D03*
X666500Y235500D02*
D03*
X766500Y372500D02*
D03*
X515000Y319000D02*
D03*
X540000Y363000D02*
D03*
X641500Y277500D02*
D03*
X707500Y398000D02*
D03*
X869000Y406000D02*
D03*
X818000Y278000D02*
D03*
X234500Y223000D02*
D03*
X477500Y759000D02*
D03*
Y805000D02*
D03*
X636000Y599000D02*
D03*
Y609500D02*
D03*
X599000Y599000D02*
D03*
Y609500D02*
D03*
X629500D02*
D03*
Y599000D02*
D03*
X605500D02*
D03*
Y609500D02*
D03*
X623500Y599000D02*
D03*
Y609500D02*
D03*
X617500Y599000D02*
D03*
Y609500D02*
D03*
X611500Y599000D02*
D03*
Y609500D02*
D03*
X729570Y921270D02*
D03*
M02*
