G04*
G04 #@! TF.GenerationSoftware,Altium Limited,Altium Designer,23.1.1 (15)*
G04*
G04 Layer_Physical_Order=1*
G04 Layer_Color=255*
%FSLAX44Y44*%
%MOMM*%
G71*
G04*
G04 #@! TF.SameCoordinates,CD971CD2-FFAA-4849-8B14-452EF0A1BBDF*
G04*
G04*
G04 #@! TF.FilePolarity,Positive*
G04*
G01*
G75*
%ADD11C,0.2540*%
%ADD16C,1.0000*%
%ADD17R,1.2000X0.6000*%
%ADD18R,1.4000X1.2000*%
%ADD19R,1.2000X1.4000*%
%ADD20R,0.6500X1.5000*%
G04:AMPARAMS|DCode=21|XSize=1.5mm|YSize=0.6mm|CornerRadius=0mm|HoleSize=0mm|Usage=FLASHONLY|Rotation=135.000|XOffset=0mm|YOffset=0mm|HoleType=Round|Shape=Rectangle|*
%AMROTATEDRECTD21*
4,1,4,0.7425,-0.3182,0.3182,-0.7425,-0.7425,0.3182,-0.3182,0.7425,0.7425,-0.3182,0.0*
%
%ADD21ROTATEDRECTD21*%

G04:AMPARAMS|DCode=22|XSize=1.5mm|YSize=0.6mm|CornerRadius=0mm|HoleSize=0mm|Usage=FLASHONLY|Rotation=45.000|XOffset=0mm|YOffset=0mm|HoleType=Round|Shape=Rectangle|*
%AMROTATEDRECTD22*
4,1,4,-0.3182,-0.7425,-0.7425,-0.3182,0.3182,0.7425,0.7425,0.3182,-0.3182,-0.7425,0.0*
%
%ADD22ROTATEDRECTD22*%

%ADD23R,0.6500X1.5250*%
G04:AMPARAMS|DCode=24|XSize=1.4mm|YSize=1.2mm|CornerRadius=0mm|HoleSize=0mm|Usage=FLASHONLY|Rotation=45.000|XOffset=0mm|YOffset=0mm|HoleType=Round|Shape=Rectangle|*
%AMROTATEDRECTD24*
4,1,4,-0.0707,-0.9192,-0.9192,-0.0707,0.0707,0.9192,0.9192,0.0707,-0.0707,-0.9192,0.0*
%
%ADD24ROTATEDRECTD24*%

%ADD25R,0.6000X1.2000*%
%ADD26R,0.6500X1.1000*%
%ADD27R,2.2000X1.5500*%
%ADD28R,0.3000X1.4250*%
%ADD29R,1.8800X1.6800*%
%ADD30R,4.0000X1.5000*%
%ADD31R,0.9000X1.8000*%
%ADD32R,3.2000X1.8000*%
%ADD33R,1.0500X0.5500*%
%ADD34R,1.5000X4.0000*%
%ADD73C,0.5000*%
%ADD74C,1.0700*%
%ADD75C,0.9000*%
%ADD76C,0.5080*%
%ADD77R,1.1000X1.1000*%
%ADD78C,1.1000*%
%ADD79C,1.6500*%
%ADD80R,1.6500X1.6500*%
%ADD81C,1.2000*%
%ADD82C,1.6000*%
%ADD83R,1.6000X1.6000*%
%ADD84R,1.6000X1.6000*%
%ADD85R,1.1000X1.1000*%
%ADD86C,6.0000*%
%ADD87R,1.2000X1.2000*%
%ADD88C,1.9950*%
%ADD89R,1.9950X1.9950*%
%ADD90R,2.1750X2.1750*%
%ADD91C,2.1750*%
%ADD92R,1.5000X1.5000*%
%ADD93C,1.5000*%
%ADD94C,3.0000*%
%ADD95C,0.5000*%
G36*
X996950Y2540D02*
X2540D01*
Y996950D01*
X996950D01*
Y2540D01*
D02*
G37*
%LPC*%
G36*
X296270Y989501D02*
Y982270D01*
X303501D01*
X302958Y984296D01*
X301834Y986244D01*
X300244Y987834D01*
X298296Y988958D01*
X296270Y989501D01*
D02*
G37*
G36*
X293730D02*
X291704Y988958D01*
X289756Y987834D01*
X288166Y986244D01*
X287042Y984296D01*
X286499Y982270D01*
X293730D01*
Y989501D01*
D02*
G37*
G36*
X303501Y979730D02*
X296270D01*
Y972499D01*
X298296Y973042D01*
X300244Y974166D01*
X301834Y975756D01*
X302958Y977704D01*
X303501Y979730D01*
D02*
G37*
G36*
X293730D02*
X286499D01*
X287042Y977704D01*
X288166Y975756D01*
X289756Y974166D01*
X291704Y973042D01*
X293730Y972499D01*
Y979730D01*
D02*
G37*
G36*
X962561Y992540D02*
X961270D01*
Y961270D01*
X992540D01*
Y962561D01*
X991739Y967620D01*
X990156Y972491D01*
X987831Y977055D01*
X984820Y981198D01*
X981198Y984820D01*
X977055Y987831D01*
X972491Y990156D01*
X967620Y991739D01*
X962561Y992540D01*
D02*
G37*
G36*
X958730D02*
X957439D01*
X952380Y991739D01*
X947509Y990156D01*
X942945Y987831D01*
X938802Y984820D01*
X935180Y981198D01*
X932169Y977055D01*
X929844Y972491D01*
X928261Y967620D01*
X927460Y962561D01*
Y961270D01*
X958730D01*
Y992540D01*
D02*
G37*
G36*
X42561D02*
X41270D01*
Y961270D01*
X72540D01*
Y962561D01*
X71739Y967620D01*
X70156Y972491D01*
X67831Y977055D01*
X64820Y981198D01*
X61198Y984820D01*
X57055Y987831D01*
X52491Y990156D01*
X47620Y991739D01*
X42561Y992540D01*
D02*
G37*
G36*
X38730D02*
X37439D01*
X32380Y991739D01*
X27509Y990156D01*
X22945Y987831D01*
X18802Y984820D01*
X15180Y981198D01*
X12169Y977055D01*
X9844Y972491D01*
X8261Y967620D01*
X7460Y962561D01*
Y961270D01*
X38730D01*
Y992540D01*
D02*
G37*
G36*
X307866Y943415D02*
X307370D01*
Y931270D01*
X319515D01*
Y931766D01*
X318601Y935178D01*
X316835Y938237D01*
X314337Y940735D01*
X311278Y942501D01*
X307866Y943415D01*
D02*
G37*
G36*
X304830D02*
X304334D01*
X300922Y942501D01*
X297863Y940735D01*
X295365Y938237D01*
X293599Y935178D01*
X292685Y931766D01*
Y931270D01*
X304830D01*
Y943415D01*
D02*
G37*
G36*
X376800Y965639D02*
X235000D01*
X233034Y965248D01*
X231366Y964134D01*
X209713Y942480D01*
X209678Y942501D01*
X206266Y943415D01*
X202734D01*
X199322Y942501D01*
X196263Y940735D01*
X193765Y938237D01*
X191999Y935178D01*
X191085Y931766D01*
Y928234D01*
X191999Y924822D01*
X193765Y921763D01*
X196263Y919265D01*
X199322Y917499D01*
X202734Y916585D01*
X206266D01*
X209678Y917499D01*
X212737Y919265D01*
X215235Y921763D01*
X217001Y924822D01*
X217915Y928234D01*
Y931766D01*
X217001Y935178D01*
X216980Y935213D01*
X237129Y955361D01*
X271966D01*
X272351Y954091D01*
X271666Y953634D01*
X260513Y942480D01*
X260478Y942501D01*
X257066Y943415D01*
X253534D01*
X250122Y942501D01*
X247063Y940735D01*
X244565Y938237D01*
X242799Y935178D01*
X241885Y931766D01*
Y928234D01*
X242799Y924822D01*
X244565Y921763D01*
X247063Y919265D01*
X250122Y917499D01*
X253534Y916585D01*
X257066D01*
X260478Y917499D01*
X263537Y919265D01*
X266035Y921763D01*
X267801Y924822D01*
X268715Y928234D01*
Y931766D01*
X267801Y935178D01*
X267780Y935213D01*
X277429Y944861D01*
X331871D01*
X345366Y931366D01*
X347034Y930252D01*
X349000Y929861D01*
X417500D01*
X419467Y930252D01*
X421134Y931366D01*
X431627Y941860D01*
X445440D01*
Y962940D01*
X424360D01*
Y949127D01*
X415372Y940139D01*
X351129D01*
X337634Y953634D01*
X336949Y954091D01*
X337334Y955361D01*
X373467D01*
X374441Y954091D01*
X374360Y953788D01*
Y951012D01*
X375078Y948332D01*
X376466Y945928D01*
X378428Y943966D01*
X380832Y942578D01*
X383512Y941860D01*
X386288D01*
X388968Y942578D01*
X391372Y943966D01*
X393334Y945928D01*
X394722Y948332D01*
X395440Y951012D01*
Y953788D01*
X394722Y956468D01*
X393334Y958872D01*
X391372Y960834D01*
X388968Y962222D01*
X386288Y962940D01*
X383512D01*
X382026Y962542D01*
X380434Y964134D01*
X378767Y965248D01*
X376800Y965639D01*
D02*
G37*
G36*
X992540Y958730D02*
X961270D01*
Y927460D01*
X962561D01*
X967620Y928261D01*
X972491Y929844D01*
X977055Y932169D01*
X981198Y935180D01*
X984820Y938802D01*
X987831Y942945D01*
X990156Y947509D01*
X991739Y952380D01*
X992540Y957439D01*
Y958730D01*
D02*
G37*
G36*
X958730D02*
X927460D01*
Y957439D01*
X928261Y952380D01*
X929844Y947509D01*
X932169Y942945D01*
X935180Y938802D01*
X938802Y935180D01*
X942945Y932169D01*
X947509Y929844D01*
X952380Y928261D01*
X957439Y927460D01*
X958730D01*
Y958730D01*
D02*
G37*
G36*
X72540D02*
X41270D01*
Y927460D01*
X42561D01*
X47620Y928261D01*
X52491Y929844D01*
X57055Y932169D01*
X61198Y935180D01*
X64820Y938802D01*
X67831Y942945D01*
X70156Y947509D01*
X71739Y952380D01*
X72540Y957439D01*
Y958730D01*
D02*
G37*
G36*
X38730D02*
X7460D01*
Y957439D01*
X8261Y952380D01*
X9844Y947509D01*
X12169Y942945D01*
X15180Y938802D01*
X18802Y935180D01*
X22945Y932169D01*
X27509Y929844D01*
X32380Y928261D01*
X37439Y927460D01*
X38730D01*
Y958730D01*
D02*
G37*
G36*
X319515Y928730D02*
X307370D01*
Y916585D01*
X307866D01*
X311278Y917499D01*
X314337Y919265D01*
X316835Y921763D01*
X318601Y924822D01*
X319515Y928234D01*
Y928730D01*
D02*
G37*
G36*
X304830D02*
X292685D01*
Y928234D01*
X293599Y924822D01*
X295365Y921763D01*
X297863Y919265D01*
X300922Y917499D01*
X304334Y916585D01*
X304830D01*
Y928730D01*
D02*
G37*
G36*
X767670Y900340D02*
X763990D01*
Y896320D01*
X767670D01*
Y900340D01*
D02*
G37*
G36*
X776100Y956210D02*
Y956210D01*
X775787Y956210D01*
X759020D01*
Y937130D01*
X763675D01*
Y934080D01*
X763971Y932593D01*
X764813Y931333D01*
X767895Y928251D01*
Y925900D01*
X763990D01*
Y915320D01*
Y905820D01*
Y902880D01*
X767670D01*
Y903490D01*
X779570D01*
Y905930D01*
X805670D01*
Y888570D01*
X825750D01*
Y933650D01*
X824870D01*
Y953020D01*
X824673Y954011D01*
X824111Y954851D01*
X823271Y955413D01*
X822280Y955610D01*
X794100D01*
Y956210D01*
X777333D01*
X777020Y956210D01*
Y956210D01*
X776100D01*
D02*
G37*
G36*
X748620Y869563D02*
X746787Y869072D01*
X744953Y868014D01*
X743456Y866517D01*
X742398Y864683D01*
X741907Y862850D01*
X742270D01*
X748620Y869200D01*
Y869563D01*
D02*
G37*
G36*
X162540Y989540D02*
X145460D01*
Y972460D01*
X146395D01*
Y943415D01*
X140285D01*
Y916585D01*
X146095D01*
Y817690D01*
X143040D01*
Y797610D01*
X143040D01*
X143869Y796779D01*
X143450Y617030D01*
X143040D01*
Y596950D01*
X163120D01*
Y597410D01*
X268770D01*
Y596950D01*
X288850D01*
Y617030D01*
X288590D01*
Y797610D01*
X288850D01*
Y814187D01*
X328073Y853410D01*
X443615D01*
Y835500D01*
X443911Y834013D01*
X444753Y832753D01*
X451753Y825753D01*
X453013Y824911D01*
X454500Y824615D01*
X474391D01*
X499115Y799891D01*
Y794540D01*
X494460D01*
Y783460D01*
Y780770D01*
X503000D01*
X511540D01*
Y783460D01*
Y794540D01*
X506885D01*
Y801500D01*
X506589Y802987D01*
X505747Y804247D01*
X478747Y831247D01*
X477487Y832089D01*
X476000Y832385D01*
X456109D01*
X451385Y837109D01*
Y853410D01*
X457842D01*
X458010Y852210D01*
X458010Y851860D01*
Y835130D01*
X477090D01*
Y836110D01*
X479490D01*
Y835130D01*
X498570D01*
Y836110D01*
X501080D01*
Y835130D01*
X520160D01*
Y836110D01*
X522670D01*
Y835130D01*
X541750D01*
Y836110D01*
X544260D01*
Y835130D01*
X563340D01*
Y836110D01*
X565850D01*
Y835130D01*
X584930D01*
Y836110D01*
X587440D01*
Y835130D01*
X604980D01*
Y807370D01*
X604610D01*
Y791290D01*
X604980D01*
Y764420D01*
X604110D01*
Y745340D01*
X604980D01*
Y732150D01*
X593420D01*
Y721860D01*
Y711570D01*
X604980D01*
Y677897D01*
X603924Y677191D01*
X603493Y677370D01*
X601488D01*
X599635Y676603D01*
X598217Y675185D01*
X597450Y673333D01*
Y671328D01*
X598217Y669475D01*
X599635Y668057D01*
X601488Y667290D01*
X603493D01*
X603924Y667469D01*
X604980Y666763D01*
Y661550D01*
X597980D01*
Y661550D01*
X597060D01*
Y661550D01*
X579980D01*
Y642470D01*
X580850D01*
Y636910D01*
X580090Y636150D01*
X579170D01*
X578820Y636150D01*
X571900D01*
Y626610D01*
Y617070D01*
X578820D01*
X579170Y617070D01*
X580090D01*
X580440Y617070D01*
X597170D01*
Y617670D01*
X603770D01*
Y616735D01*
X631850D01*
Y631880D01*
X631925Y632255D01*
Y637185D01*
X632154Y637414D01*
X632702D01*
X634555Y638182D01*
X635973Y639599D01*
X636740Y641452D01*
Y643457D01*
X635973Y645309D01*
X634555Y646727D01*
X632702Y647494D01*
X631373D01*
X630847Y648764D01*
X633063Y650980D01*
X638700D01*
Y668060D01*
X638700D01*
Y668980D01*
X638700D01*
Y682018D01*
X648013Y691330D01*
X687900D01*
Y690450D01*
X732980D01*
Y710530D01*
X687900D01*
Y709210D01*
X665793D01*
X646690Y728313D01*
Y732150D01*
X620320D01*
Y744470D01*
X621190Y745340D01*
X622110D01*
X622460Y745340D01*
X629380D01*
Y754880D01*
Y764420D01*
X622460D01*
X622110Y764420D01*
X621190D01*
X620320Y765475D01*
Y791290D01*
X620690D01*
Y807370D01*
X620320D01*
Y835130D01*
X628110D01*
Y836110D01*
X630730D01*
Y835130D01*
X649810D01*
Y836110D01*
X652210D01*
Y835130D01*
X671290D01*
Y851860D01*
X671290Y852210D01*
X671459Y853410D01*
X735000D01*
X735652Y853540D01*
X737930D01*
Y869620D01*
X737590D01*
Y881927D01*
X751982Y896320D01*
X753570D01*
Y898901D01*
X753590Y899000D01*
Y913500D01*
X753570Y913599D01*
Y925900D01*
X737990D01*
Y924825D01*
X733143D01*
X732425Y925543D01*
X730573Y926310D01*
X728568D01*
X726715Y925543D01*
X725297Y924125D01*
X724530Y922272D01*
Y920267D01*
X725297Y918415D01*
X726715Y916997D01*
X728568Y916230D01*
X730573D01*
X732425Y916997D01*
X732483Y917055D01*
X737990D01*
Y914153D01*
X718927Y895090D01*
X161305D01*
Y916585D01*
X167115D01*
Y943415D01*
X161605D01*
Y972460D01*
X162540D01*
Y989540D01*
D02*
G37*
G36*
X861750Y933650D02*
X841670D01*
Y888570D01*
X842550D01*
Y846340D01*
X842747Y845349D01*
X843309Y844509D01*
X843450Y844368D01*
Y830680D01*
X859530D01*
Y844368D01*
X860941Y845779D01*
X861503Y846619D01*
X861700Y847610D01*
Y888570D01*
X861750D01*
Y933650D01*
D02*
G37*
G36*
X79402Y817690D02*
X79350D01*
Y808920D01*
X88120D01*
Y808972D01*
X87436Y811525D01*
X86114Y813815D01*
X84245Y815684D01*
X81955Y817006D01*
X79402Y817690D01*
D02*
G37*
G36*
X355132D02*
X355080D01*
Y808920D01*
X363850D01*
Y808972D01*
X363166Y811525D01*
X361844Y813815D01*
X359975Y815684D01*
X357685Y817006D01*
X355132Y817690D01*
D02*
G37*
G36*
X352540D02*
X352488D01*
X349935Y817006D01*
X347645Y815684D01*
X345776Y813815D01*
X344454Y811525D01*
X343770Y808972D01*
Y808920D01*
X352540D01*
Y817690D01*
D02*
G37*
G36*
X76810D02*
X76758D01*
X74205Y817006D01*
X71915Y815684D01*
X70046Y813815D01*
X68724Y811525D01*
X68040Y808972D01*
Y808920D01*
X76810D01*
Y817690D01*
D02*
G37*
G36*
X633920Y807313D02*
Y800600D01*
X640633D01*
X640142Y802433D01*
X639084Y804267D01*
X637587Y805764D01*
X635753Y806822D01*
X633920Y807313D01*
D02*
G37*
G36*
X631380D02*
X629547Y806822D01*
X627713Y805764D01*
X626216Y804267D01*
X625158Y802433D01*
X624667Y800600D01*
X631380D01*
Y807313D01*
D02*
G37*
G36*
X363850Y806380D02*
X355080D01*
Y797610D01*
X355132D01*
X357685Y798294D01*
X359975Y799616D01*
X361844Y801485D01*
X363166Y803775D01*
X363850Y806328D01*
Y806380D01*
D02*
G37*
G36*
X352540D02*
X343770D01*
Y806328D01*
X344454Y803775D01*
X345776Y801485D01*
X347645Y799616D01*
X349935Y798294D01*
X352488Y797610D01*
X352540D01*
Y806380D01*
D02*
G37*
G36*
X88120D02*
X79350D01*
Y797610D01*
X79402D01*
X81955Y798294D01*
X84245Y799616D01*
X86114Y801485D01*
X87436Y803775D01*
X88120Y806328D01*
Y806380D01*
D02*
G37*
G36*
X76810D02*
X68040D01*
Y806328D01*
X68724Y803775D01*
X70046Y801485D01*
X71915Y799616D01*
X74205Y798294D01*
X76758Y797610D01*
X76810D01*
Y806380D01*
D02*
G37*
G36*
X640633Y798060D02*
X633920D01*
Y791347D01*
X635753Y791838D01*
X637587Y792896D01*
X639084Y794393D01*
X640142Y796227D01*
X640633Y798060D01*
D02*
G37*
G36*
X631380D02*
X624667D01*
X625158Y796227D01*
X626216Y794393D01*
X627713Y792896D01*
X629547Y791838D01*
X631380Y791347D01*
Y798060D01*
D02*
G37*
G36*
X951260Y787785D02*
X950140D01*
X949990Y787785D01*
X938710D01*
X938560Y787785D01*
X937440D01*
X937290Y787785D01*
X926010D01*
X925860Y787785D01*
X924740D01*
X924590Y787785D01*
X913160D01*
Y767455D01*
X924590D01*
X924740Y767455D01*
X925860D01*
X926010Y767455D01*
X937290D01*
X937440Y767455D01*
X938560D01*
X938710Y767455D01*
X949990D01*
X950140Y767455D01*
X951260D01*
X951410Y767455D01*
X962840D01*
Y787785D01*
X951410D01*
X951260Y787785D01*
D02*
G37*
G36*
X478503Y810040D02*
X476497D01*
X474645Y809273D01*
X473227Y807855D01*
X472460Y806003D01*
Y803997D01*
X473227Y802145D01*
X473615Y801757D01*
Y794540D01*
X469460D01*
Y783460D01*
X486540D01*
Y794540D01*
X481385D01*
Y801757D01*
X481773Y802145D01*
X482540Y803997D01*
Y806003D01*
X481773Y807855D01*
X480355Y809273D01*
X478503Y810040D01*
D02*
G37*
G36*
X631920Y764420D02*
Y756150D01*
X639190D01*
Y764420D01*
X631920D01*
D02*
G37*
G36*
X463040Y778540D02*
X443960D01*
Y761810D01*
X443960Y761460D01*
Y760540D01*
X443960Y760190D01*
Y753270D01*
X453500D01*
X463040D01*
Y760190D01*
X463040Y760540D01*
Y761460D01*
X463040Y761810D01*
Y766115D01*
X469460D01*
Y764460D01*
X473615D01*
Y762243D01*
X473227Y761855D01*
X472460Y760003D01*
Y757998D01*
X473227Y756145D01*
X474645Y754727D01*
X476497Y753960D01*
X478503D01*
X480355Y754727D01*
X481773Y756145D01*
X482540Y757998D01*
Y760003D01*
X481773Y761855D01*
X481385Y762243D01*
Y764460D01*
X486540D01*
Y775540D01*
X469460D01*
Y773885D01*
X463040D01*
Y778540D01*
D02*
G37*
G36*
X639190Y753610D02*
X631920D01*
Y745340D01*
X639190D01*
Y753610D01*
D02*
G37*
G36*
X463040Y750730D02*
X454770D01*
Y743460D01*
X463040D01*
Y750730D01*
D02*
G37*
G36*
X452230D02*
X443960D01*
Y743460D01*
X452230D01*
Y750730D01*
D02*
G37*
G36*
X937440Y733545D02*
Y733545D01*
X926010D01*
X925860Y733545D01*
X924740D01*
X924590Y733545D01*
X920220D01*
Y723380D01*
Y713215D01*
X924590D01*
X924740Y713215D01*
X925860D01*
X926010Y713215D01*
X927765D01*
Y709040D01*
X921960D01*
Y691960D01*
X921960D01*
Y691040D01*
X921960D01*
Y683770D01*
X931500D01*
Y682500D01*
X932770D01*
Y673960D01*
X940465D01*
Y655959D01*
X935005D01*
Y655555D01*
X902950D01*
X902905Y655634D01*
X900574Y657964D01*
X897721Y659612D01*
X894538Y660465D01*
X891242D01*
X888059Y659612D01*
X885206Y657964D01*
X882876Y655634D01*
X881228Y652781D01*
X880974Y651835D01*
X855294D01*
X855127Y653105D01*
X855811Y653288D01*
X858664Y654936D01*
X860994Y657266D01*
X862642Y660119D01*
X863495Y663302D01*
Y665211D01*
X871076Y672792D01*
X884349D01*
X885206Y671936D01*
X888059Y670288D01*
X891242Y669435D01*
X894538D01*
X897721Y670288D01*
X900574Y671936D01*
X902905Y674266D01*
X904552Y677119D01*
X905405Y680302D01*
Y683598D01*
X904552Y686781D01*
X902905Y689634D01*
X900574Y691964D01*
X897721Y693612D01*
X894538Y694465D01*
X891242D01*
X888059Y693612D01*
X885206Y691964D01*
X882876Y689634D01*
X882341Y688708D01*
X867780D01*
X867780Y688708D01*
X865720Y688437D01*
X863801Y687642D01*
X862153Y686377D01*
X853111Y677336D01*
X852628Y677465D01*
X849332D01*
X846149Y676612D01*
X843296Y674965D01*
X840965Y672634D01*
X840510Y671845D01*
X827460D01*
X820798Y678508D01*
X819222Y679716D01*
X817388Y680476D01*
X815420Y680735D01*
X791290D01*
X789322Y680476D01*
X787487Y679716D01*
X785912Y678508D01*
X779250Y671845D01*
X732980D01*
Y674530D01*
X687900D01*
Y654450D01*
X690070D01*
Y611790D01*
X689700D01*
Y595710D01*
X692601D01*
Y518869D01*
X671871Y498139D01*
X612709D01*
Y507470D01*
X617080D01*
X617110Y507470D01*
X618350Y507470D01*
X618380Y507470D01*
X637430D01*
Y508450D01*
X639670D01*
Y505310D01*
X656400D01*
X656750Y505310D01*
X657670D01*
X658020Y505310D01*
X664940D01*
Y514850D01*
Y524390D01*
X658020D01*
X657670Y524390D01*
X656750D01*
X656400Y524390D01*
X639670D01*
Y523790D01*
X638190D01*
X637430Y524550D01*
Y525470D01*
X637430Y525820D01*
Y542550D01*
X636830D01*
Y548701D01*
X637843Y549760D01*
X648670D01*
X649020Y549760D01*
X649940D01*
X650290Y549760D01*
X657210D01*
Y559300D01*
Y568840D01*
X650290D01*
X649940Y568840D01*
X649020D01*
X648670Y568840D01*
X631940D01*
X631750Y570031D01*
Y572495D01*
X631850D01*
Y591825D01*
X608769D01*
Y582160D01*
Y572495D01*
X613870D01*
Y565453D01*
X610307Y561890D01*
X595790D01*
Y562490D01*
X579060D01*
X578710Y562490D01*
X577790D01*
X577440Y562490D01*
X570520D01*
Y552950D01*
Y543410D01*
X577440D01*
X577790Y543410D01*
X578710D01*
X579645Y542382D01*
Y530700D01*
X575210Y526265D01*
X567690D01*
Y529720D01*
X530610D01*
Y506640D01*
X542049D01*
Y458180D01*
X542110Y457719D01*
Y447155D01*
X542110Y446640D01*
X541153Y445885D01*
X534147D01*
X533190Y446640D01*
Y469720D01*
X519110D01*
Y446640D01*
X522265D01*
Y445350D01*
X522561Y443863D01*
X523403Y442603D01*
X526753Y439253D01*
X528013Y438411D01*
X529500Y438115D01*
X588000D01*
X589487Y438411D01*
X590747Y439253D01*
X627609Y476115D01*
X675000D01*
X676487Y476411D01*
X677747Y477253D01*
X768247Y567753D01*
X769089Y569013D01*
X769385Y570500D01*
Y575960D01*
X775040D01*
Y592690D01*
X775040Y593040D01*
Y593960D01*
X775040Y594310D01*
Y598615D01*
X794000D01*
X795487Y598911D01*
X796747Y599753D01*
X841059Y644065D01*
X846666D01*
X846833Y642795D01*
X846149Y642612D01*
X843296Y640965D01*
X840965Y638634D01*
X839318Y635781D01*
X838465Y632598D01*
Y629302D01*
X839318Y626119D01*
X840965Y623266D01*
X843296Y620936D01*
X846149Y619288D01*
X847095Y619034D01*
Y588540D01*
X842810D01*
X842460Y588540D01*
X841540D01*
X841190Y588540D01*
X834270D01*
Y579000D01*
Y569460D01*
X841190D01*
X841540Y569460D01*
X842460D01*
X842810Y569460D01*
X847115D01*
Y566540D01*
X842810D01*
X842460Y566540D01*
X841540D01*
X841190Y566540D01*
X824460D01*
Y547460D01*
X829115D01*
Y537540D01*
X827210D01*
Y521460D01*
X838790D01*
Y525615D01*
X861391D01*
X865115Y521891D01*
Y496540D01*
X859460D01*
Y479810D01*
X859460Y479460D01*
Y478540D01*
X859460Y478190D01*
Y461460D01*
X865115D01*
Y454040D01*
X860770D01*
Y445500D01*
X858230D01*
Y454040D01*
X844460D01*
Y449385D01*
X838500D01*
X837013Y449089D01*
X835753Y448247D01*
X825391Y437885D01*
X777000D01*
X775513Y437589D01*
X774253Y436747D01*
X743213Y405707D01*
X742040Y406193D01*
Y421190D01*
X742040Y421540D01*
Y422460D01*
X742040Y422810D01*
Y429730D01*
X722960D01*
Y422810D01*
X722960Y422460D01*
Y421540D01*
X722960Y421190D01*
Y416885D01*
X713040D01*
Y421540D01*
X701960D01*
Y404460D01*
X703615D01*
Y401243D01*
X703227Y400855D01*
X702460Y399002D01*
Y396997D01*
X703227Y395145D01*
X704645Y393727D01*
X706497Y392960D01*
X708503D01*
X710355Y393727D01*
X711773Y395145D01*
X712540Y396997D01*
Y399002D01*
X711773Y400855D01*
X711385Y401243D01*
Y404460D01*
X713040D01*
Y409115D01*
X722960D01*
Y404460D01*
X729283D01*
X729681Y403433D01*
X729696Y403190D01*
X689453Y362947D01*
X688611Y361687D01*
X688315Y360200D01*
Y358040D01*
X686560D01*
X686410Y358040D01*
X685290D01*
X685140Y358040D01*
X673860D01*
X673710Y358040D01*
X672590D01*
X672440Y358040D01*
X668070D01*
Y348000D01*
X665530D01*
Y358040D01*
X661160D01*
X661010Y358040D01*
X659890D01*
X659740Y358040D01*
X648830D01*
X648299Y359305D01*
X690925Y401931D01*
X691767Y403191D01*
X692019Y404460D01*
X694040D01*
Y421540D01*
X682960D01*
Y404954D01*
X638753Y360747D01*
X637911Y359487D01*
X637623Y358040D01*
X635610D01*
Y337960D01*
X647040D01*
X647190Y337960D01*
X648310D01*
X648460Y337960D01*
X650115D01*
Y335488D01*
X650411Y334001D01*
X651253Y332741D01*
X652741Y331253D01*
X654001Y330411D01*
X655488Y330115D01*
X661272D01*
X661371Y330037D01*
X662016Y328845D01*
X661460Y327503D01*
Y325498D01*
X662016Y324155D01*
X661328Y322885D01*
X648743D01*
X648355Y323273D01*
X646503Y324040D01*
X644498D01*
X642645Y323273D01*
X641227Y321855D01*
X640460Y320003D01*
Y317997D01*
X641227Y316145D01*
X642645Y314727D01*
X644498Y313960D01*
X646503D01*
X648355Y314727D01*
X648743Y315115D01*
X808891D01*
X841115Y282891D01*
Y272080D01*
X839420D01*
Y255414D01*
X838891Y254885D01*
X832722D01*
X831500Y255000D01*
X831500Y256155D01*
Y272080D01*
X829527D01*
X828747Y273247D01*
X823040Y278954D01*
Y279002D01*
X822273Y280855D01*
X820855Y282273D01*
X819003Y283040D01*
X816998D01*
X815145Y282273D01*
X813727Y280855D01*
X812960Y279002D01*
Y276998D01*
X813727Y275145D01*
X815145Y273727D01*
X816998Y272960D01*
X818046D01*
X820420Y270586D01*
Y267385D01*
X810540D01*
Y272040D01*
X791460D01*
Y255310D01*
X791460Y254960D01*
Y254040D01*
X791460Y253690D01*
Y246770D01*
X801000D01*
X810540D01*
Y253690D01*
X810540Y254040D01*
Y254960D01*
X810540Y255310D01*
Y259615D01*
X820420D01*
Y255000D01*
X826843D01*
X827235Y253803D01*
X827236Y253730D01*
X823213Y249707D01*
X822371Y248447D01*
X822099Y247080D01*
X820420D01*
Y230000D01*
X834190D01*
Y238540D01*
X836730D01*
Y230000D01*
X850500D01*
Y234655D01*
X867960D01*
Y229960D01*
X887040D01*
Y234615D01*
X889460D01*
Y229960D01*
X908540D01*
Y234615D01*
X910960D01*
Y229960D01*
X930040D01*
Y246690D01*
X930040Y247040D01*
Y247960D01*
X930040Y248310D01*
Y252615D01*
X932460D01*
Y248310D01*
X932460Y247960D01*
Y247040D01*
X932460Y246690D01*
Y229960D01*
X951540D01*
Y234615D01*
X967395D01*
Y178370D01*
X853175Y64150D01*
X852002D01*
X849322Y63432D01*
X846918Y62044D01*
X844956Y60082D01*
X843568Y57678D01*
X842850Y54998D01*
Y52222D01*
X843568Y49542D01*
X844956Y47138D01*
X846918Y45176D01*
X849322Y43788D01*
X852002Y43070D01*
X854778D01*
X857458Y43788D01*
X859862Y45176D01*
X861824Y47138D01*
X863212Y49542D01*
X863930Y52222D01*
Y53395D01*
X980378Y169842D01*
X981586Y171418D01*
X981901Y172177D01*
X982346Y173252D01*
X982605Y175220D01*
Y238500D01*
Y633338D01*
X982346Y635307D01*
X981586Y637141D01*
X980378Y638716D01*
X965797Y653297D01*
X964222Y654505D01*
X962387Y655265D01*
X960419Y655524D01*
X951085D01*
Y655959D01*
X948235D01*
Y713215D01*
X949990D01*
X950140Y713215D01*
X951260D01*
X951410Y713215D01*
X962840D01*
Y733545D01*
X951410D01*
X951260Y733545D01*
X950140D01*
X949990Y733545D01*
X938560D01*
Y733545D01*
X937440D01*
D02*
G37*
G36*
X917680Y733545D02*
X913160D01*
Y724650D01*
X917680D01*
Y733545D01*
D02*
G37*
G36*
X590880Y732150D02*
X578610D01*
Y723130D01*
X590880D01*
Y732150D01*
D02*
G37*
G36*
X917680Y722110D02*
X913160D01*
Y713215D01*
X917680D01*
Y722110D01*
D02*
G37*
G36*
X590880Y720590D02*
X578610D01*
Y711570D01*
X590880D01*
Y720590D01*
D02*
G37*
G36*
X930230Y681230D02*
X921960D01*
Y673960D01*
X930230D01*
Y681230D01*
D02*
G37*
G36*
X569360Y636150D02*
X562090D01*
Y627880D01*
X569360D01*
Y636150D01*
D02*
G37*
G36*
Y625340D02*
X562090D01*
Y617070D01*
X569360D01*
Y625340D01*
D02*
G37*
G36*
X637270Y614429D02*
Y610770D01*
X640929D01*
X640273Y612355D01*
X638855Y613773D01*
X637270Y614429D01*
D02*
G37*
G36*
X597730D02*
X596145Y613773D01*
X594727Y612355D01*
X594071Y610770D01*
X597730D01*
Y614429D01*
D02*
G37*
G36*
X616540Y615220D02*
X606770D01*
Y609500D01*
X604230D01*
Y614429D01*
X602645Y613773D01*
X602250Y613378D01*
X601855Y613773D01*
X600270Y614429D01*
Y609500D01*
X599000D01*
Y608230D01*
X594071D01*
X594727Y606645D01*
X596145Y605227D01*
X596845Y604937D01*
Y603563D01*
X596145Y603273D01*
X594727Y601855D01*
X594071Y600270D01*
X599000D01*
Y599000D01*
X600270D01*
Y594071D01*
X601855Y594727D01*
X602250Y595122D01*
X602645Y594727D01*
X604230Y594071D01*
Y599000D01*
X606770D01*
Y593340D01*
X616540D01*
Y604280D01*
Y615220D01*
D02*
G37*
G36*
X79402Y617030D02*
X79350D01*
Y608260D01*
X88120D01*
Y608312D01*
X87436Y610865D01*
X86114Y613155D01*
X84245Y615024D01*
X81955Y616346D01*
X79402Y617030D01*
D02*
G37*
G36*
X355132D02*
X355080D01*
Y608260D01*
X363850D01*
Y608312D01*
X363166Y610865D01*
X361844Y613155D01*
X359975Y615024D01*
X357685Y616346D01*
X355132Y617030D01*
D02*
G37*
G36*
X352540D02*
X352488D01*
X349935Y616346D01*
X347645Y615024D01*
X345776Y613155D01*
X344454Y610865D01*
X343770Y608312D01*
Y608260D01*
X352540D01*
Y617030D01*
D02*
G37*
G36*
X76810D02*
X76758D01*
X74205Y616346D01*
X71915Y615024D01*
X70046Y613155D01*
X68724Y610865D01*
X68040Y608312D01*
Y608260D01*
X76810D01*
Y617030D01*
D02*
G37*
G36*
X363850Y605720D02*
X355080D01*
Y596950D01*
X355132D01*
X357685Y597634D01*
X359975Y598956D01*
X361844Y600825D01*
X363166Y603115D01*
X363850Y605668D01*
Y605720D01*
D02*
G37*
G36*
X352540D02*
X343770D01*
Y605668D01*
X344454Y603115D01*
X345776Y600825D01*
X347645Y598956D01*
X349935Y597634D01*
X352488Y596950D01*
X352540D01*
Y605720D01*
D02*
G37*
G36*
X88120D02*
X79350D01*
Y596950D01*
X79402D01*
X81955Y597634D01*
X84245Y598956D01*
X86114Y600825D01*
X87436Y603115D01*
X88120Y605668D01*
Y605720D01*
D02*
G37*
G36*
X76810D02*
X68040D01*
Y605668D01*
X68724Y603115D01*
X70046Y600825D01*
X71915Y598956D01*
X74205Y597634D01*
X76758Y596950D01*
X76810D01*
Y605720D01*
D02*
G37*
G36*
X640929Y597730D02*
X637270D01*
Y594071D01*
X638855Y594727D01*
X640273Y596145D01*
X640929Y597730D01*
D02*
G37*
G36*
X629750Y615220D02*
X619080D01*
Y604280D01*
Y593340D01*
X629750D01*
Y593960D01*
X630503D01*
X632355Y594727D01*
X632750Y595122D01*
X633145Y594727D01*
X634730Y594071D01*
Y599000D01*
X636000D01*
Y600270D01*
X640929D01*
X640273Y601855D01*
X638855Y603273D01*
X638155Y603563D01*
Y604937D01*
X638855Y605227D01*
X640273Y606645D01*
X640929Y608230D01*
X636000D01*
Y609500D01*
X634730D01*
Y614429D01*
X633145Y613773D01*
X632750Y613378D01*
X632355Y613773D01*
X630503Y614540D01*
X629750D01*
Y615220D01*
D02*
G37*
G36*
X597730Y597730D02*
X594071D01*
X594727Y596145D01*
X596145Y594727D01*
X597730Y594071D01*
Y597730D01*
D02*
G37*
G36*
X606540Y591825D02*
X603770D01*
Y583430D01*
X606540D01*
Y591825D01*
D02*
G37*
G36*
X831730Y588540D02*
X824460D01*
Y580270D01*
X831730D01*
Y588540D01*
D02*
G37*
G36*
X606540Y580890D02*
X603770D01*
Y572495D01*
X606540D01*
Y580890D01*
D02*
G37*
G36*
X831730Y577730D02*
X824460D01*
Y569460D01*
X831730D01*
Y577730D01*
D02*
G37*
G36*
X659750Y568840D02*
Y560570D01*
X667020D01*
Y568840D01*
X659750D01*
D02*
G37*
G36*
X567980Y562490D02*
X560710D01*
Y554220D01*
X567980D01*
Y562490D01*
D02*
G37*
G36*
X667020Y558030D02*
X659750D01*
Y549760D01*
X667020D01*
Y558030D01*
D02*
G37*
G36*
X567980Y551680D02*
X560710D01*
Y543410D01*
X567980D01*
Y551680D01*
D02*
G37*
G36*
X667480Y524390D02*
Y516120D01*
X674750D01*
Y524390D01*
X667480D01*
D02*
G37*
G36*
X848390Y516540D02*
X843870D01*
Y509770D01*
X848390D01*
Y516540D01*
D02*
G37*
G36*
X841330D02*
X836810D01*
Y509770D01*
X841330D01*
Y516540D01*
D02*
G37*
G36*
X674750Y513580D02*
X667480D01*
Y505310D01*
X674750D01*
Y513580D01*
D02*
G37*
G36*
X848390Y507230D02*
X843870D01*
Y500460D01*
X848390D01*
Y507230D01*
D02*
G37*
G36*
X841330D02*
X836810D01*
Y500460D01*
X841330D01*
Y507230D01*
D02*
G37*
G36*
X795770Y534200D02*
X776690D01*
Y517470D01*
X776690Y517120D01*
Y516200D01*
X776690Y515850D01*
Y499120D01*
X782345D01*
Y489900D01*
X775690D01*
Y483245D01*
X737860D01*
X736374Y482949D01*
X735113Y482107D01*
X704753Y451747D01*
X703911Y450487D01*
X703615Y449000D01*
Y446540D01*
X699270D01*
Y438000D01*
Y429460D01*
X713040D01*
Y446540D01*
X712330D01*
X711804Y447810D01*
X739469Y475475D01*
X775690D01*
Y468820D01*
X796770D01*
Y489900D01*
X790115D01*
Y499120D01*
X795770D01*
Y515850D01*
X795770Y516200D01*
Y517120D01*
X795770Y517470D01*
Y519077D01*
X796943Y519563D01*
X811253Y505253D01*
X812513Y504411D01*
X814000Y504115D01*
X817610D01*
Y500460D01*
X829190D01*
Y516540D01*
X817610D01*
Y511885D01*
X815609D01*
X799087Y528407D01*
X797827Y529249D01*
X796340Y529545D01*
X795770D01*
Y534200D01*
D02*
G37*
G36*
X787618Y464500D02*
X787500D01*
Y455230D01*
X796770D01*
Y455348D01*
X796052Y458028D01*
X794664Y460432D01*
X792702Y462394D01*
X790298Y463782D01*
X787618Y464500D01*
D02*
G37*
G36*
X784960D02*
X784842D01*
X782162Y463782D01*
X779758Y462394D01*
X777796Y460432D01*
X776408Y458028D01*
X775690Y455348D01*
Y455230D01*
X784960D01*
Y464500D01*
D02*
G37*
G36*
X796770Y452690D02*
X787500D01*
Y443420D01*
X787618D01*
X790298Y444138D01*
X792702Y445526D01*
X794664Y447488D01*
X796052Y449892D01*
X796770Y452572D01*
Y452690D01*
D02*
G37*
G36*
X784960D02*
X775690D01*
Y452572D01*
X776408Y449892D01*
X777796Y447488D01*
X779758Y445526D01*
X782162Y444138D01*
X784842Y443420D01*
X784960D01*
Y452690D01*
D02*
G37*
G36*
X742040Y439540D02*
X733770D01*
Y432270D01*
X742040D01*
Y439540D01*
D02*
G37*
G36*
X731230D02*
X722960D01*
Y432270D01*
X731230D01*
Y439540D01*
D02*
G37*
G36*
X51270Y429540D02*
Y421270D01*
X58540D01*
Y429540D01*
X51270D01*
D02*
G37*
G36*
X58540Y418730D02*
X51270D01*
Y410460D01*
X58540D01*
Y418730D01*
D02*
G37*
G36*
X41460Y429540D02*
X40540D01*
X40190Y429540D01*
X23460D01*
Y410460D01*
X28115D01*
Y398764D01*
X16993Y387642D01*
X16151Y386382D01*
X15855Y384895D01*
Y341160D01*
X16151Y339673D01*
X16993Y338413D01*
X21890Y333516D01*
X21745Y333265D01*
X21010Y330521D01*
Y327679D01*
X21745Y324935D01*
X23166Y322475D01*
X25175Y320466D01*
X27635Y319045D01*
X30380Y318310D01*
X33221D01*
X35965Y319045D01*
X38425Y320466D01*
X40434Y322475D01*
X41855Y324935D01*
X42590Y327679D01*
Y330521D01*
X41855Y333265D01*
X40434Y335725D01*
X38425Y337734D01*
X35965Y339155D01*
X33221Y339890D01*
X30380D01*
X27635Y339155D01*
X27384Y339010D01*
X23625Y342769D01*
Y345757D01*
X24798Y346243D01*
X25175Y345866D01*
X27635Y344445D01*
X30380Y343710D01*
X33221D01*
X35965Y344445D01*
X38425Y345866D01*
X40434Y347875D01*
X41855Y350335D01*
X42590Y353079D01*
Y355920D01*
X41855Y358665D01*
X41710Y358916D01*
X46245Y363451D01*
X49096D01*
X49622Y362181D01*
X48566Y361125D01*
X47145Y358665D01*
X46410Y355920D01*
Y353079D01*
X47145Y350335D01*
X48566Y347875D01*
X50575Y345866D01*
X53035Y344445D01*
X55780Y343710D01*
X58621D01*
X61365Y344445D01*
X63825Y345866D01*
X65834Y347875D01*
X67255Y350335D01*
X67990Y353079D01*
Y355920D01*
X67255Y358665D01*
X65834Y361125D01*
X64778Y362181D01*
X65304Y363451D01*
X75836D01*
X77322Y363747D01*
X78582Y364589D01*
X87609Y373615D01*
X129861D01*
X217956Y285520D01*
X217331Y284350D01*
X217157Y284385D01*
X164394D01*
X162907Y284089D01*
X161647Y283247D01*
X143785Y265385D01*
X89040D01*
Y269690D01*
X89040Y270040D01*
Y270960D01*
X89040Y271310D01*
Y278230D01*
X69960D01*
Y271310D01*
X69960Y270960D01*
Y270040D01*
X69960Y269690D01*
Y265385D01*
X67040D01*
Y269690D01*
X67040Y270040D01*
Y270960D01*
X67040Y271310D01*
Y288040D01*
X61085D01*
Y318310D01*
X67990D01*
Y339890D01*
X46410D01*
Y318310D01*
X53315D01*
Y288040D01*
X47960D01*
Y271310D01*
X47960Y270960D01*
Y270040D01*
X47960Y269690D01*
Y252960D01*
X67040D01*
Y257615D01*
X69960D01*
Y252960D01*
X89040D01*
Y257615D01*
X145394D01*
X146880Y257911D01*
X148141Y258753D01*
X166003Y276615D01*
X170460D01*
X171309Y275345D01*
X170960Y274503D01*
Y272498D01*
X171727Y270645D01*
X172848Y269524D01*
X173032Y268750D01*
X172848Y267976D01*
X171727Y266855D01*
X170960Y265002D01*
Y262997D01*
X171727Y261145D01*
X173145Y259727D01*
X174998Y258960D01*
X177003D01*
X178855Y259727D01*
X180273Y261145D01*
X180915Y262695D01*
X184042D01*
X184528Y261522D01*
X115953Y192947D01*
X115111Y191687D01*
X114815Y190200D01*
Y37540D01*
X108160D01*
Y16460D01*
X129240D01*
Y37540D01*
X122585D01*
Y188591D01*
X138945Y204952D01*
X140215Y204426D01*
Y36871D01*
X140032Y36822D01*
X137628Y35434D01*
X135666Y33472D01*
X134278Y31068D01*
X133560Y28388D01*
Y25612D01*
X134278Y22932D01*
X135666Y20528D01*
X137628Y18566D01*
X140032Y17178D01*
X142712Y16460D01*
X145488D01*
X148168Y17178D01*
X150572Y18566D01*
X152534Y20528D01*
X153922Y22932D01*
X154640Y25612D01*
Y28388D01*
X153922Y31068D01*
X152534Y33472D01*
X150572Y35434D01*
X148168Y36822D01*
X147985Y36871D01*
Y203991D01*
X194280Y250287D01*
X207067Y237500D01*
X193632Y224065D01*
X194803Y222894D01*
X166753Y194845D01*
X165911Y193585D01*
X165615Y192098D01*
Y36871D01*
X165432Y36822D01*
X163028Y35434D01*
X161066Y33472D01*
X159678Y31068D01*
X158960Y28388D01*
Y25612D01*
X159678Y22932D01*
X161066Y20528D01*
X163028Y18566D01*
X165432Y17178D01*
X168112Y16460D01*
X170888D01*
X173568Y17178D01*
X175972Y18566D01*
X177934Y20528D01*
X179322Y22932D01*
X180040Y25612D01*
Y28388D01*
X179322Y31068D01*
X177934Y33472D01*
X175972Y35434D01*
X173568Y36822D01*
X173385Y36871D01*
Y190489D01*
X179033Y196137D01*
X180203Y195512D01*
X180169Y195338D01*
Y37846D01*
X180465Y36360D01*
X181307Y35099D01*
X185173Y31233D01*
X185078Y31068D01*
X184360Y28388D01*
Y25612D01*
X185078Y22932D01*
X186466Y20528D01*
X188428Y18566D01*
X190832Y17178D01*
X193512Y16460D01*
X196288D01*
X198968Y17178D01*
X201372Y18566D01*
X203334Y20528D01*
X204722Y22932D01*
X205440Y25612D01*
Y28388D01*
X204722Y31068D01*
X203334Y33472D01*
X201372Y35434D01*
X198968Y36822D01*
X196288Y37540D01*
X193512D01*
X190832Y36822D01*
X190667Y36727D01*
X187938Y39455D01*
Y182621D01*
X189112Y183107D01*
X197380Y174838D01*
Y46035D01*
X197676Y44548D01*
X198518Y43288D01*
X210573Y31233D01*
X210478Y31068D01*
X209760Y28388D01*
Y25612D01*
X210478Y22932D01*
X211866Y20528D01*
X213828Y18566D01*
X216232Y17178D01*
X218912Y16460D01*
X221688D01*
X224368Y17178D01*
X226772Y18566D01*
X228734Y20528D01*
X230122Y22932D01*
X230840Y25612D01*
Y28388D01*
X230122Y31068D01*
X228734Y33472D01*
X226772Y35434D01*
X224368Y36822D01*
X221688Y37540D01*
X218912D01*
X216232Y36822D01*
X216067Y36727D01*
X205150Y47644D01*
Y172699D01*
X206323Y173185D01*
X207220Y172288D01*
X213966Y179034D01*
X214864Y178136D01*
X215762Y179034D01*
X221801Y172995D01*
X222874Y174069D01*
X224048Y173583D01*
Y44768D01*
X224343Y43281D01*
X225186Y42021D01*
X235973Y31233D01*
X235878Y31068D01*
X235160Y28388D01*
Y25612D01*
X235878Y22932D01*
X237266Y20528D01*
X239228Y18566D01*
X241632Y17178D01*
X244312Y16460D01*
X247088D01*
X249768Y17178D01*
X252172Y18566D01*
X254134Y20528D01*
X255522Y22932D01*
X256240Y25612D01*
Y28388D01*
X255522Y31068D01*
X254134Y33472D01*
X252172Y35434D01*
X249768Y36822D01*
X247088Y37540D01*
X244312D01*
X241632Y36822D01*
X241467Y36727D01*
X231817Y46377D01*
Y152030D01*
X232990Y152516D01*
X255115Y130391D01*
Y39100D01*
X255411Y37613D01*
X256253Y36353D01*
X261373Y31233D01*
X261278Y31068D01*
X260560Y28388D01*
Y25612D01*
X261278Y22932D01*
X262666Y20528D01*
X264628Y18566D01*
X267032Y17178D01*
X269712Y16460D01*
X272488D01*
X275168Y17178D01*
X277572Y18566D01*
X279534Y20528D01*
X280922Y22932D01*
X281640Y25612D01*
Y28388D01*
X280922Y31068D01*
X279534Y33472D01*
X277572Y35434D01*
X275168Y36822D01*
X272488Y37540D01*
X269712D01*
X267032Y36822D01*
X266867Y36727D01*
X262885Y40709D01*
Y132000D01*
X262589Y133487D01*
X261747Y134747D01*
X236897Y159597D01*
Y178730D01*
X237096Y178871D01*
X238318Y179273D01*
X292615Y124976D01*
Y36871D01*
X292432Y36822D01*
X290028Y35434D01*
X288066Y33472D01*
X286678Y31068D01*
X285960Y28388D01*
Y25612D01*
X286678Y22932D01*
X288066Y20528D01*
X290028Y18566D01*
X292432Y17178D01*
X295112Y16460D01*
X297888D01*
X300568Y17178D01*
X302972Y18566D01*
X304934Y20528D01*
X306322Y22932D01*
X307040Y25612D01*
Y28388D01*
X306322Y31068D01*
X304934Y33472D01*
X302972Y35434D01*
X300568Y36822D01*
X300385Y36871D01*
Y126585D01*
X300089Y128072D01*
X299247Y129332D01*
X246506Y182073D01*
X254500Y190067D01*
X267935Y176632D01*
X268907Y177604D01*
X310115Y136396D01*
Y122900D01*
X310411Y121413D01*
X311253Y120153D01*
X400173Y31233D01*
X400078Y31068D01*
X399360Y28388D01*
Y25612D01*
X400078Y22932D01*
X401466Y20528D01*
X403428Y18566D01*
X405832Y17178D01*
X408512Y16460D01*
X411288D01*
X413968Y17178D01*
X416372Y18566D01*
X418334Y20528D01*
X419722Y22932D01*
X420440Y25612D01*
Y28388D01*
X419722Y31068D01*
X418334Y33472D01*
X416372Y35434D01*
X413968Y36822D01*
X411288Y37540D01*
X408512D01*
X405832Y36822D01*
X405667Y36727D01*
X317885Y124509D01*
Y137833D01*
X318291Y138143D01*
X319098Y138416D01*
X425832Y31682D01*
X425478Y31068D01*
X424760Y28388D01*
Y25612D01*
X425478Y22932D01*
X426866Y20528D01*
X428828Y18566D01*
X431232Y17178D01*
X433912Y16460D01*
X436688D01*
X439368Y17178D01*
X441772Y18566D01*
X443734Y20528D01*
X445122Y22932D01*
X445840Y25612D01*
Y28388D01*
X445122Y31068D01*
X443734Y33472D01*
X441772Y35434D01*
X439368Y36822D01*
X436688Y37540D01*
X433912D01*
X431585Y36916D01*
X390156Y78345D01*
X390782Y79516D01*
X391839Y79305D01*
X402901D01*
X450973Y31233D01*
X450878Y31068D01*
X450160Y28388D01*
Y25612D01*
X450878Y22932D01*
X452266Y20528D01*
X454228Y18566D01*
X456632Y17178D01*
X459312Y16460D01*
X462088D01*
X464768Y17178D01*
X467172Y18566D01*
X469134Y20528D01*
X470522Y22932D01*
X471240Y25612D01*
Y28388D01*
X470522Y31068D01*
X469134Y33472D01*
X467172Y35434D01*
X464768Y36822D01*
X462088Y37540D01*
X459312D01*
X456632Y36822D01*
X456467Y36727D01*
X407257Y85937D01*
X405997Y86779D01*
X405793Y86819D01*
X405615Y87014D01*
X405208Y88231D01*
X406058Y89704D01*
X406640Y91876D01*
Y94124D01*
X406058Y96296D01*
X404934Y98244D01*
X403344Y99834D01*
X401396Y100958D01*
X399224Y101540D01*
X396976D01*
X394804Y100958D01*
X392856Y99834D01*
X391266Y98244D01*
X390142Y96296D01*
X389560Y94124D01*
Y92759D01*
X388290Y92233D01*
X285913Y194610D01*
X290562Y199260D01*
X296219Y204916D01*
X301876Y210573D01*
X307533Y216230D01*
X315368Y224065D01*
X301933Y237500D01*
X315048Y250615D01*
X338391D01*
X344253Y244753D01*
X345513Y243911D01*
X347000Y243615D01*
X351960D01*
Y238960D01*
X371040D01*
Y243615D01*
X373460D01*
Y238960D01*
X392540D01*
Y243615D01*
X396757D01*
X397145Y243227D01*
X398997Y242460D01*
X401003D01*
X402855Y243227D01*
X404273Y244645D01*
X405040Y246497D01*
Y248503D01*
X404273Y250355D01*
X402855Y251773D01*
X401003Y252540D01*
X398997D01*
X397145Y251773D01*
X396757Y251385D01*
X392540D01*
Y255690D01*
X392540Y256040D01*
Y256960D01*
X392540Y257310D01*
Y264230D01*
X373460D01*
Y257310D01*
X373460Y256960D01*
Y256040D01*
X373460Y255690D01*
Y251385D01*
X371040D01*
Y256040D01*
X371040D01*
Y256960D01*
X371040D01*
Y274040D01*
X351960D01*
Y269385D01*
X328486D01*
X327960Y270655D01*
X331148Y273843D01*
X319071Y285921D01*
X318421Y286571D01*
X313280Y291712D01*
X306534Y284966D01*
X304738Y286762D01*
X311484Y293508D01*
X311183Y293808D01*
X311669Y294982D01*
X398656D01*
X454194Y239443D01*
X455454Y238601D01*
X456941Y238305D01*
X512064D01*
X512769Y237250D01*
X512543Y236702D01*
X494765Y218925D01*
X339289D01*
X338901Y219313D01*
X337049Y220080D01*
X335044D01*
X333191Y219313D01*
X331774Y217895D01*
X331006Y216042D01*
Y214037D01*
X331774Y212185D01*
X333191Y210767D01*
X335044Y210000D01*
X337049D01*
X338901Y210767D01*
X339289Y211155D01*
X496374D01*
X497861Y211451D01*
X499121Y212293D01*
X517288Y230460D01*
X518503D01*
X520355Y231227D01*
X521773Y232645D01*
X522540Y234498D01*
Y236502D01*
X522231Y237250D01*
X522936Y238305D01*
X552441D01*
X553927Y238601D01*
X555188Y239443D01*
X581860Y266115D01*
X656960D01*
Y261460D01*
X656960D01*
Y260540D01*
X656960D01*
Y243460D01*
X662615D01*
Y238743D01*
X662227Y238355D01*
X661460Y236502D01*
Y234498D01*
X661612Y234131D01*
X660906Y233075D01*
X533053D01*
X532355Y233773D01*
X530503Y234540D01*
X528498D01*
X526645Y233773D01*
X525227Y232355D01*
X524460Y230502D01*
Y229954D01*
X501891Y207385D01*
X349243D01*
X348855Y207773D01*
X347002Y208540D01*
X344997D01*
X343145Y207773D01*
X341727Y206355D01*
X340960Y204503D01*
Y202498D01*
X341727Y200645D01*
X343145Y199227D01*
X344997Y198460D01*
X347002D01*
X348855Y199227D01*
X349243Y199615D01*
X456828D01*
X457516Y198345D01*
X456960Y197003D01*
Y194998D01*
X457727Y193145D01*
X459145Y191727D01*
X460998Y190960D01*
X463003D01*
X464855Y191727D01*
X465243Y192115D01*
X651000D01*
X652487Y192411D01*
X653747Y193253D01*
X694947Y234453D01*
X695789Y235713D01*
X696085Y237200D01*
Y283960D01*
X697840D01*
X697990Y283960D01*
X699110D01*
X699260Y283960D01*
X710540D01*
X710690Y283960D01*
X711810D01*
X711960Y283960D01*
X723390D01*
Y304040D01*
X711960D01*
X711810Y304040D01*
X710690D01*
X710540Y304040D01*
X699260D01*
X699110Y304040D01*
X697990D01*
X697840Y304040D01*
X686410D01*
Y304040D01*
X685290D01*
Y304040D01*
X673710D01*
Y304040D01*
X672590D01*
Y304040D01*
X661160D01*
X661010Y304040D01*
X659890D01*
X659740Y304040D01*
X648460D01*
X648310Y304040D01*
X647190D01*
X647040Y304040D01*
X635610D01*
Y297885D01*
X628109D01*
X626385Y299609D01*
Y302960D01*
X632040D01*
Y319690D01*
X632040Y320040D01*
Y320960D01*
X632040Y321310D01*
Y328230D01*
X612960D01*
Y321310D01*
X612960Y320960D01*
Y320040D01*
X612960Y319690D01*
Y302960D01*
X618615D01*
Y298000D01*
X618911Y296513D01*
X619753Y295253D01*
X623753Y291253D01*
X625014Y290411D01*
X626500Y290115D01*
X635610D01*
Y283960D01*
X637565D01*
Y280693D01*
X637227Y280355D01*
X636460Y278503D01*
Y276497D01*
X637016Y275155D01*
X636328Y273885D01*
X580251D01*
X578764Y273589D01*
X577504Y272747D01*
X550832Y246075D01*
X511540D01*
Y250730D01*
X502000D01*
Y253270D01*
X511540D01*
Y260190D01*
X511540Y260540D01*
Y261460D01*
X511540Y261810D01*
Y262900D01*
X512810Y263153D01*
X513227Y262145D01*
X514645Y260727D01*
X516497Y259960D01*
X518503D01*
X520355Y260727D01*
X521773Y262145D01*
X522540Y263997D01*
Y266003D01*
X521773Y267855D01*
X520355Y269273D01*
X518702Y269957D01*
X518535Y270125D01*
Y281715D01*
X520290D01*
X520440Y281715D01*
X521560D01*
X521710Y281715D01*
X523465D01*
Y267816D01*
X523761Y266329D01*
X524460Y265283D01*
Y263997D01*
X525227Y262145D01*
X526645Y260727D01*
X528498Y259960D01*
X530503D01*
X532355Y260727D01*
X533773Y262145D01*
X534540Y263997D01*
Y266003D01*
X533773Y267855D01*
X532355Y269273D01*
X531235Y269737D01*
Y281715D01*
X532990D01*
X533140Y281715D01*
X534260D01*
X534410Y281715D01*
X536140D01*
Y278768D01*
X535727Y278355D01*
X534960Y276502D01*
Y274498D01*
X535727Y272645D01*
X537145Y271227D01*
X538997Y270460D01*
X541003D01*
X542855Y271227D01*
X544273Y272645D01*
X545040Y274498D01*
Y276502D01*
X544273Y278355D01*
X543910Y278718D01*
Y281715D01*
X545840D01*
Y288115D01*
X551960D01*
Y283460D01*
X571040D01*
Y300190D01*
X571040Y300540D01*
Y301460D01*
X571040Y301810D01*
Y308730D01*
X551960D01*
Y301810D01*
X551960Y301460D01*
Y300540D01*
X551960Y300190D01*
Y295885D01*
X545840D01*
Y302045D01*
X534410D01*
X534260Y302045D01*
X533140D01*
X532990Y302045D01*
X521710D01*
X521560Y302045D01*
X520440D01*
X520290Y302045D01*
X508860D01*
Y302045D01*
X507740D01*
Y302045D01*
X496160D01*
Y281715D01*
X498065D01*
Y278540D01*
X492460D01*
Y273885D01*
X490040D01*
Y278540D01*
X470960D01*
Y261810D01*
X470960Y261460D01*
Y260540D01*
X470960Y260190D01*
Y255885D01*
X465243D01*
X464855Y256273D01*
X463003Y257040D01*
X462454D01*
X379747Y339747D01*
X378487Y340589D01*
X377000Y340885D01*
X272000D01*
X270513Y340589D01*
X269253Y339747D01*
X221985Y292479D01*
X134217Y380247D01*
X132957Y381089D01*
X131471Y381385D01*
X86000D01*
X84513Y381089D01*
X83253Y380247D01*
X74226Y371220D01*
X65576D01*
X65050Y372490D01*
X65834Y373275D01*
X67255Y375735D01*
X67990Y378479D01*
Y381320D01*
X67255Y384065D01*
X65834Y386525D01*
X63825Y388534D01*
X61365Y389955D01*
X58621Y390690D01*
X55780D01*
X53035Y389955D01*
X50575Y388534D01*
X48566Y386525D01*
X47145Y384065D01*
X46410Y381320D01*
Y378479D01*
X47145Y375735D01*
X48566Y373275D01*
X49350Y372490D01*
X48824Y371220D01*
X44636D01*
X43149Y370924D01*
X41889Y370082D01*
X36216Y364410D01*
X35965Y364555D01*
X33221Y365290D01*
X30380D01*
X27635Y364555D01*
X25175Y363134D01*
X24798Y362757D01*
X23625Y363243D01*
Y371157D01*
X24798Y371643D01*
X25175Y371266D01*
X27635Y369845D01*
X30380Y369110D01*
X30530D01*
Y379900D01*
X31800D01*
Y381170D01*
X42590D01*
Y381320D01*
X41855Y384065D01*
X40434Y386525D01*
X38425Y388534D01*
X35965Y389955D01*
X33221Y390690D01*
X32688D01*
X32202Y391863D01*
X34747Y394408D01*
X35589Y395669D01*
X35885Y397155D01*
Y410460D01*
X40190D01*
X40540Y410460D01*
X41460D01*
X41810Y410460D01*
X48730D01*
Y420000D01*
Y429540D01*
X41810D01*
X41460Y429540D01*
D02*
G37*
G36*
X42590Y378630D02*
X33070D01*
Y369110D01*
X33221D01*
X35965Y369845D01*
X38425Y371266D01*
X40434Y373275D01*
X41855Y375735D01*
X42590Y378479D01*
Y378630D01*
D02*
G37*
G36*
X511540Y778230D02*
X503000D01*
X494460D01*
Y773960D01*
Y764460D01*
X499115D01*
Y719609D01*
X478753Y699247D01*
X477911Y697987D01*
X477615Y696500D01*
Y433500D01*
X477911Y432013D01*
X478753Y430753D01*
X523465Y386041D01*
Y356285D01*
X521710D01*
X521560Y356285D01*
X520440D01*
X520290Y356285D01*
X509010D01*
X508860Y356285D01*
X507740D01*
X507590Y356285D01*
X503220D01*
Y346120D01*
Y335955D01*
X507590D01*
X507740Y335955D01*
X508860D01*
X509010Y335955D01*
X510940D01*
Y322068D01*
X510727Y321855D01*
X509960Y320003D01*
Y317997D01*
X510727Y316145D01*
X512145Y314727D01*
X513997Y313960D01*
X516003D01*
X517855Y314727D01*
X519273Y316145D01*
X520040Y317997D01*
Y320003D01*
X519273Y321855D01*
X518710Y322418D01*
Y335955D01*
X520290D01*
X520440Y335955D01*
X521560D01*
X521710Y335955D01*
X532990D01*
X533140Y335955D01*
X534260D01*
X534410Y335955D01*
X545840D01*
Y356285D01*
X543910D01*
Y359782D01*
X544273Y360145D01*
X545040Y361997D01*
Y364002D01*
X544273Y365855D01*
X542855Y367273D01*
X541003Y368040D01*
X538997D01*
X537145Y367273D01*
X535727Y365855D01*
X534960Y364002D01*
Y361997D01*
X535727Y360145D01*
X536140Y359732D01*
Y356285D01*
X534410D01*
X534260Y356285D01*
X533140D01*
X532990Y356285D01*
X531235D01*
Y383765D01*
X581150D01*
X582637Y384061D01*
X583897Y384903D01*
X628379Y429385D01*
X686770D01*
X687145Y429460D01*
X696730D01*
Y438000D01*
Y446540D01*
X682960D01*
Y437155D01*
X626770D01*
X625283Y436859D01*
X624023Y436017D01*
X579541Y391535D01*
X528959D01*
X485385Y435109D01*
Y694891D01*
X505747Y715253D01*
X506589Y716513D01*
X506885Y718000D01*
Y764460D01*
X511540D01*
Y773960D01*
Y778230D01*
D02*
G37*
G36*
X500680Y356285D02*
X496160D01*
Y347390D01*
X500680D01*
Y356285D01*
D02*
G37*
G36*
Y344850D02*
X496160D01*
Y335955D01*
X500680D01*
Y344850D01*
D02*
G37*
G36*
X632040Y338040D02*
X623770D01*
Y330770D01*
X632040D01*
Y338040D01*
D02*
G37*
G36*
X621230D02*
X612960D01*
Y330770D01*
X621230D01*
Y338040D01*
D02*
G37*
G36*
X571040Y318540D02*
X562770D01*
Y311270D01*
X571040D01*
Y318540D01*
D02*
G37*
G36*
X560230D02*
X551960D01*
Y311270D01*
X560230D01*
Y318540D01*
D02*
G37*
G36*
X89040Y288040D02*
X80770D01*
Y280770D01*
X89040D01*
Y288040D01*
D02*
G37*
G36*
X78230D02*
X69960D01*
Y280770D01*
X78230D01*
Y288040D01*
D02*
G37*
G36*
X392540Y274040D02*
X384270D01*
Y266770D01*
X392540D01*
Y274040D01*
D02*
G37*
G36*
X381730D02*
X373460D01*
Y266770D01*
X381730D01*
Y274040D01*
D02*
G37*
G36*
X810540Y244230D02*
X802270D01*
Y236960D01*
X810540D01*
Y244230D01*
D02*
G37*
G36*
X799730D02*
X791460D01*
Y236960D01*
X799730D01*
Y244230D01*
D02*
G37*
G36*
X214864Y176340D02*
X209016Y170492D01*
X214157Y165352D01*
X220005Y171199D01*
X214864Y176340D01*
D02*
G37*
G36*
X638770Y153983D02*
Y147270D01*
X645483D01*
X644992Y149103D01*
X643934Y150937D01*
X642437Y152434D01*
X640603Y153492D01*
X638770Y153983D01*
D02*
G37*
G36*
X636230Y153983D02*
X634397Y153492D01*
X632563Y152434D01*
X631066Y150937D01*
X630008Y149103D01*
X629517Y147270D01*
X636230D01*
Y153983D01*
D02*
G37*
G36*
Y144730D02*
X629517D01*
X630008Y142897D01*
X631066Y141063D01*
X632563Y139566D01*
X634397Y138508D01*
X636230Y138017D01*
Y144730D01*
D02*
G37*
G36*
X645483D02*
X638770D01*
Y138017D01*
X640603Y138508D01*
X642437Y139566D01*
X643934Y141063D01*
X644992Y142897D01*
X645483Y144730D01*
D02*
G37*
G36*
X603040Y146040D02*
X585960D01*
Y134960D01*
X603040D01*
Y146040D01*
D02*
G37*
G36*
X578040D02*
X560960D01*
Y134960D01*
Y132270D01*
X578040D01*
Y134960D01*
Y146040D01*
D02*
G37*
G36*
X645540Y134040D02*
X629460D01*
Y129885D01*
X611500D01*
X610013Y129589D01*
X608753Y128747D01*
X605391Y125385D01*
X603040D01*
Y127040D01*
X585960D01*
Y115960D01*
X603040D01*
Y117615D01*
X607000D01*
X608487Y117911D01*
X609747Y118753D01*
X613109Y122115D01*
X629460D01*
Y117960D01*
X645540D01*
Y134040D01*
D02*
G37*
G36*
X549002Y142540D02*
X546997D01*
X545145Y141773D01*
X543727Y140355D01*
X542960Y138503D01*
Y136497D01*
X543727Y134645D01*
X544115Y134257D01*
Y130040D01*
X538460D01*
Y113310D01*
X538460Y112960D01*
Y112040D01*
X538460Y111690D01*
Y104770D01*
X548000D01*
X557540D01*
Y111690D01*
X557540Y112040D01*
Y112960D01*
X557540Y113310D01*
Y117615D01*
X560960D01*
Y115960D01*
X578040D01*
Y125460D01*
Y129730D01*
X560960D01*
Y125385D01*
X557540D01*
Y130040D01*
X551885D01*
Y134257D01*
X552273Y134645D01*
X553040Y136497D01*
Y138503D01*
X552273Y140355D01*
X550855Y141773D01*
X549002Y142540D01*
D02*
G37*
G36*
X557540Y102230D02*
X549270D01*
Y94960D01*
X557540D01*
Y102230D01*
D02*
G37*
G36*
X546730D02*
X538460D01*
Y94960D01*
X546730D01*
Y102230D01*
D02*
G37*
G36*
X450170Y101501D02*
Y94270D01*
X457401D01*
X456858Y96296D01*
X455734Y98244D01*
X454144Y99834D01*
X452196Y100958D01*
X450170Y101501D01*
D02*
G37*
G36*
X447630D02*
X445604Y100958D01*
X443656Y99834D01*
X442066Y98244D01*
X440942Y96296D01*
X440399Y94270D01*
X447630D01*
Y101501D01*
D02*
G37*
G36*
X457401Y91730D02*
X450170D01*
Y84499D01*
X452196Y85042D01*
X454144Y86166D01*
X455734Y87756D01*
X456858Y89704D01*
X457401Y91730D01*
D02*
G37*
G36*
X447630D02*
X440399D01*
X440942Y89704D01*
X442066Y87756D01*
X443656Y86166D01*
X445604Y85042D01*
X447630Y84499D01*
Y91730D01*
D02*
G37*
G36*
X424624Y101540D02*
X422376D01*
X420204Y100958D01*
X418256Y99834D01*
X416666Y98244D01*
X415542Y96296D01*
X414960Y94124D01*
Y91876D01*
X415542Y89704D01*
X416666Y87756D01*
X418256Y86166D01*
X420204Y85042D01*
X422376Y84460D01*
X424624D01*
X426796Y85042D01*
X428744Y86166D01*
X430334Y87756D01*
X431458Y89704D01*
X432040Y91876D01*
Y94124D01*
X431458Y96296D01*
X430334Y98244D01*
X428744Y99834D01*
X426796Y100958D01*
X424624Y101540D01*
D02*
G37*
G36*
X813930Y64150D02*
X804660D01*
Y54880D01*
X813930D01*
Y64150D01*
D02*
G37*
G36*
X802120D02*
X792850D01*
Y54880D01*
X802120D01*
Y64150D01*
D02*
G37*
G36*
X813930Y52340D02*
X804660D01*
Y43070D01*
X813930D01*
Y52340D01*
D02*
G37*
G36*
X802120D02*
X792850D01*
Y43070D01*
X802120D01*
Y52340D01*
D02*
G37*
G36*
X962561Y72540D02*
X961270D01*
Y41270D01*
X992540D01*
Y42561D01*
X991739Y47620D01*
X990156Y52491D01*
X987831Y57055D01*
X984820Y61198D01*
X981198Y64820D01*
X977055Y67831D01*
X972491Y70156D01*
X967620Y71739D01*
X962561Y72540D01*
D02*
G37*
G36*
X958730D02*
X957439D01*
X952380Y71739D01*
X947509Y70156D01*
X942945Y67831D01*
X938802Y64820D01*
X935180Y61198D01*
X932169Y57055D01*
X929844Y52491D01*
X928261Y47620D01*
X927460Y42561D01*
Y41270D01*
X958730D01*
Y72540D01*
D02*
G37*
G36*
X42561D02*
X41270D01*
Y41270D01*
X72540D01*
Y42561D01*
X71739Y47620D01*
X70156Y52491D01*
X67831Y57055D01*
X64820Y61198D01*
X61198Y64820D01*
X57055Y67831D01*
X52491Y70156D01*
X47620Y71739D01*
X42561Y72540D01*
D02*
G37*
G36*
X38730D02*
X37439D01*
X32380Y71739D01*
X27509Y70156D01*
X22945Y67831D01*
X18802Y64820D01*
X15180Y61198D01*
X12169Y57055D01*
X9844Y52491D01*
X8261Y47620D01*
X7460Y42561D01*
Y41270D01*
X38730D01*
Y72540D01*
D02*
G37*
G36*
X739588Y37540D02*
X739470D01*
Y28270D01*
X748740D01*
Y28388D01*
X748022Y31068D01*
X746634Y33472D01*
X744672Y35434D01*
X742268Y36822D01*
X739588Y37540D01*
D02*
G37*
G36*
X736930D02*
X736812D01*
X734132Y36822D01*
X731728Y35434D01*
X729766Y33472D01*
X728378Y31068D01*
X727660Y28388D01*
Y28270D01*
X736930D01*
Y37540D01*
D02*
G37*
G36*
X626088D02*
X625970D01*
Y28270D01*
X635240D01*
Y28388D01*
X634522Y31068D01*
X633134Y33472D01*
X631172Y35434D01*
X628768Y36822D01*
X626088Y37540D01*
D02*
G37*
G36*
X623430D02*
X623312D01*
X620632Y36822D01*
X618228Y35434D01*
X616266Y33472D01*
X614878Y31068D01*
X614160Y28388D01*
Y28270D01*
X623430D01*
Y37540D01*
D02*
G37*
G36*
X344240D02*
X334970D01*
Y28270D01*
X344240D01*
Y37540D01*
D02*
G37*
G36*
X332430D02*
X323160D01*
Y28270D01*
X332430D01*
Y37540D01*
D02*
G37*
G36*
X748740Y25730D02*
X739470D01*
Y16460D01*
X739588D01*
X742268Y17178D01*
X744672Y18566D01*
X746634Y20528D01*
X748022Y22932D01*
X748740Y25612D01*
Y25730D01*
D02*
G37*
G36*
X736930D02*
X727660D01*
Y25612D01*
X728378Y22932D01*
X729766Y20528D01*
X731728Y18566D01*
X734132Y17178D01*
X736812Y16460D01*
X736930D01*
Y25730D01*
D02*
G37*
G36*
X714188Y37540D02*
X711412D01*
X708732Y36822D01*
X706328Y35434D01*
X704366Y33472D01*
X702978Y31068D01*
X702260Y28388D01*
Y25612D01*
X702978Y22932D01*
X704366Y20528D01*
X706328Y18566D01*
X708732Y17178D01*
X711412Y16460D01*
X714188D01*
X716868Y17178D01*
X719272Y18566D01*
X721234Y20528D01*
X722622Y22932D01*
X723340Y25612D01*
Y28388D01*
X722622Y31068D01*
X721234Y33472D01*
X719272Y35434D01*
X716868Y36822D01*
X714188Y37540D01*
D02*
G37*
G36*
X688788D02*
X686012D01*
X683332Y36822D01*
X680928Y35434D01*
X678966Y33472D01*
X677578Y31068D01*
X676860Y28388D01*
Y25612D01*
X677578Y22932D01*
X678966Y20528D01*
X680928Y18566D01*
X683332Y17178D01*
X686012Y16460D01*
X688788D01*
X691468Y17178D01*
X693872Y18566D01*
X695834Y20528D01*
X697222Y22932D01*
X697940Y25612D01*
Y28388D01*
X697222Y31068D01*
X695834Y33472D01*
X693872Y35434D01*
X691468Y36822D01*
X688788Y37540D01*
D02*
G37*
G36*
X672540D02*
X651460D01*
Y16460D01*
X672540D01*
Y37540D01*
D02*
G37*
G36*
X635240Y25730D02*
X625970D01*
Y16460D01*
X626088D01*
X628768Y17178D01*
X631172Y18566D01*
X633134Y20528D01*
X634522Y22932D01*
X635240Y25612D01*
Y25730D01*
D02*
G37*
G36*
X623430D02*
X614160D01*
Y25612D01*
X614878Y22932D01*
X616266Y20528D01*
X618228Y18566D01*
X620632Y17178D01*
X623312Y16460D01*
X623430D01*
Y25730D01*
D02*
G37*
G36*
X600688Y37540D02*
X597912D01*
X595232Y36822D01*
X592828Y35434D01*
X590866Y33472D01*
X589478Y31068D01*
X588760Y28388D01*
Y25612D01*
X589478Y22932D01*
X590866Y20528D01*
X592828Y18566D01*
X595232Y17178D01*
X597912Y16460D01*
X600688D01*
X603368Y17178D01*
X605772Y18566D01*
X607734Y20528D01*
X609122Y22932D01*
X609840Y25612D01*
Y28388D01*
X609122Y31068D01*
X607734Y33472D01*
X605772Y35434D01*
X603368Y36822D01*
X600688Y37540D01*
D02*
G37*
G36*
X575288D02*
X572512D01*
X569832Y36822D01*
X567428Y35434D01*
X565466Y33472D01*
X564078Y31068D01*
X563360Y28388D01*
Y25612D01*
X564078Y22932D01*
X565466Y20528D01*
X567428Y18566D01*
X569832Y17178D01*
X572512Y16460D01*
X575288D01*
X577968Y17178D01*
X580372Y18566D01*
X582334Y20528D01*
X583722Y22932D01*
X584440Y25612D01*
Y28388D01*
X583722Y31068D01*
X582334Y33472D01*
X580372Y35434D01*
X577968Y36822D01*
X575288Y37540D01*
D02*
G37*
G36*
X559040D02*
X537960D01*
Y16460D01*
X559040D01*
Y37540D01*
D02*
G37*
G36*
X512888D02*
X510112D01*
X507432Y36822D01*
X505028Y35434D01*
X503066Y33472D01*
X501678Y31068D01*
X500960Y28388D01*
Y25612D01*
X501678Y22932D01*
X503066Y20528D01*
X505028Y18566D01*
X507432Y17178D01*
X510112Y16460D01*
X512888D01*
X515568Y17178D01*
X517972Y18566D01*
X519934Y20528D01*
X521322Y22932D01*
X522040Y25612D01*
Y28388D01*
X521322Y31068D01*
X519934Y33472D01*
X517972Y35434D01*
X515568Y36822D01*
X512888Y37540D01*
D02*
G37*
G36*
X487488D02*
X484712D01*
X482032Y36822D01*
X479628Y35434D01*
X477666Y33472D01*
X476278Y31068D01*
X475560Y28388D01*
Y25612D01*
X476278Y22932D01*
X477666Y20528D01*
X479628Y18566D01*
X482032Y17178D01*
X484712Y16460D01*
X487488D01*
X490168Y17178D01*
X492572Y18566D01*
X494534Y20528D01*
X495922Y22932D01*
X496640Y25612D01*
Y28388D01*
X495922Y31068D01*
X494534Y33472D01*
X492572Y35434D01*
X490168Y36822D01*
X487488Y37540D01*
D02*
G37*
G36*
X385888D02*
X383112D01*
X380432Y36822D01*
X378028Y35434D01*
X376066Y33472D01*
X374678Y31068D01*
X373960Y28388D01*
Y25612D01*
X374678Y22932D01*
X376066Y20528D01*
X378028Y18566D01*
X380432Y17178D01*
X383112Y16460D01*
X385888D01*
X388568Y17178D01*
X390972Y18566D01*
X392934Y20528D01*
X394322Y22932D01*
X395040Y25612D01*
Y28388D01*
X394322Y31068D01*
X392934Y33472D01*
X390972Y35434D01*
X388568Y36822D01*
X385888Y37540D01*
D02*
G37*
G36*
X360488D02*
X357712D01*
X355032Y36822D01*
X352628Y35434D01*
X350666Y33472D01*
X349278Y31068D01*
X348560Y28388D01*
Y25612D01*
X349278Y22932D01*
X350666Y20528D01*
X352628Y18566D01*
X355032Y17178D01*
X357712Y16460D01*
X360488D01*
X363168Y17178D01*
X365572Y18566D01*
X367534Y20528D01*
X368922Y22932D01*
X369640Y25612D01*
Y28388D01*
X368922Y31068D01*
X367534Y33472D01*
X365572Y35434D01*
X363168Y36822D01*
X360488Y37540D01*
D02*
G37*
G36*
X344240Y25730D02*
X334970D01*
Y16460D01*
X344240D01*
Y25730D01*
D02*
G37*
G36*
X332430D02*
X323160D01*
Y16460D01*
X332430D01*
Y25730D01*
D02*
G37*
G36*
X992540Y38730D02*
X961270D01*
Y7460D01*
X962561D01*
X967620Y8261D01*
X972491Y9844D01*
X977055Y12169D01*
X981198Y15180D01*
X984820Y18802D01*
X987831Y22945D01*
X990156Y27509D01*
X991739Y32380D01*
X992540Y37439D01*
Y38730D01*
D02*
G37*
G36*
X958730D02*
X927460D01*
Y37439D01*
X928261Y32380D01*
X929844Y27509D01*
X932169Y22945D01*
X935180Y18802D01*
X938802Y15180D01*
X942945Y12169D01*
X947509Y9844D01*
X952380Y8261D01*
X957439Y7460D01*
X958730D01*
Y38730D01*
D02*
G37*
G36*
X72540D02*
X41270D01*
Y7460D01*
X42561D01*
X47620Y8261D01*
X52491Y9844D01*
X57055Y12169D01*
X61198Y15180D01*
X64820Y18802D01*
X67831Y22945D01*
X70156Y27509D01*
X71739Y32380D01*
X72540Y37439D01*
Y38730D01*
D02*
G37*
G36*
X38730D02*
X7460D01*
Y37439D01*
X8261Y32380D01*
X9844Y27509D01*
X12169Y22945D01*
X15180Y18802D01*
X18802Y15180D01*
X22945Y12169D01*
X27509Y9844D01*
X32380Y8261D01*
X37439Y7460D01*
X38730D01*
Y38730D01*
D02*
G37*
%LPD*%
G36*
X805670Y932947D02*
Y916290D01*
X779570D01*
Y925900D01*
X775665D01*
Y929860D01*
X775369Y931347D01*
X774527Y932607D01*
X771445Y935689D01*
Y937130D01*
X776100D01*
Y937130D01*
X777020D01*
Y937130D01*
X794100D01*
Y937730D01*
X800887D01*
X805670Y932947D01*
D02*
G37*
G36*
X822280Y930160D02*
X809580D01*
Y932700D01*
X801960Y940320D01*
X790530D01*
Y953020D01*
X822280D01*
Y930160D01*
D02*
G37*
G36*
X664720Y706620D02*
X691390D01*
Y693920D01*
X646940D01*
X635510Y682490D01*
X622810D01*
Y716780D01*
Y728210D01*
X643130D01*
X664720Y706620D01*
D02*
G37*
G36*
X624080Y645660D02*
Y632960D01*
X622810D01*
Y654550D01*
X632970D01*
X624080Y645660D01*
D02*
G37*
G36*
X622810Y672330D02*
X619000D01*
Y632960D01*
X616460D01*
Y682490D01*
X622810D01*
Y672330D01*
D02*
G37*
G36*
X668100Y838700D02*
X617730D01*
Y688840D01*
X614310Y685420D01*
Y632960D01*
X611311D01*
Y634689D01*
X607570Y638430D01*
Y838700D01*
X461090D01*
Y848860D01*
X668100D01*
Y838700D01*
D02*
G37*
G36*
X593600Y632960D02*
X607570D01*
Y620260D01*
X593600D01*
Y632960D01*
X583440D01*
Y645660D01*
X593600D01*
Y632960D01*
D02*
G37*
G36*
X751000Y899000D02*
X735000Y883000D01*
Y856000D01*
X327000D01*
X285500Y814500D01*
X286000D01*
Y600000D01*
X146000D01*
X146500Y814500D01*
X158000D01*
Y892000D01*
X158500Y892500D01*
X720000D01*
X741000Y913500D01*
X751000D01*
Y899000D01*
D02*
G37*
G36*
X859110Y847610D02*
X856570Y845070D01*
Y843800D01*
X846410D01*
Y845070D01*
X845140Y846340D01*
Y892060D01*
X859110D01*
Y847610D01*
D02*
G37*
G36*
X797350Y664255D02*
X795392Y663444D01*
X792519Y661524D01*
X790076Y659081D01*
X788156Y656208D01*
X786834Y653016D01*
X786160Y649628D01*
Y646172D01*
X786834Y642784D01*
X788156Y639592D01*
X790076Y636719D01*
X792519Y634276D01*
X795392Y632356D01*
X798584Y631034D01*
X801973Y630360D01*
X805427D01*
X808816Y631034D01*
X812008Y632356D01*
X814881Y634276D01*
X817324Y636719D01*
X819244Y639592D01*
X820566Y642784D01*
X821240Y646172D01*
Y649628D01*
X820566Y653016D01*
X819244Y656208D01*
X818084Y657944D01*
X818932Y658862D01*
X820508Y657654D01*
X822342Y656894D01*
X824310Y656635D01*
X841596D01*
X843296Y654936D01*
X846149Y653288D01*
X846833Y653105D01*
X846666Y651835D01*
X839450D01*
X837963Y651539D01*
X836703Y650697D01*
X792391Y606385D01*
X775040D01*
Y611040D01*
X755960D01*
Y594310D01*
X755960Y593960D01*
Y593040D01*
X755960Y592690D01*
Y575960D01*
X761615D01*
Y572109D01*
X703482Y513976D01*
X702488Y514773D01*
X702879Y516740D01*
Y595710D01*
X705780D01*
Y611790D01*
X705410D01*
Y654450D01*
X732980D01*
Y656635D01*
X782400D01*
X784368Y656894D01*
X786202Y657654D01*
X787778Y658862D01*
X794440Y665525D01*
X797097D01*
X797350Y664255D01*
D02*
G37*
G36*
X702820Y598670D02*
X692660D01*
Y658360D01*
X702820D01*
Y598670D01*
D02*
G37*
G36*
X629160Y565650D02*
X635510D01*
Y552950D01*
X626620D01*
Y575810D01*
X629160D01*
Y565650D01*
D02*
G37*
G36*
X939115Y567891D02*
Y564000D01*
X933420D01*
Y547270D01*
X933420Y546920D01*
Y546000D01*
X933420Y545650D01*
Y528920D01*
X939075D01*
Y527500D01*
X933420D01*
Y510770D01*
X933420Y510420D01*
Y509500D01*
X933420Y509150D01*
Y492420D01*
X939075D01*
Y410000D01*
X933420D01*
Y405345D01*
X931500D01*
Y410000D01*
X925885D01*
Y427000D01*
X925589Y428487D01*
X924747Y429747D01*
X918747Y435747D01*
X917487Y436589D01*
X916000Y436885D01*
X875779D01*
X874540Y436960D01*
X874540Y438155D01*
Y454040D01*
X872885D01*
Y461460D01*
X878540D01*
Y478190D01*
X878540Y478540D01*
Y479460D01*
X878540Y479810D01*
Y496540D01*
X872885D01*
Y523500D01*
X872589Y524987D01*
X871747Y526247D01*
X865747Y532247D01*
X864487Y533089D01*
X863000Y533385D01*
X838790D01*
Y537540D01*
X836885D01*
Y547460D01*
X841190D01*
X841540Y547460D01*
X842460D01*
X842810Y547460D01*
X859540D01*
Y566540D01*
X854885D01*
Y569460D01*
X859540D01*
Y575115D01*
X931891D01*
X939115Y567891D01*
D02*
G37*
G36*
X624080Y549140D02*
X634240D01*
Y538980D01*
X621540D01*
Y575810D01*
X624080D01*
Y549140D01*
D02*
G37*
G36*
X619000Y554220D02*
X613920Y549140D01*
Y538980D01*
X601220D01*
Y546600D01*
X592330D01*
Y559300D01*
X611380D01*
X616460Y564380D01*
Y575810D01*
X619000D01*
Y554220D01*
D02*
G37*
G36*
X643130Y511040D02*
X634240D01*
Y521200D01*
X643130D01*
Y511040D01*
D02*
G37*
G36*
X676765Y487258D02*
X673391Y483885D01*
X626000D01*
X624513Y483589D01*
X623253Y482747D01*
X613979Y473473D01*
X612709Y473998D01*
Y487861D01*
X674000D01*
X675966Y488252D01*
X676765Y487258D01*
D02*
G37*
G36*
X598630Y542550D02*
X598030D01*
Y525820D01*
X598030Y525470D01*
Y524550D01*
X598030Y524200D01*
Y507470D01*
X602431D01*
Y494290D01*
Y474699D01*
X591051Y463319D01*
X579190D01*
Y469720D01*
X565110D01*
Y446640D01*
X564153Y445885D01*
X557147D01*
X556190Y446640D01*
X556190Y447155D01*
Y457719D01*
X556251Y458180D01*
Y506640D01*
X567690D01*
Y511055D01*
X578360D01*
X580328Y511314D01*
X582163Y512074D01*
X583738Y513283D01*
X592628Y522173D01*
X593836Y523747D01*
X594596Y525582D01*
X594855Y527550D01*
Y543410D01*
X595790D01*
Y544010D01*
X598630D01*
Y542550D01*
D02*
G37*
G36*
X881228Y643119D02*
X882876Y640266D01*
X885206Y637936D01*
X888059Y636288D01*
X891242Y635435D01*
X894538D01*
X897721Y636288D01*
X900574Y637936D01*
X902905Y640266D01*
X902950Y640345D01*
X935005D01*
Y639879D01*
X951085D01*
Y640314D01*
X957269D01*
X967395Y630188D01*
Y242385D01*
X951540D01*
Y246690D01*
X951540Y247040D01*
Y247960D01*
X951540Y248310D01*
Y265040D01*
X932460D01*
Y260385D01*
X930040D01*
Y265040D01*
X910960D01*
Y248310D01*
X910960Y247960D01*
Y247040D01*
X910960Y246690D01*
Y242385D01*
X908540D01*
Y246690D01*
X908540Y247040D01*
Y247960D01*
X908540Y248310D01*
Y255230D01*
X889460D01*
Y248310D01*
X889460Y247960D01*
Y247040D01*
X889460Y246690D01*
Y242385D01*
X887040D01*
Y246690D01*
X887040Y247040D01*
Y247960D01*
X887040Y248310D01*
Y255230D01*
X867960D01*
Y248310D01*
X867960Y247960D01*
Y247040D01*
X867960Y246690D01*
Y242425D01*
X850500D01*
Y247080D01*
X843777D01*
X843388Y247941D01*
X843344Y248350D01*
X847747Y252753D01*
X848589Y254013D01*
X848785Y255000D01*
X850500D01*
Y272080D01*
X848885D01*
Y284500D01*
X848589Y285987D01*
X847747Y287247D01*
X813247Y321747D01*
X811987Y322589D01*
X810500Y322885D01*
X671672D01*
X670984Y324155D01*
X671540Y325498D01*
Y327503D01*
X670984Y328845D01*
X671629Y330037D01*
X671728Y330115D01*
X678000D01*
X679487Y330411D01*
X680747Y331253D01*
X682247Y332753D01*
X683089Y334013D01*
X683385Y335500D01*
Y337960D01*
X685140D01*
X685290Y337960D01*
X686410D01*
X686560Y337960D01*
X697840D01*
X697990Y337960D01*
X699110D01*
X699260Y337960D01*
X710540D01*
X710690Y337960D01*
X711810D01*
X711960Y337960D01*
X716330D01*
Y348000D01*
Y358040D01*
X711960D01*
X711810Y358040D01*
X710690D01*
X710540Y358040D01*
X709830D01*
X709304Y359310D01*
X718609Y368615D01*
X723460D01*
Y362960D01*
X740190D01*
X740540Y362960D01*
X741460D01*
X741810Y362960D01*
X758540D01*
Y368615D01*
X763257D01*
X763645Y368227D01*
X765498Y367460D01*
X767503D01*
X769355Y368227D01*
X770773Y369645D01*
X771540Y371497D01*
Y373503D01*
X770773Y375355D01*
X769355Y376773D01*
X767503Y377540D01*
X765498D01*
X763645Y376773D01*
X763257Y376385D01*
X758540D01*
Y382040D01*
X741810D01*
X741460Y382040D01*
X740540D01*
X740190Y382040D01*
X723460D01*
Y376385D01*
X717000D01*
X715514Y376089D01*
X715108Y375818D01*
X714298Y376804D01*
X734109Y396615D01*
X743500D01*
X744987Y396911D01*
X746247Y397753D01*
X778609Y430115D01*
X827000D01*
X828487Y430411D01*
X829747Y431253D01*
X840109Y441615D01*
X844460D01*
Y436960D01*
X848783D01*
X849181Y435933D01*
X849196Y435690D01*
X847253Y433747D01*
X846411Y432487D01*
X846115Y431000D01*
Y429040D01*
X844460D01*
Y411960D01*
X855540D01*
Y429040D01*
X856779Y429115D01*
X862221D01*
X863460Y429040D01*
X863460Y427845D01*
Y411960D01*
X865115D01*
Y409243D01*
X864727Y408855D01*
X863960Y407002D01*
Y404997D01*
X864727Y403145D01*
X866145Y401727D01*
X867998Y400960D01*
X870003D01*
X871855Y401727D01*
X873273Y403145D01*
X874040Y404997D01*
Y407002D01*
X873273Y408855D01*
X872885Y409243D01*
Y411960D01*
X874540D01*
Y416615D01*
X880710D01*
Y402270D01*
X880710Y401920D01*
Y401000D01*
X880710Y400650D01*
Y393730D01*
X890250D01*
X899790D01*
Y400650D01*
X899790Y401000D01*
Y401920D01*
X899790Y402270D01*
Y419000D01*
X894135D01*
Y419012D01*
X893839Y420499D01*
X892997Y421759D01*
X891509Y423247D01*
X890249Y424089D01*
X888762Y424385D01*
X874540D01*
X874540Y429040D01*
X875779Y429115D01*
X914391D01*
X918115Y425391D01*
Y410000D01*
X912420D01*
Y393270D01*
X912420Y392920D01*
Y392000D01*
X912420Y391650D01*
Y384730D01*
X921960D01*
X931500D01*
Y391650D01*
X931500Y392000D01*
Y392920D01*
X931500Y393270D01*
Y397575D01*
X933420D01*
Y393270D01*
X933420Y392920D01*
Y392000D01*
X933420Y391650D01*
Y384730D01*
X942960D01*
X952500D01*
Y391650D01*
X952500Y392000D01*
Y392920D01*
X952500Y393270D01*
Y410000D01*
X946845D01*
Y492420D01*
X952500D01*
Y509150D01*
X952500Y509500D01*
Y510420D01*
X952500Y510770D01*
Y527500D01*
X946845D01*
Y528920D01*
X952500D01*
Y545650D01*
X952500Y546000D01*
Y546920D01*
X952500Y547270D01*
Y564000D01*
X946885D01*
Y569500D01*
X946589Y570987D01*
X945747Y572247D01*
X936247Y581747D01*
X934986Y582589D01*
X933500Y582885D01*
X859540D01*
Y588540D01*
X854865D01*
Y619034D01*
X855811Y619288D01*
X858664Y620936D01*
X860994Y623266D01*
X862642Y626119D01*
X863495Y629302D01*
Y632598D01*
X862642Y635781D01*
X860994Y638634D01*
X858664Y640965D01*
X855811Y642612D01*
X855127Y642795D01*
X855294Y644065D01*
X880974D01*
X881228Y643119D01*
D02*
G37*
%LPC*%
G36*
X724010Y611733D02*
Y605020D01*
X730723D01*
X730232Y606853D01*
X729174Y608687D01*
X727677Y610184D01*
X725843Y611242D01*
X724010Y611733D01*
D02*
G37*
G36*
X721470D02*
X719637Y611242D01*
X717803Y610184D01*
X716306Y608687D01*
X715248Y606853D01*
X714757Y605020D01*
X721470D01*
Y611733D01*
D02*
G37*
G36*
X730723Y602480D02*
X724010D01*
Y595767D01*
X725843Y596258D01*
X727677Y597317D01*
X729174Y598813D01*
X730232Y600647D01*
X730723Y602480D01*
D02*
G37*
G36*
X721470D02*
X714757D01*
X715248Y600647D01*
X716306Y598813D01*
X717803Y597317D01*
X719637Y596258D01*
X721470Y595767D01*
Y602480D01*
D02*
G37*
G36*
X944314Y635902D02*
Y629189D01*
X951028D01*
X950537Y631022D01*
X949478Y632856D01*
X947981Y634353D01*
X946148Y635411D01*
X944314Y635902D01*
D02*
G37*
G36*
X941775Y635902D02*
X939941Y635411D01*
X938108Y634353D01*
X936611Y632856D01*
X935553Y631022D01*
X935061Y629189D01*
X941775D01*
Y635902D01*
D02*
G37*
G36*
Y626649D02*
X935061D01*
X935553Y624816D01*
X936611Y622982D01*
X938108Y621485D01*
X939941Y620427D01*
X941775Y619936D01*
Y626649D01*
D02*
G37*
G36*
X951028D02*
X944314D01*
Y619936D01*
X946148Y620427D01*
X947981Y621485D01*
X949478Y622982D01*
X950537Y624816D01*
X951028Y626649D01*
D02*
G37*
G36*
X905405Y626465D02*
X880375D01*
Y601435D01*
X905405D01*
Y626465D01*
D02*
G37*
G36*
X899790Y391190D02*
X891520D01*
Y383920D01*
X899790D01*
Y391190D01*
D02*
G37*
G36*
X888980D02*
X880710D01*
Y383920D01*
X888980D01*
Y391190D01*
D02*
G37*
G36*
X952500Y382190D02*
X944230D01*
Y374920D01*
X952500D01*
Y382190D01*
D02*
G37*
G36*
X941690D02*
X933420D01*
Y374920D01*
X941690D01*
Y382190D01*
D02*
G37*
G36*
X931500D02*
X923230D01*
Y374920D01*
X931500D01*
Y382190D01*
D02*
G37*
G36*
X920690D02*
X912420D01*
Y374920D01*
X920690D01*
Y382190D01*
D02*
G37*
G36*
X718870Y358040D02*
Y349270D01*
X723390D01*
Y358040D01*
X718870D01*
D02*
G37*
G36*
X723390Y346730D02*
X718870D01*
Y337960D01*
X723390D01*
Y346730D01*
D02*
G37*
G36*
X908540Y265040D02*
X900270D01*
Y257770D01*
X908540D01*
Y265040D01*
D02*
G37*
G36*
X897730D02*
X889460D01*
Y257770D01*
X897730D01*
Y265040D01*
D02*
G37*
G36*
X887040D02*
X878770D01*
Y257770D01*
X887040D01*
Y265040D01*
D02*
G37*
G36*
X876230D02*
X867960D01*
Y257770D01*
X876230D01*
Y265040D01*
D02*
G37*
%LPD*%
G36*
X688315Y238809D02*
X684350Y234844D01*
X683180Y235469D01*
X683385Y236500D01*
Y283960D01*
X685290D01*
Y283960D01*
X686410D01*
Y283960D01*
X688315D01*
Y238809D01*
D02*
G37*
G36*
X323197Y262753D02*
X324457Y261911D01*
X325944Y261615D01*
X351960D01*
Y256960D01*
X351960D01*
Y256040D01*
X351960D01*
Y251385D01*
X348609D01*
X342747Y257247D01*
X341487Y258089D01*
X340000Y258385D01*
X312732D01*
X312206Y259655D01*
X315280Y262729D01*
X317657Y260352D01*
X321628Y264322D01*
X323197Y262753D01*
D02*
G37*
G36*
X259393Y278512D02*
X261571Y276334D01*
X265050Y272855D01*
X267228Y270678D01*
X270707Y267199D01*
X272885Y265021D01*
X273726Y264179D01*
X280826Y271278D01*
X282622Y269482D01*
X275522Y262383D01*
X276364Y261542D01*
X278542Y259364D01*
X282021Y255885D01*
X284198Y253707D01*
X287677Y250228D01*
X288015Y249890D01*
X286344Y248219D01*
X285230D01*
X284734Y248120D01*
X284228D01*
X283760Y247926D01*
X283263Y247828D01*
X282843Y247546D01*
X282375Y247353D01*
X282017Y246995D01*
X281596Y246714D01*
X281315Y246293D01*
X280957Y245935D01*
X280764Y245467D01*
X280482Y245047D01*
X280384Y244550D01*
X280190Y244083D01*
Y243576D01*
X280091Y243080D01*
X280190Y242584D01*
Y242078D01*
X280384Y241610D01*
X280482Y241113D01*
X280764Y240693D01*
X280957Y240225D01*
X281315Y239867D01*
X281596Y239446D01*
X282017Y239165D01*
X282375Y238807D01*
X282843Y238614D01*
X283263Y238332D01*
X283760Y238234D01*
X284228Y238040D01*
X284734D01*
X285230Y237941D01*
X288472D01*
X290439Y238332D01*
X292106Y239446D01*
X295282Y242623D01*
X295512Y242393D01*
X300405Y237500D01*
X293334Y230429D01*
X287677Y224772D01*
X282021Y219115D01*
X276364Y213458D01*
X270707Y207801D01*
X265050Y202145D01*
X259393Y196488D01*
X254500Y191595D01*
X247429Y198666D01*
X241772Y204323D01*
X236115Y209979D01*
X235274Y210821D01*
X228174Y203722D01*
X226378Y205518D01*
X233478Y212617D01*
X232392Y213703D01*
X238055Y219366D01*
X238179Y219551D01*
X238773Y220145D01*
X239094Y220921D01*
X239169Y221033D01*
X239195Y221166D01*
X239540Y221998D01*
Y222898D01*
X239560Y223000D01*
X239540Y223102D01*
Y224002D01*
X239195Y224834D01*
X239169Y224967D01*
X239094Y225079D01*
X238773Y225855D01*
X238179Y226449D01*
X238055Y226634D01*
X237871Y226757D01*
X237355Y227273D01*
X236681Y227552D01*
X236388Y227748D01*
X236042Y227816D01*
X235502Y228040D01*
X234918D01*
X234422Y228139D01*
X233925Y228040D01*
X233498D01*
X233102Y227876D01*
X232455Y227748D01*
X231906Y227381D01*
X231645Y227273D01*
X231445Y227073D01*
X230788Y226634D01*
X225124Y220970D01*
X219145Y226950D01*
X213488Y232607D01*
X208595Y237500D01*
X213488Y242393D01*
X219145Y248050D01*
X220308Y249213D01*
X224960Y244561D01*
Y243997D01*
X225727Y242145D01*
X227145Y240727D01*
X228997Y239960D01*
X231003D01*
X232855Y240727D01*
X234273Y242145D01*
X235040Y243997D01*
Y246003D01*
X234273Y247855D01*
X232855Y249273D01*
X231003Y250040D01*
X230468D01*
X225802Y254707D01*
X226979Y255885D01*
X230458Y259364D01*
X231840Y260745D01*
X236960Y255625D01*
Y255497D01*
X237727Y253645D01*
X239145Y252227D01*
X240998Y251460D01*
X243002D01*
X244855Y252227D01*
X246273Y253645D01*
X247040Y255497D01*
Y257502D01*
X246273Y259355D01*
X244855Y260773D01*
X243002Y261540D01*
X242032D01*
X237333Y266239D01*
X238293Y267199D01*
X241772Y270678D01*
X247429Y276334D01*
X254500Y283405D01*
X259393Y278512D01*
D02*
G37*
G36*
X456960Y251546D02*
Y250998D01*
X457727Y249145D01*
X459145Y247727D01*
X460069Y247345D01*
X459816Y246075D01*
X458550D01*
X403012Y301613D01*
X401751Y302455D01*
X400265Y302751D01*
X304765D01*
X303279Y302455D01*
X302018Y301613D01*
X299620Y299215D01*
X298122Y299513D01*
X297773Y300355D01*
X296652Y301476D01*
X296468Y302250D01*
X296652Y303024D01*
X297773Y304145D01*
X298540Y305998D01*
Y308002D01*
X297773Y309855D01*
X296652Y310976D01*
X296468Y311750D01*
X296652Y312524D01*
X297773Y313645D01*
X298540Y315497D01*
Y317502D01*
X297773Y319355D01*
X296652Y320476D01*
X296468Y321250D01*
X296652Y322024D01*
X297773Y323145D01*
X298540Y324997D01*
Y327002D01*
X297773Y328855D01*
X296355Y330273D01*
X294503Y331040D01*
X292498D01*
X290645Y330273D01*
X289227Y328855D01*
X288460Y327002D01*
Y326454D01*
X265188Y303182D01*
X264346Y301922D01*
X264050Y300435D01*
Y294483D01*
X254500Y284933D01*
X241065Y298368D01*
X233230Y290533D01*
X228581Y285884D01*
X227479Y286985D01*
X273609Y333115D01*
X375391D01*
X456960Y251546D01*
D02*
G37*
G36*
X673846Y224340D02*
X649391Y199885D01*
X507174D01*
X506648Y201155D01*
X529954Y224460D01*
X530503D01*
X532355Y225227D01*
X532433Y225305D01*
X672190D01*
X673221Y225510D01*
X673846Y224340D01*
D02*
G37*
D11*
X447500Y835500D02*
X454500Y828500D01*
X476000D02*
X503000Y801500D01*
Y789000D02*
Y801500D01*
X454500Y828500D02*
X476000D01*
X447500Y835500D02*
Y858500D01*
X477500Y789500D02*
Y805000D01*
X496374Y215040D02*
X516834Y235500D01*
X336046Y215040D02*
X496374D01*
X516834Y235500D02*
X517500D01*
X462000Y196000D02*
X651000D01*
X692200Y237200D01*
X503500Y203500D02*
X529500Y229500D01*
X346000Y203500D02*
X503500D01*
X552441Y242190D02*
X580251Y270000D01*
X456941Y242190D02*
X552441D01*
X400265Y298866D02*
X456941Y242190D01*
X304765Y298866D02*
X400265D01*
X529500Y229500D02*
X529810Y229190D01*
X215948Y259067D02*
X230000Y245015D01*
X19740Y341160D02*
X31800Y329100D01*
X19740Y341160D02*
Y384895D01*
X32000Y397155D01*
Y420000D01*
X44636Y367336D02*
X75836D01*
X31800Y354500D02*
X44636Y367336D01*
X230000Y245000D02*
Y245015D01*
X214994Y259067D02*
X215948D01*
X241579Y256500D02*
X242000D01*
X227276Y270380D02*
X227698D01*
X241579Y256500D01*
X672190Y229190D02*
X679500Y236500D01*
Y294000D01*
X529810Y229190D02*
X672190D01*
X692200Y237200D02*
Y294000D01*
X462000Y252000D02*
X480500D01*
X377000Y337000D02*
X462000Y252000D01*
X272000Y337000D02*
X377000D01*
X221985Y286985D02*
X272000Y337000D01*
X221985Y286985D02*
X232933Y276037D01*
X131471Y377500D02*
X221985Y286985D01*
X527350Y267816D02*
X529500Y265666D01*
Y265000D02*
Y265666D01*
X527350Y267816D02*
Y291880D01*
X517500Y265000D02*
Y265666D01*
X514650Y268516D02*
Y291880D01*
Y268516D02*
X517500Y265666D01*
X318364Y273080D02*
X318364D01*
X325944Y265500D02*
X361500D01*
X318364Y273080D02*
X325944Y265500D01*
X540025Y275525D02*
Y291855D01*
X540000Y275500D02*
X540025Y275525D01*
Y291855D02*
X540050Y291880D01*
X645500Y319000D02*
X810500D01*
X845000Y284500D01*
X666500Y333756D02*
X666744Y334000D01*
X655488D02*
X666744D01*
X666500Y326500D02*
Y333756D01*
X666744Y334000D02*
X678000D01*
X594500Y121500D02*
X607000D01*
X611500Y126000D02*
X637500D01*
X607000Y121500D02*
X611500Y126000D01*
X548000Y121500D02*
Y137500D01*
X548000Y121500D02*
X548000Y121500D01*
Y121500D02*
X569500D01*
X548000Y121500D02*
X548000Y121500D01*
X176000Y273500D02*
X212843D01*
X221619Y264724D01*
X179246Y266580D02*
X207481D01*
X214994Y259067D01*
X176666Y264000D02*
X179246Y266580D01*
X176000Y264000D02*
X176666D01*
X202216Y261500D02*
X210306Y253410D01*
X190000Y261500D02*
X202216D01*
X118700Y190200D02*
X190000Y261500D01*
X86000Y377500D02*
X131471D01*
X75836Y367336D02*
X86000Y377500D01*
X57500Y261500D02*
X79500D01*
X164394Y280500D02*
X217157D01*
X227276Y270380D01*
X145394Y261500D02*
X164394Y280500D01*
X79500Y261500D02*
X145394D01*
X118700Y27000D02*
Y190200D01*
X57200Y279800D02*
Y329100D01*
Y279800D02*
X57500Y279500D01*
X314000Y122900D02*
X409900Y27000D01*
X264753Y187252D02*
X314000Y138005D01*
Y122900D02*
Y138005D01*
X391839Y83190D02*
X404510D01*
X460700Y27000D01*
X276067Y198963D02*
X391839Y83190D01*
X264753Y187252D02*
Y187649D01*
X227355Y188546D02*
Y191702D01*
Y188546D02*
X227932Y187969D01*
X227355Y191702D02*
X232933Y197280D01*
X227932Y44768D02*
Y187969D01*
X259000Y39100D02*
Y132000D01*
X233012Y157988D02*
Y186045D01*
Y157988D02*
X259000Y132000D01*
X233012Y186045D02*
X238590Y191623D01*
Y193306D01*
X259000Y39100D02*
X271100Y27000D01*
X227932Y44768D02*
X245700Y27000D01*
X201265Y46035D02*
Y176447D01*
Y46035D02*
X220300Y27000D01*
X189134Y188579D02*
Y191735D01*
Y188579D02*
X201265Y176447D01*
X189134Y191735D02*
X201265Y203866D01*
X197402Y255000D02*
X204649Y247753D01*
X193500Y255000D02*
X197402D01*
X144100Y205600D02*
X193500Y255000D01*
X144100Y27000D02*
Y205600D01*
X169500Y27000D02*
Y192098D01*
X204649Y227247D01*
X184054Y37846D02*
X194900Y27000D01*
X184054Y37846D02*
Y195338D01*
X210306Y221590D01*
X201265Y203866D02*
X203896D01*
X215963Y215933D01*
X214864Y178136D02*
Y178136D01*
X221699Y184971D01*
Y197359D02*
X227276Y202937D01*
Y204620D01*
X221699Y184971D02*
Y197359D01*
X232933Y197280D02*
Y198963D01*
X241065Y182020D02*
X296500Y126585D01*
Y27000D02*
Y126585D01*
X241065Y184467D02*
X244247Y187649D01*
X241065Y182020D02*
Y184467D01*
X270410Y192598D02*
X435300Y27708D01*
Y27000D02*
Y27708D01*
X270410Y192598D02*
Y193306D01*
X383000Y247500D02*
X400000D01*
X383000Y247500D02*
X383000Y247500D01*
X361500Y247500D02*
X383000D01*
X267935Y290533D02*
Y300435D01*
X293500Y326000D01*
X264753Y287351D02*
X267935Y290533D01*
X277394Y300394D02*
X293500Y316500D01*
X277394Y288678D02*
Y300394D01*
X282474Y295974D02*
X293500Y307000D01*
X270410Y281694D02*
Y281694D01*
X282474Y284127D02*
Y295974D01*
X270410Y281694D02*
X277394Y288678D01*
X287554Y281474D02*
Y291554D01*
X293500Y297500D01*
X276067Y277720D02*
X282474Y284127D01*
X276067Y276037D02*
Y277720D01*
X301035Y267064D02*
Y275178D01*
X292958Y271984D02*
Y276070D01*
X287554Y281474D02*
X292958Y276070D01*
X287381Y266406D02*
X292958Y271984D01*
X287381Y264724D02*
Y266406D01*
X292634Y283579D02*
Y286735D01*
Y283579D02*
X301035Y275178D01*
X292634Y286735D02*
X304765Y298866D01*
X293037Y259067D02*
X301035Y267064D01*
X580251Y270000D02*
X666500D01*
X304753Y247753D02*
X311500Y254500D01*
X340000D01*
X304351Y247753D02*
X304753D01*
X340000Y254500D02*
X347000Y247500D01*
X501950Y270050D02*
Y291880D01*
Y270050D02*
X502000Y270000D01*
X480500Y270000D02*
X502000D01*
X502000Y270000D01*
X666800Y270300D02*
Y294000D01*
X666500Y270000D02*
X666800Y270300D01*
X666500Y235500D02*
Y252000D01*
X666500Y252000D01*
X750000Y372500D02*
X750000Y372500D01*
X766500D01*
X704900Y348000D02*
X705000Y348100D01*
Y360500D01*
X717000Y372500D01*
X732000D01*
X845000Y255500D02*
Y263540D01*
Y284500D01*
X514825Y319175D02*
X515000Y319000D01*
X514825Y319175D02*
Y345945D01*
X514650Y346120D02*
X514825Y345945D01*
X654000Y335488D02*
Y347900D01*
X678000Y334000D02*
X679500Y335500D01*
Y348000D01*
X654000Y335488D02*
X655488Y334000D01*
X654000Y347900D02*
X654100Y348000D01*
X540000Y363000D02*
X540025Y362975D01*
Y346145D02*
X540050Y346120D01*
X540025Y346145D02*
Y362975D01*
X347000Y247500D02*
X361500D01*
X361500Y247500D01*
X641500Y358000D02*
X688178Y404678D01*
X641500Y348100D02*
Y358000D01*
X688178Y404678D02*
Y412678D01*
X688500Y413000D01*
X641400Y348000D02*
X641500Y348100D01*
X581150Y387650D02*
X626770Y433270D01*
X527350Y387650D02*
X581150D01*
X527350Y346120D02*
Y387650D01*
X481500Y433500D02*
Y696500D01*
X503000Y718000D01*
X481500Y433500D02*
X527350Y387650D01*
X503000Y718000D02*
Y770000D01*
X688500Y435000D02*
Y438000D01*
X626770Y433270D02*
X686770D01*
X688500Y435000D01*
X540170Y292000D02*
X561500D01*
X540050Y291880D02*
X540170Y292000D01*
X838500Y445500D02*
X850000D01*
X827000Y434000D02*
X838500Y445500D01*
X777000Y434000D02*
X827000D01*
X743500Y400500D02*
X777000Y434000D01*
X732500Y400500D02*
X743500D01*
X692200Y360200D02*
X732500Y400500D01*
X692200Y348000D02*
Y360200D01*
X641450Y277550D02*
Y293950D01*
Y277550D02*
X641500Y277500D01*
X641400Y294000D02*
X641450Y293950D01*
X626500Y294000D02*
X641400D01*
X622500Y298000D02*
X626500Y294000D01*
X622500Y298000D02*
Y311500D01*
X707500Y398000D02*
Y413000D01*
X869000Y420500D02*
X869000Y420500D01*
X869000Y406000D02*
Y420500D01*
X818000Y278000D02*
X818500D01*
X826000Y270500D01*
Y263580D02*
Y270500D01*
X825960Y263540D02*
X826000Y263580D01*
X975000Y238500D02*
X975000Y238500D01*
X942000Y238500D02*
X975000D01*
X877460Y238540D02*
X877500Y238500D01*
X844960Y238540D02*
X877460D01*
X801000Y263500D02*
X825920D01*
X825960Y263540D01*
Y238540D02*
Y246960D01*
X830000Y251000D01*
X840500D01*
X845000Y255500D01*
X298694Y253302D02*
Y253410D01*
X202136Y190864D02*
X202207D01*
X221619Y210276D02*
X221698D01*
X234422Y223000D02*
X234500D01*
X877500Y238500D02*
X899000D01*
X899000Y238500D01*
X920500D01*
Y256500D02*
X920500Y256500D01*
X942000D01*
X921960Y401460D02*
X922000Y401500D01*
Y427000D01*
X916000Y433000D02*
X922000Y427000D01*
X852000Y433000D02*
X916000D01*
X850000Y431000D02*
X852000Y433000D01*
X850000Y420500D02*
Y431000D01*
X888762Y420500D02*
X890250Y419012D01*
X869000Y420500D02*
X888762D01*
X890250Y410460D02*
Y419012D01*
X942960Y401460D02*
Y500960D01*
X943000Y555500D02*
Y569500D01*
X942960Y555460D02*
X943000Y555500D01*
X851000Y579000D02*
X933500D01*
X943000Y569500D01*
X737860Y479360D02*
X786230D01*
X707500Y449000D02*
X737860Y479360D01*
X707500Y438000D02*
Y449000D01*
Y413000D02*
X732500D01*
X732500Y413000D01*
X786230Y507660D02*
X786230Y507660D01*
Y479360D02*
Y507660D01*
X822900Y508000D02*
X823400Y508500D01*
X814000Y508000D02*
X822900D01*
X796340Y525660D02*
X814000Y508000D01*
X786230Y525660D02*
X796340D01*
X833000Y529500D02*
X863000D01*
X869000Y523500D01*
Y488000D02*
Y523500D01*
Y470000D02*
X869000Y470000D01*
Y445500D02*
Y470000D01*
X833000Y529500D02*
Y557000D01*
X944350Y649224D02*
Y723380D01*
X943045Y647919D02*
X944350Y649224D01*
X931650Y700650D02*
Y723380D01*
X931500Y700500D02*
X931650Y700650D01*
X477500Y769500D02*
X478000Y770000D01*
X477500Y759000D02*
Y769500D01*
X453500Y770000D02*
X453500Y770000D01*
X478000D01*
X477500Y789500D02*
X478000Y789000D01*
X942960Y518960D02*
Y537460D01*
X921960Y401460D02*
X942960D01*
X851000Y557000D02*
Y579000D01*
X855480Y575590D02*
X855590Y575480D01*
X529500Y442000D02*
X588000D01*
X626000Y480000D02*
X675000D01*
X588000Y442000D02*
X626000Y480000D01*
X675000D02*
X765500Y570500D01*
Y584500D01*
X839450Y647950D02*
X892890D01*
X794000Y602500D02*
X839450Y647950D01*
X765500Y602500D02*
X794000D01*
X850980Y579020D02*
X851000Y579000D01*
X850980Y579020D02*
Y630950D01*
X526150Y445350D02*
Y458180D01*
Y445350D02*
X529500Y442000D01*
X453459Y770041D02*
X453500Y770000D01*
X661750Y843670D02*
X661920Y843500D01*
X661750Y861670D02*
X664080Y864000D01*
X607570Y494290D02*
X608860Y493000D01*
X850690Y664240D02*
X850980Y663950D01*
X892690Y680750D02*
X892890Y680950D01*
X627810Y626400D02*
Y632025D01*
X628040Y632255D01*
X549150Y518180D02*
X549630Y518660D01*
X572010Y458040D02*
X572150Y458180D01*
X602490Y672330D02*
X610110D01*
X628040Y638794D02*
X631700Y642454D01*
X628040Y632255D02*
Y638794D01*
X153080Y807650D02*
X153700Y808270D01*
Y930000D02*
X154000Y930300D01*
X767560Y934080D02*
Y946670D01*
Y934080D02*
X771780Y929860D01*
Y920610D02*
Y929860D01*
X729570Y921270D02*
X729900Y920940D01*
X745450D02*
X745780Y920610D01*
X729900Y920940D02*
X745450D01*
X466820Y842941D02*
X467550Y843670D01*
X765500Y584500D02*
X765640Y584360D01*
X434900Y952400D02*
X435300Y952000D01*
D16*
X975000Y238500D02*
Y633338D01*
Y175220D02*
Y238500D01*
X960419Y647919D02*
X975000Y633338D01*
X853390Y53610D02*
X975000Y175220D01*
X943045Y647919D02*
X960419D01*
X892890Y647950D02*
X943014D01*
X824310Y664240D02*
X850690D01*
X815420Y673130D02*
X824310Y664240D01*
X791290Y673130D02*
X815420D01*
X782400Y664240D02*
X791290Y673130D01*
X727000Y664240D02*
X782400D01*
X578360Y518660D02*
X587250Y527550D01*
Y552950D01*
X549630Y518660D02*
X578360D01*
X153700Y808270D02*
Y930000D01*
X154000Y930300D02*
Y981000D01*
D17*
X569500Y140500D02*
D03*
Y131000D02*
D03*
Y121500D02*
D03*
X594500D02*
D03*
Y140500D02*
D03*
X503000Y770000D02*
D03*
Y779500D02*
D03*
Y789000D02*
D03*
X478000D02*
D03*
Y770000D02*
D03*
D18*
X548000Y103500D02*
D03*
Y121500D02*
D03*
X79500Y279500D02*
D03*
Y261500D02*
D03*
X57500D02*
D03*
Y279500D02*
D03*
X666500Y252000D02*
D03*
Y270000D02*
D03*
X383000Y265500D02*
D03*
Y247500D02*
D03*
X361500Y265500D02*
D03*
Y247500D02*
D03*
X502000Y252000D02*
D03*
Y270000D02*
D03*
X480500Y270000D02*
D03*
Y252000D02*
D03*
X561500Y292000D02*
D03*
Y310000D02*
D03*
X622500Y311500D02*
D03*
Y329500D02*
D03*
X801000Y263500D02*
D03*
Y245500D02*
D03*
X877500Y256500D02*
D03*
Y238500D02*
D03*
X920500Y238500D02*
D03*
Y256500D02*
D03*
X942000Y256500D02*
D03*
Y238500D02*
D03*
X890250Y392460D02*
D03*
Y410460D02*
D03*
X732500Y431000D02*
D03*
Y413000D02*
D03*
X786230Y507660D02*
D03*
Y525660D02*
D03*
X869000Y470000D02*
D03*
Y488000D02*
D03*
X931500Y700500D02*
D03*
Y682500D02*
D03*
X942960Y383460D02*
D03*
Y401460D02*
D03*
X921960Y383460D02*
D03*
Y401460D02*
D03*
X942960Y555460D02*
D03*
Y537460D02*
D03*
X942960Y518960D02*
D03*
Y500960D02*
D03*
X765500Y602500D02*
D03*
Y584500D02*
D03*
X629160Y659520D02*
D03*
Y677520D02*
D03*
X627890Y534010D02*
D03*
Y516010D02*
D03*
X607570Y516010D02*
D03*
Y534010D02*
D03*
X453500Y752000D02*
D03*
Y770000D02*
D03*
X899000Y256500D02*
D03*
Y238500D02*
D03*
X467550Y843670D02*
D03*
Y861670D02*
D03*
X489030Y843670D02*
D03*
Y861670D02*
D03*
X510620Y843670D02*
D03*
Y861670D02*
D03*
X532210Y843670D02*
D03*
Y861670D02*
D03*
X553800Y843670D02*
D03*
Y861670D02*
D03*
X575390Y843670D02*
D03*
Y861670D02*
D03*
X596980Y843670D02*
D03*
Y861670D02*
D03*
X618570Y843670D02*
D03*
Y861670D02*
D03*
X640270Y843670D02*
D03*
Y861670D02*
D03*
X661750Y843670D02*
D03*
Y861670D02*
D03*
D19*
X32000Y420000D02*
D03*
X50000D02*
D03*
X750000Y372500D02*
D03*
X732000D02*
D03*
X833000Y557000D02*
D03*
X851000D02*
D03*
X833000Y579000D02*
D03*
X851000D02*
D03*
X612650Y754880D02*
D03*
X630650D02*
D03*
X587250Y552950D02*
D03*
X569250D02*
D03*
X640480Y559300D02*
D03*
X658480D02*
D03*
X648210Y514850D02*
D03*
X666210D02*
D03*
X588630Y626610D02*
D03*
X570630D02*
D03*
X606520Y652010D02*
D03*
X588520D02*
D03*
X767560Y946670D02*
D03*
X785560D02*
D03*
D20*
X641400Y348000D02*
D03*
X654100D02*
D03*
X666800D02*
D03*
X679500D02*
D03*
X692200D02*
D03*
X704900D02*
D03*
X717600D02*
D03*
Y294000D02*
D03*
X704900D02*
D03*
X692200D02*
D03*
X679500D02*
D03*
X666800D02*
D03*
X654100D02*
D03*
X641400D02*
D03*
D21*
X204649Y247753D02*
D03*
X210306Y253410D02*
D03*
X215963Y259067D02*
D03*
X221619Y264724D02*
D03*
X227276Y270380D02*
D03*
X232933Y276037D02*
D03*
X238590Y281694D02*
D03*
X244247Y287351D02*
D03*
X304351Y227247D02*
D03*
X298694Y221590D02*
D03*
X293037Y215933D02*
D03*
X287381Y210276D02*
D03*
X281724Y204620D02*
D03*
X276067Y198963D02*
D03*
X270410Y193306D02*
D03*
X264753Y187649D02*
D03*
D22*
Y287351D02*
D03*
X270410Y281694D02*
D03*
X276067Y276037D02*
D03*
X281724Y270380D02*
D03*
X287381Y264724D02*
D03*
X293037Y259067D02*
D03*
X298694Y253410D02*
D03*
X304351Y247753D02*
D03*
X244247Y187649D02*
D03*
X238590Y193306D02*
D03*
X232933Y198963D02*
D03*
X227276Y204620D02*
D03*
X221619Y210276D02*
D03*
X215963Y215933D02*
D03*
X210306Y221590D02*
D03*
X204649Y227247D02*
D03*
D23*
X540050Y346120D02*
D03*
X527350D02*
D03*
X514650D02*
D03*
X501950D02*
D03*
Y291880D02*
D03*
X514650D02*
D03*
X527350D02*
D03*
X540050D02*
D03*
X918950Y777620D02*
D03*
X931650D02*
D03*
X944350D02*
D03*
X957050D02*
D03*
Y723380D02*
D03*
X944350D02*
D03*
X931650D02*
D03*
X918950D02*
D03*
D24*
X318364Y273136D02*
D03*
X305636Y285864D02*
D03*
X202136Y190864D02*
D03*
X214864Y178136D02*
D03*
D25*
X825960Y238540D02*
D03*
X835460D02*
D03*
X844960D02*
D03*
Y263540D02*
D03*
X825960D02*
D03*
X869000Y445500D02*
D03*
X859500D02*
D03*
X850000D02*
D03*
Y420500D02*
D03*
X869000D02*
D03*
X707500Y413000D02*
D03*
X688500D02*
D03*
Y438000D02*
D03*
X698000D02*
D03*
X707500D02*
D03*
D26*
X833000Y529500D02*
D03*
X842600Y508500D02*
D03*
X823400D02*
D03*
D27*
X633150Y721860D02*
D03*
X592150D02*
D03*
D28*
X627810Y626400D02*
D03*
X622810D02*
D03*
X617810D02*
D03*
X612810D02*
D03*
X607810D02*
D03*
Y582160D02*
D03*
X612810D02*
D03*
X617810D02*
D03*
X622810D02*
D03*
X627810D02*
D03*
D29*
X617810Y604280D02*
D03*
D30*
X710440Y664490D02*
D03*
Y700490D02*
D03*
D31*
X526150Y458180D02*
D03*
X549150D02*
D03*
X572150D02*
D03*
D32*
X549150Y518180D02*
D03*
D33*
X745780Y920610D02*
D03*
Y911110D02*
D03*
Y901610D02*
D03*
X771780D02*
D03*
Y911110D02*
D03*
Y920610D02*
D03*
D34*
X851710Y911110D02*
D03*
X815710D02*
D03*
D73*
X288472Y243080D02*
X295212Y249820D01*
X295213Y249820D01*
X285230Y243080D02*
X288472D01*
X295213Y249820D02*
X298694Y253302D01*
Y253410D02*
X318364Y273080D01*
X202207Y190864D02*
X221619Y210276D01*
X221698D02*
X234422Y223000D01*
X607570Y494290D02*
Y516010D01*
Y472570D02*
Y494290D01*
X608860Y493000D02*
X674000D01*
X697740Y516740D02*
Y603750D01*
X674000Y493000D02*
X697740Y516740D01*
X572150Y458180D02*
X593180D01*
X607570Y472570D01*
X255300Y930000D02*
X275300Y950000D01*
X334000D01*
X349000Y935000D01*
X417500D01*
X434900Y952400D01*
X235000Y960500D02*
X376800D01*
X384900Y952400D01*
X204500Y930000D02*
X235000Y960500D01*
D74*
X850980Y663950D02*
X867780Y680750D01*
X892690D01*
D75*
X549150Y458180D02*
Y518180D01*
D76*
X771780Y911110D02*
X815710D01*
D77*
X637500Y126000D02*
D03*
X943045Y647919D02*
D03*
D78*
X637500Y146000D02*
D03*
X722740Y603750D02*
D03*
X632650Y799330D02*
D03*
X943045Y627919D02*
D03*
X831490Y838720D02*
D03*
X749890Y861580D02*
D03*
D79*
X31800Y379900D02*
D03*
Y354500D02*
D03*
X57200Y379900D02*
D03*
Y354500D02*
D03*
X31800Y329100D02*
D03*
D80*
X57200D02*
D03*
D81*
X398100Y93000D02*
D03*
X423500D02*
D03*
X448900D02*
D03*
X295000Y981000D02*
D03*
D82*
X460700Y27000D02*
D03*
X409900D02*
D03*
X359100D02*
D03*
X384500D02*
D03*
X435300D02*
D03*
X486100D02*
D03*
X511500D02*
D03*
X687400D02*
D03*
X712800D02*
D03*
X738200D02*
D03*
X245700D02*
D03*
X194900D02*
D03*
X144100D02*
D03*
X169500D02*
D03*
X220300D02*
D03*
X271100D02*
D03*
X296500D02*
D03*
X573900D02*
D03*
X599300D02*
D03*
X624700D02*
D03*
X786230Y453960D02*
D03*
X853390Y53610D02*
D03*
X384900Y952400D02*
D03*
D83*
X333700Y27000D02*
D03*
X662000D02*
D03*
X118700D02*
D03*
X548500D02*
D03*
X803390Y53610D02*
D03*
X434900Y952400D02*
D03*
D84*
X786230Y479360D02*
D03*
D85*
X697740Y603750D02*
D03*
X612650Y799330D02*
D03*
X851490Y838720D02*
D03*
X729890Y861580D02*
D03*
D86*
X40000Y40000D02*
D03*
X960000D02*
D03*
X40000Y960000D02*
D03*
X960000D02*
D03*
D87*
X154000Y981000D02*
D03*
D88*
X850980Y664950D02*
D03*
Y630950D02*
D03*
X892890Y681950D02*
D03*
Y647950D02*
D03*
D89*
Y613950D02*
D03*
D90*
X153700Y930000D02*
D03*
D91*
X204500D02*
D03*
X255300D02*
D03*
X306100D02*
D03*
D92*
X278810Y606990D02*
D03*
Y807650D02*
D03*
X153080Y606990D02*
D03*
Y807650D02*
D03*
D93*
X353810Y606990D02*
D03*
Y807650D02*
D03*
X78080Y606990D02*
D03*
Y807650D02*
D03*
D94*
X803700Y647900D02*
D03*
D95*
X477500Y805000D02*
D03*
X336046Y215040D02*
D03*
X462000Y196000D02*
D03*
X517500Y235500D02*
D03*
X346000Y203500D02*
D03*
X285230Y243080D02*
D03*
X230000Y245000D02*
D03*
X242000Y256500D02*
D03*
X529500Y229500D02*
D03*
X760000Y297500D02*
D03*
X770000D02*
D03*
X780000D02*
D03*
X760000Y307500D02*
D03*
X770000D02*
D03*
X780000D02*
D03*
Y345000D02*
D03*
X770000D02*
D03*
X760000D02*
D03*
X780000Y335000D02*
D03*
X770000D02*
D03*
X760000D02*
D03*
X462000Y252000D02*
D03*
X529500Y265000D02*
D03*
X517500D02*
D03*
X540000Y275500D02*
D03*
X645500Y319000D02*
D03*
X666500Y326500D02*
D03*
X548000Y137500D02*
D03*
X176000Y264000D02*
D03*
Y273500D02*
D03*
X400000Y247500D02*
D03*
X293500Y316500D02*
D03*
Y297500D02*
D03*
Y326000D02*
D03*
Y307000D02*
D03*
X666500Y235500D02*
D03*
X766500Y372500D02*
D03*
X515000Y319000D02*
D03*
X540000Y363000D02*
D03*
X641500Y277500D02*
D03*
X707500Y398000D02*
D03*
X869000Y406000D02*
D03*
X818000Y278000D02*
D03*
X234500Y223000D02*
D03*
X477500Y759000D02*
D03*
X636000Y599000D02*
D03*
Y609500D02*
D03*
X599000Y599000D02*
D03*
Y609500D02*
D03*
X629500D02*
D03*
Y599000D02*
D03*
X605500D02*
D03*
Y609500D02*
D03*
X623500Y599000D02*
D03*
Y609500D02*
D03*
X617500Y599000D02*
D03*
Y609500D02*
D03*
X611500Y599000D02*
D03*
Y609500D02*
D03*
X631700Y642454D02*
D03*
X602490Y672330D02*
D03*
X729570Y921270D02*
D03*
M02*
